<svg xmlns="http://www.w3.org/2000/svg" width="295" height="98.107" viewBox="0 0 295 98.107">
  <g id="Grupo_1178886" data-name="Grupo 1178886" transform="translate(-1125 -3207.871)">
    <g id="Grupo_1178757" data-name="Grupo 1178757" transform="translate(1125 3218)">
      <rect id="Rect치ngulo_405094" data-name="Rect치ngulo 405094" width="295" height="61" rx="2" transform="translate(0 10)" fill="#2f5235"/>
      <rect id="Rect치ngulo_405095" data-name="Rect치ngulo 405095" width="233" height="81" rx="2" transform="translate(31)" fill="#abb9ae"/>
    </g>
    <g id="scissors_7242105_1_" data-name="scissors_7242105 (1)" transform="translate(1223 3207.871)">
      <g id="Grupo_1178914" data-name="Grupo 1178914" transform="translate(1.582 1.582)">
        <g id="Grupo_1178905" data-name="Grupo 1178905" transform="translate(37.977 36.395)">
          <path id="Trazado_1034766" data-name="Trazado 1034766" d="M219.4,195.489l.022.008a9.5,9.5,0,0,0-.429,2.832H201.582A1.582,1.582,0,0,1,200,196.747v-3.165A1.582,1.582,0,0,1,201.582,192h13.286A10.864,10.864,0,0,0,219.4,195.489Z" transform="translate(-200 -192)" fill="#d3a06c"/>
        </g>
        <g id="Grupo_1178906" data-name="Grupo 1178906" transform="translate(8.871 42.724)">
          <path id="Trazado_1034767" data-name="Trazado 1034767" d="M84.921,231.516a14.929,14.929,0,0,0,.2-2.449V224h15.824a9.468,9.468,0,0,0,3.355,7.241,17.047,17.047,0,0,1-5.321,2.908l-2.781.928.21,3.149A80.906,80.906,0,0,0,98.7,252.667a12.634,12.634,0,0,0-4.081,9.31H59.8A20.234,20.234,0,0,0,52.85,246.25a14.6,14.6,0,0,1,4.642-1.137l13.749-1.056a15.205,15.205,0,0,0,2.838-.493,14.946,14.946,0,0,0,5.182-2.587,15.029,15.029,0,0,0,5.659-9.461Z" transform="translate(-52.85 -224)" fill="#cf9e76"/>
        </g>
        <g id="Grupo_1178907" data-name="Grupo 1178907" transform="translate(0 80.701)">
          <path id="Trazado_1034768" data-name="Trazado 1034768" d="M68.447,422.33H57.054l-1.582-1.582-3.165,1.582H11.165A3.164,3.164,0,0,1,8,419.165V416H65.684Q66.927,419.219,68.447,422.33Z" transform="translate(-8 -416)" fill="#dfb28b"/>
        </g>
        <g id="Grupo_1178908" data-name="Grupo 1178908" transform="translate(0 64.974)">
          <path id="Trazado_1034769" data-name="Trazado 1034769" d="M23.824,352.217H8v-2.269a14.645,14.645,0,0,1,8.871-13.458A20.234,20.234,0,0,1,23.824,352.217Z" transform="translate(-8 -336.49)" fill="#fcd770"/>
        </g>
        <g id="Grupo_1178909" data-name="Grupo 1178909" transform="translate(50.636 71.391)">
          <path id="Trazado_1034770" data-name="Trazado 1034770" d="M268.081,368.93a80.711,80.711,0,0,0,2.967,9.31H264A12.634,12.634,0,0,1,268.081,368.93Z" transform="translate(-264 -368.93)" fill="#fcd770"/>
        </g>
        <g id="Grupo_1178910" data-name="Grupo 1178910" transform="translate(69.625 0)">
          <path id="Trazado_1034771" data-name="Trazado 1034771" d="M381.819,32.4a6.331,6.331,0,1,1-9.16,5.663v-.239a6.332,6.332,0,0,1,.546-2.571l5.238-11.785a6.332,6.332,0,0,0,.546-2.571v-.239a6.33,6.33,0,1,0-12.659,0V20.9a6.332,6.332,0,0,0,.546,2.571l5.238,11.785a6.332,6.332,0,0,1,.546,2.571A10.879,10.879,0,0,1,365.9,47.894a9.51,9.51,0,0,0-3.912-5.145l.3-.214a6.327,6.327,0,0,0,2.2-7.5l-3.578-8.948a12.63,12.63,0,0,1-.906-4.7v-.726a12.659,12.659,0,1,1,25.318,0,20.124,20.124,0,0,1-2.122,8.994Z" transform="translate(-360 -8)" fill="#5cd6b3"/>
        </g>
        <g id="Grupo_1178911" data-name="Grupo 1178911" transform="translate(37.977)">
          <path id="Trazado_1034772" data-name="Trazado 1034772" d="M203.5,32.4l-1.377-2.749A20.125,20.125,0,0,1,200,20.659a12.659,12.659,0,1,1,25.318,0v.726a12.63,12.63,0,0,1-.906,4.7l-3.578,8.948a6.327,6.327,0,0,0,2.2,7.5l.3.214a9.513,9.513,0,0,0-3.912,5.143l-.022-.008a10.864,10.864,0,0,1-4.528-3.489c-.117-.152-.229-.309-.336-.467a10.842,10.842,0,0,1-1.873-6.1,6.332,6.332,0,0,1,.546-2.571l5.238-11.785a6.332,6.332,0,0,0,.546-2.571v-.239a6.33,6.33,0,1,0-12.659,0V20.9a6.333,6.333,0,0,0,.546,2.571l5.238,11.785a6.332,6.332,0,0,1,.546,2.571v.239A6.33,6.33,0,1,1,203.5,32.4Z" transform="translate(-200 -8)" fill="#5cd6b3"/>
        </g>
        <g id="Grupo_1178912" data-name="Grupo 1178912" transform="translate(56.966 33.23)">
          <path id="Trazado_1034773" data-name="Trazado 1034773" d="M314.559,182.664a9.5,9.5,0,1,1-3.912-5.145A9.494,9.494,0,0,1,314.559,182.664Zm-5.9,2.83a3.165,3.165,0,1,0-3.165,3.165A3.164,3.164,0,0,0,308.659,185.494Z" transform="translate(-296 -176)" fill="#aab2bd"/>
        </g>
        <g id="Grupo_1178913" data-name="Grupo 1178913" transform="translate(52.218 49.966)">
          <path id="Trazado_1034774" data-name="Trazado 1034774" d="M300.483,264.445l-.21,3.149a80.776,80.776,0,0,1-12.449,37.993h-3.165a80.866,80.866,0,0,1-4.431-7.912q-1.519-3.106-2.763-6.33a80.679,80.679,0,0,1-5.255-23.751l-.21-3.149,2.781-.928a17.048,17.048,0,0,0,5.321-2.908,9.492,9.492,0,0,0,12.279,0,17.048,17.048,0,0,0,5.321,2.908Z" transform="translate(-272 -260.61)" fill="#ccd1d9"/>
        </g>
      </g>
      <g id="Grupo_1178915" data-name="Grupo 1178915" transform="translate(0)">
        <path id="Trazado_1034775" data-name="Trazado 1034775" d="M95.075,25.427l.742-1.484a21.8,21.8,0,0,0,2.29-9.7,14.241,14.241,0,1,0-28.483,0v.727a14.181,14.181,0,0,0,1.018,5.289L74.222,29.2a4.731,4.731,0,0,1-1.169,5.229,11.035,11.035,0,0,0-10.022,0A4.732,4.732,0,0,1,61.862,29.2l3.579-8.947a14.18,14.18,0,0,0,1.018-5.289v-.727a14.241,14.241,0,0,0-28.483,0,21.8,21.8,0,0,0,2.29,9.7l.742,1.484A7.9,7.9,0,0,0,39.8,36.7a3.166,3.166,0,0,0-1.825,2.863v3.165a3.168,3.168,0,0,0,3.165,3.165v3.486c0,.063,0,.126,0,.188l-.99-.4a1.582,1.582,0,0,0-1.175,2.938l1.72.688a13.368,13.368,0,0,1-.744,2.09l-1.022-.766a1.582,1.582,0,1,0-1.9,2.532L38.3,57.6a13.613,13.613,0,0,1-1.2,1.353L36.078,57.6a1.582,1.582,0,0,0-2.532,1.9l1.05,1.4a13.309,13.309,0,0,1-5.874,1.887L14.975,63.842A16.22,16.22,0,0,0,0,80.014v5.434A4.753,4.753,0,0,0,4.747,90.2H46.263l2.479-1.239,1.24,1.239H61.053a81.911,81.911,0,0,0,4.072,7.179l.466.733h4.9l.466-.733A82.591,82.591,0,0,0,83.652,58.638l.291-4.37L80,52.955a15.448,15.448,0,0,1-3.4-1.622,11.027,11.027,0,0,0,2.344-8.981,12.392,12.392,0,0,0,5.276-5.526,7.908,7.908,0,1,0,10.856-11.4ZM75.954,44.307a7.912,7.912,0,1,1-7.912-7.912A7.921,7.921,0,0,1,75.954,44.307ZM41.142,42.724V39.559h4.747a7.9,7.9,0,0,0,5.977-2.734,12.4,12.4,0,0,0,5.275,5.527c-.022.123-.043.247-.061.372ZM47.88,16.409a4.719,4.719,0,0,1-.409-1.928v-.239a4.747,4.747,0,1,1,9.494,0v.239a4.719,4.719,0,0,1-.409,1.928l-4.338,9.76ZM43.1,22.527a18.623,18.623,0,0,1-1.956-8.286,11.077,11.077,0,1,1,22.153,0v.727a11.033,11.033,0,0,1-.792,4.114l-3.579,8.947a7.892,7.892,0,0,0,1.488,8.26,11.134,11.134,0,0,0-2.242,3,9.258,9.258,0,0,1-4.37-7.884,4.719,4.719,0,0,1,.409-1.928l5.238-11.787a7.86,7.86,0,0,0,.682-3.213v-.239a7.912,7.912,0,1,0-15.824,0v.239a7.864,7.864,0,0,0,.682,3.213L50.227,29.48a4.719,4.719,0,0,1,.409,1.928v.239A4.747,4.747,0,1,1,45.889,26.9V23.736a7.9,7.9,0,0,0-2.051.271ZM15.218,67l13.748-1.057a16.723,16.723,0,0,0,2.071-.294l2.509,3.345a1.582,1.582,0,0,0,2.532-1.9l-1.835-2.447a16.5,16.5,0,0,0,2.27-1.194l1.78,2.374a1.582,1.582,0,0,0,2.532-1.9l-1.8-2.406c.3-.276.585-.56.861-.859q.513-.554.969-1.147l2.506,1.88a1.582,1.582,0,1,0,1.9-2.532L42.543,56.83a16.514,16.514,0,0,0,1.116-2.85l3.225,1.29a1.582,1.582,0,1,0,1.175-2.938l-3.816-1.526c.041-.474.064-.951.064-1.431V45.889H57.08a11.032,11.032,0,0,0,2.406,5.444,15.437,15.437,0,0,1-3.405,1.622l-3.941,1.314.291,4.37a82.169,82.169,0,0,0,2.123,13.84A14.3,14.3,0,0,0,50.727,80.7H18.935a22.244,22.244,0,0,0-5.461-13.447A12.918,12.918,0,0,1,15.218,67ZM57,80.7H53.918a11.131,11.131,0,0,1,1.653-4.417Q56.223,78.513,57,80.7ZM10.208,68.442A18.638,18.638,0,0,1,15.764,80.7H3.165v-.687a13.118,13.118,0,0,1,7.043-11.572ZM51.291,87.031l-1.925-1.925-3.851,1.925H4.747a1.584,1.584,0,0,1-1.582-1.582V83.866H58.2q.641,1.6,1.347,3.165Zm4.3-28.6-.129-1.93,1.621-.54A18.6,18.6,0,0,0,61.9,53.522a11.011,11.011,0,0,0,4.556,1.747V93.5A79.44,79.44,0,0,1,55.59,58.428ZM80.623,56.5l-.129,1.93A79.437,79.437,0,0,1,69.625,93.5V55.268a11.008,11.008,0,0,0,4.556-1.747A18.6,18.6,0,0,0,79,55.957Zm3.243-30.329-4.338-9.76a4.719,4.719,0,0,1-.409-1.928v-.239a4.747,4.747,0,0,1,9.494,0v.239a4.72,4.72,0,0,1-.409,1.928ZM90.2,36.395a4.753,4.753,0,0,1-4.747-4.747v-.239a4.72,4.72,0,0,1,.409-1.928L91.1,17.694a7.86,7.86,0,0,0,.682-3.213v-.239a7.912,7.912,0,0,0-15.824,0v.239a7.865,7.865,0,0,0,.682,3.213L81.874,29.48a4.719,4.719,0,0,1,.409,1.928,9.253,9.253,0,0,1-4.37,7.884,11.13,11.13,0,0,0-2.242-3,7.891,7.891,0,0,0,1.488-8.259l-3.579-8.947a11.043,11.043,0,0,1-.792-4.114v-.727a11.077,11.077,0,1,1,22.153,0,18.623,18.623,0,0,1-1.956,8.286l-.74,1.48a7.9,7.9,0,0,0-2.051-.271V26.9a4.747,4.747,0,1,1,0,9.494Z" transform="translate(0)"/>
        <path id="Trazado_1034776" data-name="Trazado 1034776" d="M324.747,209.494A4.747,4.747,0,1,0,320,204.747,4.753,4.753,0,0,0,324.747,209.494Zm0-6.33a1.582,1.582,0,1,1-1.582,1.582A1.584,1.584,0,0,1,324.747,203.165Z" transform="translate(-256.705 -160.441)"/>
      </g>
    </g>
  </g>
</svg>
