<svg xmlns="http://www.w3.org/2000/svg" width="295" height="94.387" viewBox="0 0 295 94.387">
  <g id="Grupo_1178969" data-name="Grupo 1178969" transform="translate(-1125 -1807.613)">
    <g id="Grupo_1178754" data-name="Grupo 1178754" transform="translate(1125 1821)">
      <rect id="Rect치ngulo_405094" data-name="Rect치ngulo 405094" width="295" height="61" rx="2" transform="translate(0 10)" fill="#2f5235"/>
      <rect id="Rect치ngulo_405095" data-name="Rect치ngulo 405095" width="233" height="81" rx="2" transform="translate(31)" fill="#abb9ae"/>
    </g>
    <g id="pen_7242092" transform="translate(1225.307 1807.613)">
      <g id="Grupo_1178862" data-name="Grupo 1178862" transform="translate(1.522 1.522)">
        <g id="Grupo_1178848" data-name="Grupo 1178848" transform="translate(1.357 63.939)">
          <path id="Trazado_1034708" data-name="Trazado 1034708" d="M67.222,358.676a21.45,21.45,0,0,1-5.361,8.086l0,0a6.06,6.06,0,0,0-3.937-1.446H24.43a6.06,6.06,0,0,0-3.937,1.446l0,0a21.45,21.45,0,0,1-5.361-8.086c3.283-7.8,12.194-13.616,23-14.544q1.5-.131,3.045-.131t3.045.131c10.807.929,19.718,6.744,23,14.544Z" transform="translate(-15.13 -344)" fill="#dfb28b"/>
        </g>
        <g id="Grupo_1178849" data-name="Grupo 1178849" transform="translate(6.717 85.253)">
          <path id="Trazado_1034709" data-name="Trazado 1034709" d="M84.668,457.446l0,0a21.487,21.487,0,0,1-4.312,3.157,11.794,11.794,0,0,1-5.728,1.484H53.34a11.787,11.787,0,0,1-5.728-1.484,21.487,21.487,0,0,1-4.312-3.157l0,0A6.06,6.06,0,0,1,47.239,456H80.731A6.06,6.06,0,0,1,84.668,457.446Z" transform="translate(-43.3 -456)" fill="#aab2bd"/>
        </g>
        <g id="Grupo_1178850" data-name="Grupo 1178850" transform="translate(30.447 18.268)">
          <path id="Trazado_1034710" data-name="Trazado 1034710" d="M168,119.224v-3.705a6.087,6.087,0,0,1,5.026-5.994c1.315-.234,2.721-.533,4.108-.879v0c4.677-1.17,9.134-2.908,9.134-4.643v21.226a63.717,63.717,0,0,0,4.556,23.656A21.429,21.429,0,0,1,191,164.347c-3.283-7.8-12.194-13.616-23-14.544V119.224Z" transform="translate(-168 -104)" fill="#cf9e76"/>
        </g>
        <g id="Grupo_1178851" data-name="Grupo 1178851" transform="translate(0 18.268)">
          <path id="Trazado_1034711" data-name="Trazado 1034711" d="M32.358,119.224V149.8c-10.807.929-19.718,6.744-23,14.544a21.456,21.456,0,0,1,.177-15.465,63.846,63.846,0,0,0,3.406-11.61,63.684,63.684,0,0,0,1.149-12.046V104c0,1.735,4.457,3.473,9.134,4.643v0c1.387.346,2.794.645,4.108.879a6.087,6.087,0,0,1,5.026,5.994Z" transform="translate(-8 -104)" fill="#cf9e76"/>
        </g>
        <g id="Grupo_1178852" data-name="Grupo 1178852" transform="translate(38.411 13.052)">
          <path id="Trazado_1034712" data-name="Trazado 1034712" d="M209.85,76.59c6.175,1.068,10.3,3,10.3,5.216,0,1.735-4.457,3.473-9.134,4.643V81.806A12.136,12.136,0,0,0,209.85,76.59Z" transform="translate(-209.85 -76.59)" fill="#ecc19c"/>
        </g>
        <g id="Grupo_1178853" data-name="Grupo 1178853" transform="translate(6.089 13.052)">
          <path id="Trazado_1034713" data-name="Trazado 1034713" d="M50.3,76.59a12.135,12.135,0,0,0-1.17,5.216v4.643C44.457,85.279,40,83.542,40,81.806,40,79.593,44.129,77.658,50.3,76.59Z" transform="translate(-40 -76.59)" fill="#ecc19c"/>
        </g>
        <g id="Grupo_1178854" data-name="Grupo 1178854" transform="translate(15.224 6.089)">
          <path id="Trazado_1034714" data-name="Trazado 1034714" d="M112.358,52.179v4.645c-1.387.346-2.794.645-4.108.879a6.087,6.087,0,0,0-5.026,5.994V67.4H97.134V63.7A6.087,6.087,0,0,0,92.108,57.7c-1.315-.234-2.721-.533-4.108-.879V52.179a12.179,12.179,0,1,1,24.358,0Z" transform="translate(-88 -40)" fill="#d3a06c"/>
        </g>
        <g id="Grupo_1178855" data-name="Grupo 1178855" transform="translate(24.358 33.492)">
          <path id="Trazado_1034715" data-name="Trazado 1034715" d="M142.089,214.577v0q-1.5-.131-3.045-.131t-3.045.131V184h6.089Z" transform="translate(-136 -184)" fill="#ecc19c"/>
        </g>
        <g id="Grupo_1178856" data-name="Grupo 1178856" transform="translate(66.984)">
          <path id="Trazado_1034716" data-name="Trazado 1034716" d="M378.268,18.657V35.4H360V17.134a9.134,9.134,0,0,1,18.268,0Z" transform="translate(-360 -8)" fill="#5cd6b3"/>
        </g>
        <g id="Grupo_1178857" data-name="Grupo 1178857" transform="translate(66.984 33.492)">
          <path id="Trazado_1034717" data-name="Trazado 1034717" d="M378.268,184v39.582a3.044,3.044,0,0,1-3.045,3.045H363.045A3.044,3.044,0,0,1,360,223.582v-3.045h9.134V190.089H360V184Z" transform="translate(-360 -184)" fill="#5cd6b3"/>
        </g>
        <g id="Grupo_1178858" data-name="Grupo 1178858" transform="translate(66.984 27.403)">
          <path id="Trazado_1034718" data-name="Trazado 1034718" d="M360,152h18.268v6.089H360Z" transform="translate(-360 -152)" fill="#fcd770"/>
        </g>
        <g id="Grupo_1178859" data-name="Grupo 1178859" transform="translate(66.984 39.582)">
          <path id="Trazado_1034719" data-name="Trazado 1034719" d="M360,216h9.134v30.447H360Z" transform="translate(-360 -216)" fill="#ffeaa7"/>
        </g>
        <g id="Grupo_1178860" data-name="Grupo 1178860" transform="translate(70.029 76.118)">
          <path id="Trazado_1034720" data-name="Trazado 1034720" d="M388.179,408l-3.045,9.134h-6.089L376,408Z" transform="translate(-376 -408)" fill="#ccd1d9"/>
        </g>
        <g id="Grupo_1178861" data-name="Grupo 1178861" transform="translate(73.074 85.253)">
          <path id="Trazado_1034721" data-name="Trazado 1034721" d="M398.089,456v3.045a3.045,3.045,0,1,1-6.089,0V456Z" transform="translate(-392 -456)" fill="#969faa"/>
        </g>
      </g>
      <g id="Grupo_1178863" data-name="Grupo 1178863" transform="translate(0)">
        <path id="Trazado_1034722" data-name="Trazado 1034722" d="M379.4,15.224a4.572,4.572,0,0,0-4.567-4.567h-1.522a10.657,10.657,0,0,0-21.313,0V74.6a4.575,4.575,0,0,0,3.421,4.421l2.668,8v2.8a4.567,4.567,0,1,0,9.134,0v-2.8l2.668-8a4.576,4.576,0,0,0,3.421-4.422V13.7h1.522a1.524,1.524,0,0,1,1.522,1.522V29.186a1.511,1.511,0,0,1-.446,1.076L374.2,31.97l1.707,1.707a1.512,1.512,0,0,1,.446,1.076v4.828H379.4V34.753a4.532,4.532,0,0,0-.945-2.783,4.532,4.532,0,0,0,.945-2.783ZM362.657,3.045a7.62,7.62,0,0,1,7.612,7.612V27.4H355.045V10.657A7.62,7.62,0,0,1,362.657,3.045Zm7.612,27.4v3.045H355.045V30.447ZM355.045,42.626h6.089v27.4h-6.089Zm7.612,48.716a1.524,1.524,0,0,1-1.522-1.522V88.3h3.045V89.82A1.524,1.524,0,0,1,362.657,91.342Zm1.947-6.089h-3.895l-2.03-6.089h7.954Zm4.142-9.134H356.567a1.524,1.524,0,0,1-1.522-1.522V73.074h9.134V39.582h-9.134V36.537h15.224V74.6A1.524,1.524,0,0,1,368.746,76.118Z" transform="translate(-285.016)"/>
        <path id="Trazado_1034723" data-name="Trazado 1034723" d="M51.76,66.926V45.7c0-3.877-6.464-5.755-10.822-6.58a13.694,13.694,0,0,0-24.028,0c-4.358.825-10.822,2.7-10.822,6.58V66.926A61.908,61.908,0,0,1,1.643,90.018a22.964,22.964,0,0,0,10.169,28.6A13.35,13.35,0,0,0,18.28,120.3H39.57a13.35,13.35,0,0,0,6.469-1.676,22.964,22.964,0,0,0,10.169-28.6A61.907,61.907,0,0,1,51.76,66.926Zm1.62,24.222A19.886,19.886,0,0,1,54.5,102c-4.235-6.339-12.021-10.739-21.01-11.863V86.805h3.045V83.76H33.492V80.716h3.045V77.671H33.492V74.626h3.045V71.582H33.492V68.537h3.045V65.492H33.492V62.447h3.045V59.4H33.492V57.22a4.561,4.561,0,0,1,3.768-4.5,54.1,54.1,0,0,0,9.047-2.374,21,21,0,0,0,2.408-1.058V66.926A64.938,64.938,0,0,0,53.38,91.148ZM30.447,68.537v3.045H27.4V68.537ZM27.4,65.492V62.447h3.045v3.045Zm3.045,9.134v3.045H27.4V74.626Zm0,6.089V83.76H27.4V80.716Zm0,6.089v3.08c-.505-.021-1.012-.035-1.522-.035s-1.017.014-1.522.035v-3.08ZM48.7,45.608c-.165.214-.951,1.014-4.043,2.1-.63.221-1.314.439-2.034.648V45.7a13.677,13.677,0,0,0-.379-3.19C46.79,43.6,48.54,44.976,48.7,45.608ZM28.925,35.045A10.669,10.669,0,0,1,39.582,45.7v3.444c-.941.215-1.9.412-2.853.581a7.6,7.6,0,0,0-6.281,7.494V59.4H27.4V57.22a7.6,7.6,0,0,0-6.281-7.494c-.952-.169-1.912-.365-2.853-.581V45.7A10.669,10.669,0,0,1,28.925,35.045ZM15.6,42.511a13.679,13.679,0,0,0-.379,3.19v2.656c-.72-.21-1.4-.427-2.034-.648-3.092-1.087-3.877-1.887-4.043-2.1C9.309,44.976,11.06,43.6,15.6,42.511ZM4.469,91.148A64.934,64.934,0,0,0,9.134,66.926V49.292a21,21,0,0,0,2.408,1.058,54.1,54.1,0,0,0,9.047,2.374,4.56,4.56,0,0,1,3.768,4.5V59.4H21.313v3.045h3.045v3.045H21.313v3.045h3.045v3.045H21.313v3.045h3.045v3.045H21.313v3.045h3.045V83.76H21.313v3.045h3.045v3.328C15.368,91.258,7.583,95.659,3.347,102A19.888,19.888,0,0,1,4.469,91.148Zm40.09,24.811a10.3,10.3,0,0,1-4.99,1.293H18.28a10.3,10.3,0,0,1-4.99-1.293,19.907,19.907,0,0,1-2.391-1.565,4.549,4.549,0,0,1,1.279-.187H45.671a4.555,4.555,0,0,1,1.279.187,19.876,19.876,0,0,1-2.391,1.565Zm4.867-3.8a7.614,7.614,0,0,0-3.755-.994H12.179a7.613,7.613,0,0,0-3.755.994,19.956,19.956,0,0,1-3.893-6.07C8.2,98.173,17.9,92.895,28.925,92.895s20.729,5.278,24.394,13.192A19.961,19.961,0,0,1,49.426,112.157Z" transform="translate(0 -25.911)"/>
      </g>
    </g>
  </g>
</svg>
