<svg xmlns="http://www.w3.org/2000/svg" xmlns:xlink="http://www.w3.org/1999/xlink" width="80" height="80" viewBox="0 0 80 80">
  <defs>
    <clipPath id="clip-path">
      <rect id="Rect치ngulo_404191" data-name="Rect치ngulo 404191" width="60.324" height="46.963" fill="none"/>
    </clipPath>
  </defs>
  <g id="Grupo_1110242" data-name="Grupo 1110242" transform="translate(-338.051 -5117)">
    <rect id="Rect치ngulo_404114" data-name="Rect치ngulo 404114" width="80" height="80" rx="12" transform="translate(338.051 5117)" fill="#efd42f"/>
    <g id="Grupo_1110241" data-name="Grupo 1110241" transform="translate(352.051 5135.019)">
      <g id="Grupo_1110237" data-name="Grupo 1110237" transform="translate(0 0)" clip-path="url(#clip-path)">
        <path id="Trazado_899761" data-name="Trazado 899761" d="M18.457,21.864l1.713,3.522h.01l1.191,3.781.7,2.193,0,.008L26.351,44.98a5.576,5.576,0,1,1-10.634,3.361l-3.924-12.5L7.823,25.225a5.577,5.577,0,1,1,10.635-3.36" transform="translate(-2.828 -6.718)" fill="#faa61a"/>
        <path id="Trazado_899762" data-name="Trazado 899762" d="M20.167,52.821a7.028,7.028,0,0,1-6.684-4.905L9.571,35.451,5.614,24.87c-.009-.024-.017-.047-.024-.071a7.016,7.016,0,0,1,13.346-4.334l1.6,3.3a1.406,1.406,0,0,1,.155.333l1.889,5.969c.015.047.028.1.038.143l4.244,13.482a7.025,7.025,0,0,1-6.7,9.133M8.325,23.9l3.956,10.579c.009.024.018.049.025.073l3.924,12.5a4.136,4.136,0,1,0,7.887-2.495L19.832,30.94c-.014-.044-.025-.088-.034-.133L18,25.12,16.3,21.635a1.379,1.379,0,0,1-.078-.2,4.137,4.137,0,0,0-7.9,2.459" transform="translate(-1.968 -5.859)" fill="#12263f"/>
        <path id="Trazado_899763" data-name="Trazado 899763" d="M21.795,15.538H11.083a8.784,8.784,0,0,0,0,17.568H21.795Z" transform="translate(-0.86 -5.81)" fill="#faa61a"/>
        <path id="Trazado_899764" data-name="Trazado 899764" d="M20.934,33.685H10.222a10.224,10.224,0,0,1,0-20.448H20.934a1.44,1.44,0,0,1,1.44,1.44V32.245a1.44,1.44,0,0,1-1.44,1.44M10.222,16.117a7.344,7.344,0,0,0,0,14.688h9.272V16.117Z" transform="translate(0 -4.95)" fill="#12263f"/>
        <path id="Trazado_899765" data-name="Trazado 899765" d="M39.114,15.538H49.826c4.85,0,9.534,3.932,9.534,8.783s-4.684,8.784-9.534,8.784H39.114Z" transform="translate(-14.625 -5.81)" fill="#fff"/>
        <path id="Trazado_899766" data-name="Trazado 899766" d="M48.966,33.685H38.254a1.44,1.44,0,0,1-1.44-1.44V14.677a1.44,1.44,0,0,1,1.44-1.44H48.966c5.845,0,10.973,4.778,10.973,10.224S54.812,33.685,48.966,33.685M39.694,30.8h9.272c4.236,0,8.093-3.5,8.093-7.343s-3.857-7.344-8.093-7.344H39.694Z" transform="translate(-13.765 -4.95)" fill="#12263f"/>
        <path id="Trazado_899767" data-name="Trazado 899767" d="M33.411,11.089V28.6l12.126,7a3.691,3.691,0,0,0,5.537-3.2V7.284a3.692,3.692,0,0,0-5.537-3.2Z" transform="translate(-12.493 -1.342)" fill="#ffcb05"/>
        <path id="Trazado_899768" data-name="Trazado 899768" d="M46.523,36.679a5.122,5.122,0,0,1-2.566-.7l-12.126-7a1.44,1.44,0,0,1-.72-1.247V10.227a1.438,1.438,0,0,1,.72-1.247l12.126-7a5.132,5.132,0,0,1,7.7,4.443V31.539a5.15,5.15,0,0,1-5.131,5.14M33.991,26.9,45.4,33.489a2.251,2.251,0,0,0,3.377-1.95V6.422A2.252,2.252,0,0,0,45.4,4.473l-11.4,6.586Z" transform="translate(-11.633 -0.48)" fill="#12263f"/>
        <path id="Trazado_899769" data-name="Trazado 899769" d="M74.1,7.725a1.44,1.44,0,0,1-1.018-2.458L77.931.421a1.44,1.44,0,1,1,2.037,2.037L75.122,7.3a1.435,1.435,0,0,1-1.018.421" transform="translate(-27.17 0)" fill="#fd8c25"/>
        <path id="Trazado_899770" data-name="Trazado 899770" d="M89.1,30.281h-6.85a1.44,1.44,0,0,1,0-2.88H89.1a1.44,1.44,0,1,1,0,2.88" transform="translate(-30.215 -10.246)" fill="#fd8c25"/>
        <path id="Trazado_899771" data-name="Trazado 899771" d="M78.949,54.789a1.435,1.435,0,0,1-1.018-.421l-4.845-4.844a1.44,1.44,0,1,1,2.036-2.037l4.845,4.844a1.44,1.44,0,0,1-1.018,2.458" transform="translate(-27.169 -17.598)" fill="#fd8c25"/>
        <path id="Trazado_899772" data-name="Trazado 899772" d="M20.076,26.013H14.27a1.44,1.44,0,0,1,0-2.88h5.806a1.44,1.44,0,0,1,0,2.88" transform="translate(-4.797 -8.65)" fill="#fff"/>
        <path id="Trazado_899773" data-name="Trazado 899773" d="M41.257,19.146a1.44,1.44,0,0,1-.779-2.652l4.885-3.138A1.44,1.44,0,1,1,46.92,15.78l-4.885,3.138a1.434,1.434,0,0,1-.777.229" transform="translate(-14.887 -4.909)" fill="#fff"/>
      </g>
    </g>
  </g>
</svg>
