<svg xmlns="http://www.w3.org/2000/svg" width="72" height="72" viewBox="0 0 72 72">
  <g id="Grupo_1179314" data-name="Grupo 1179314" transform="translate(-340.195 -2502)">
    <g id="Grupo_1179296" data-name="Grupo 1179296" transform="translate(-78.805 1381)">
      <path id="Trazado_824488" data-name="Trazado 824488" d="M36,0A36,36,0,1,1,0,36,36,36,0,0,1,36,0Z" transform="translate(419 1121)" fill="#acbaae"/>
    </g>
    <g id="Grupo_1179313" data-name="Grupo 1179313">
      <g id="prioridad" transform="translate(351.973 2513.777)">
        <path id="Trazado_1033940" data-name="Trazado 1033940" d="M43.113,114.274h-24.2A11.413,11.413,0,0,0,7.5,125.687v7.956a11.392,11.392,0,0,0,4.334,8.953A17.571,17.571,0,0,1,9.3,148.471a1.685,1.685,0,0,0,1.173,2.656A12.655,12.655,0,0,0,22.7,145.056H43.113a11.413,11.413,0,0,0,11.413-11.413v-7.956A11.413,11.413,0,0,0,43.113,114.274Z" transform="translate(-6.79 -103.461)" fill="#f89d2a"/>
        <path id="Trazado_1033941" data-name="Trazado 1033941" d="M160.708,114.274H138.466l1.047,10.559a9.179,9.179,0,0,0,1.562,4.275,9.59,9.59,0,1,0,17.025,0,9.179,9.179,0,0,0,1.561-4.275Z" transform="translate(-125.364 -103.461)" fill="#e16e7e"/>
        <path id="Trazado_1033942" data-name="Trazado 1033942" d="M181.257,9.54a6.218,6.218,0,0,0-4.6-2.04H172a6.207,6.207,0,0,0-6.176,6.819l1.344,13.554a6.188,6.188,0,0,0,2.4,4.324,6.663,6.663,0,1,0,9.516,0,6.188,6.188,0,0,0,2.4-4.324l1.344-13.554a6.218,6.218,0,0,0-1.576-4.779Z" transform="translate(-150.105 -6.79)" fill="#f6ee86"/>
        <path id="Trazado_1033943" data-name="Trazado 1033943" d="M209.326,43.589h-4.658a2.792,2.792,0,0,0-2.778,3.067l1.344,13.554a2.792,2.792,0,0,0,2.778,2.517h1.97a2.792,2.792,0,0,0,2.778-2.517L212.1,46.656A2.792,2.792,0,0,0,209.326,43.589Z" transform="translate(-182.775 -39.465)" fill="#f89d2a"/>
        <path id="Trazado_1033944" data-name="Trazado 1033944" d="M210.343,65.632c-4.7-3.08-7.523-14-7.177-17.4a2.79,2.79,0,0,0-1.275,2.628l1.344,13.554a2.792,2.792,0,0,0,2.778,2.517h1.97A2.792,2.792,0,0,0,210.343,65.632Z" transform="translate(-182.776 -43.668)" fill="#e16e7e"/>
        <circle id="Elipse_11603" data-name="Elipse 11603" cx="3.248" cy="3.248" r="3.248" transform="translate(20.975 26.816)" fill="#e16e7e"/>
        <path id="Trazado_1033945" data-name="Trazado 1033945" d="M35.313,40.885h-19.4a.71.71,0,0,0-.614.353A11.941,11.941,0,0,1,3.76,46.96a.975.975,0,0,1-.667-1.544,18.293,18.293,0,0,0,2.643-6.125.71.71,0,0,0-.252-.713,10.653,10.653,0,0,1-4.065-8.4V22.225a10.613,10.613,0,0,1,3.289-7.719.71.71,0,0,0-.983-1.023A12.02,12.02,0,0,0,0,22.225v7.956A12.058,12.058,0,0,0,4.25,39.4a16.712,16.712,0,0,1-2.319,5.2,2.4,2.4,0,0,0,1.68,3.769,13.384,13.384,0,0,0,12.7-6.067h19a.71.71,0,0,0,0-1.419ZM26.552,3.415H21.894a3.5,3.5,0,0,0-3.485,3.847l1.344,13.554a3.49,3.49,0,0,0,3.485,3.156h1.97a3.49,3.49,0,0,0,3.485-3.156L30.036,7.262a3.5,3.5,0,0,0-3.485-3.847Zm2.072,3.707L27.28,20.676a2.075,2.075,0,0,1-2.072,1.877h-1.97a2.076,2.076,0,0,1-2.072-1.877L19.822,7.122a2.081,2.081,0,0,1,2.072-2.288h4.658a2.081,2.081,0,0,1,2.072,2.288Zm-4.4,18.985a3.958,3.958,0,1,0,3.958,3.958A3.962,3.962,0,0,0,24.223,26.107Zm0,6.5a2.538,2.538,0,1,1,2.538-2.538A2.541,2.541,0,0,1,24.223,32.6Zm12.1-22.5H33.186l.248-2.5A6.92,6.92,0,0,0,26.552,0H21.894a6.92,6.92,0,0,0-6.883,7.6l.248,2.5H12.122a12,12,0,0,0-5.5,1.317.71.71,0,0,0,.645,1.264,10.587,10.587,0,0,1,4.855-1.162H15.4l.955,9.631a6.952,6.952,0,0,0,2.1,4.323,7.372,7.372,0,1,0,11.533,0,6.952,6.952,0,0,0,2.1-4.323l.955-9.631h3.278a10.715,10.715,0,0,1,10.7,10.7v7.956a10.734,10.734,0,0,1-8.545,10.486.71.71,0,1,0,.285,1.391,12.159,12.159,0,0,0,9.68-11.876V22.225A12.136,12.136,0,0,0,36.323,10.1Zm-4.3-2.644L30.678,21.013a5.443,5.443,0,0,1-2.128,3.83.71.71,0,0,0-.076,1.06,5.953,5.953,0,1,1-8.5,0,.71.71,0,0,0-.076-1.06,5.444,5.444,0,0,1-2.128-3.83L16.423,7.459a5.5,5.5,0,0,1,5.47-6.039h4.658a5.5,5.5,0,0,1,5.47,6.039Z"/>
      </g>
    </g>
  </g>
</svg>
