<svg xmlns="http://www.w3.org/2000/svg" xmlns:xlink="http://www.w3.org/1999/xlink" width="1326.49" height="554.018" viewBox="0 0 1326.49 554.018"><defs><linearGradient id="a" x1="0.5" x2="0.5" y2="1" gradientUnits="objectBoundingBox"><stop offset="0" stop-color="#2f5235"/><stop offset="1" stop-color="#2f5235" stop-opacity="0"/></linearGradient><linearGradient id="b" x1="0.5" x2="0.5" y2="1" gradientUnits="objectBoundingBox"><stop offset="0" stop-color="#2f5235" stop-opacity="0"/><stop offset="1" stop-color="#2f5235"/></linearGradient></defs><g transform="translate(0 -0.001)"><path d="M.488,546.638V294.206c-.164-.258-.326-.514-.488-.773V84.678C56.853,18.612,174.081-2.242,283.057.187c87.128,1.942,169.8,20.492,244.03,46.629,65.65,23.117,125.658,52.215,193.529,72.8,167.611,50.847,355.519,4.891,522.663-46.163,27.24-8.32,54.593-16.6,82.026-24.623V263.721h1.183V546.638Z" transform="translate(0.003 0)" opacity="0.079" fill="url(#a)"/><path d="M1048.261,486.62c-107.423,0-211.762-28.987-313.889-59.063-100.18-29.5-212.8-56.059-313.263-26.675-40.68,11.9-76.646,28.712-115.994,42.071-44.492,15.1-94.041,25.824-146.262,26.946C99.82,471.167,36.746,461.444,0,431.376V0H1326.488V290.81H1325.3V390.886c-33.7,46.548-112.3,76.926-192.873,89.406a548.425,548.425,0,0,1-84.159,6.327Z" transform="translate(1326.487 554.019) rotate(180)" opacity="0.079" fill="url(#b)"/></g></svg>