<svg xmlns="http://www.w3.org/2000/svg" width="58.031" height="68.481" viewBox="0 0 58.031 68.481">
  <g id="Grupo_1177654" data-name="Grupo 1177654" transform="translate(-194 -5751)">
    <path id="Rectángulo_401315" data-name="Rectángulo 401315" d="M5,0H25a5,5,0,0,1,5,5V66a0,0,0,0,1,0,0H0a0,0,0,0,1,0,0V5A5,5,0,0,1,5,0Z" transform="translate(194 5751)" fill="#2f5235"/>
    <g id="shoemaker_7242154" transform="translate(195 5754.002)">
      <g id="Grupo_1111330" data-name="Grupo 1111330" transform="translate(1.056 1.056)">
        <g id="Grupo_1111315" data-name="Grupo 1111315" transform="translate(14.786 33.796)">
          <path id="Trazado_900283" data-name="Trazado 900283" d="M136.9,265.056v7.393H120v-7.393L124.224,264a4.224,4.224,0,0,0,8.449,0Z" transform="translate(-120 -264)" fill="#899c78"/>
        </g>
        <g id="Grupo_1111316" data-name="Grupo 1111316" transform="translate(6.337 34.852)">
          <path id="Trazado_900284" data-name="Trazado 900284" d="M86.628,289.954a5.281,5.281,0,0,0-5.281,5.281V298.4H58.988a3.147,3.147,0,0,0,.181-1.056v-3.168a3.168,3.168,0,1,0,0-6.337v-4.224H56v-8.5a11.086,11.086,0,0,1,4.176-2.049L64.449,272v7.393h16.9V272l4.273,1.068a11.138,11.138,0,0,1,2.8,1.123,3.168,3.168,0,0,0,1.373,5.021v10.742Z" transform="translate(-56 -272)" fill="#acbaae"/>
        </g>
        <g id="Grupo_1111317" data-name="Grupo 1111317" transform="translate(3.168 54.918)">
          <path id="Trazado_900285" data-name="Trazado 900285" d="M38.337,426.112v3.168a3.168,3.168,0,0,1-6.337,0v-1.056h1.056a2.112,2.112,0,0,0,2.112-2.112V424a2.112,2.112,0,0,0,2.112,2.112Z" transform="translate(-32 -424)" fill="#6a7a8f"/>
        </g>
        <g id="Grupo_1111318" data-name="Grupo 1111318" transform="translate(3.168 46.469)">
          <path id="Trazado_900286" data-name="Trazado 900286" d="M38.337,360v4.224H37.281a2.112,2.112,0,0,0-2.112,2.112,2.112,2.112,0,0,0-2.112-2.112H32V360h6.337Z" transform="translate(-32 -360)" fill="#6a7a8f"/>
        </g>
        <g id="Grupo_1111319" data-name="Grupo 1111319" transform="translate(14.786 46.469)">
          <path id="Trazado_900287" data-name="Trazado 900287" d="M120,360h16.9v10.561H120Z" transform="translate(-120 -360)" fill="#728264"/>
        </g>
        <g id="Grupo_1111320" data-name="Grupo 1111320" transform="translate(38.02 35.908)">
          <path id="Trazado_900288" data-name="Trazado 900288" d="M307.617,280a3.168,3.168,0,1,1-2.112,5.529,3.165,3.165,0,0,1-4.224,0,3.168,3.168,0,1,1,0-4.721,3.165,3.165,0,0,1,4.224,0A3.151,3.151,0,0,1,307.617,280Z" transform="translate(-296 -280)" fill="#d3a06c"/>
        </g>
        <g id="Grupo_1111321" data-name="Grupo 1111321" transform="translate(31.684 59.143)">
          <path id="Trazado_900289" data-name="Trazado 900289" d="M267.01,456v2.112a2.112,2.112,0,0,1-2.112,2.112h-2.112l-1.056-1.056-2.112,1.056h-9.505A2.112,2.112,0,0,1,248,458.112V456Z" transform="translate(-248 -456)" fill="#ecc19c"/>
        </g>
        <g id="Grupo_1111322" data-name="Grupo 1111322" transform="translate(31.684 41.437)">
          <path id="Trazado_900290" data-name="Trazado 900290" d="M267.01,335.361v4.224H248V338.53a5.281,5.281,0,0,1,5.281-5.281h3.168V322.507a3.168,3.168,0,0,0,3.168-.627,3.165,3.165,0,0,0,4.224,0,3.168,3.168,0,0,0,3.168.627v4.405a2.112,2.112,0,0,0-2.112,2.112v4.224A2.112,2.112,0,0,0,267.01,335.361Z" transform="translate(-248 -321.88)" fill="#cf9e76"/>
        </g>
        <g id="Grupo_1111323" data-name="Grupo 1111323" transform="translate(48.582 46.469)">
          <path id="Trazado_900291" data-name="Trazado 900291" d="M382.337,363.168v2.112a3.169,3.169,0,0,1-3.168,3.168h-1.056A2.112,2.112,0,0,1,376,366.337v-4.224A2.112,2.112,0,0,1,378.112,360h1.056A3.169,3.169,0,0,1,382.337,363.168Z" transform="translate(-376 -360)" fill="#f0d0b4"/>
        </g>
        <g id="Grupo_1111324" data-name="Grupo 1111324" transform="translate(0 50.694)">
          <path id="Trazado_900292" data-name="Trazado 900292" d="M14.337,396.224v2.112a2.112,2.112,0,0,1-2.112,2.112H11.168A3.169,3.169,0,0,1,8,397.281v-2.112A3.169,3.169,0,0,1,11.168,392h1.056a2.112,2.112,0,0,1,2.112,2.112Z" transform="translate(-8 -392)" fill="#f0d0b4"/>
        </g>
        <g id="Grupo_1111325" data-name="Grupo 1111325" transform="translate(6.337 50.694)">
          <path id="Trazado_900293" data-name="Trazado 900293" d="M59.168,392a3.168,3.168,0,0,1,0,6.337H58.112A2.112,2.112,0,0,1,56,396.224v-2.112A2.112,2.112,0,0,1,58.112,392Z" transform="translate(-56 -392)" fill="#f0d0b4"/>
        </g>
        <g id="Grupo_1111326" data-name="Grupo 1111326" transform="translate(13.73 13.73)">
          <path id="Trazado_900294" data-name="Trazado 900294" d="M131.01,118.337v2.609a8.45,8.45,0,0,1-4.1,7.245l-.667.4a1.056,1.056,0,0,0-.512.906v2.57a4.224,4.224,0,1,1-8.449,0V129.5a1.056,1.056,0,0,0-.512-.906l-.667-.4a8.45,8.45,0,0,1-4.1-7.245V112h19.01Z" transform="translate(-112 -112)" fill="#f0d0b4"/>
        </g>
        <g id="Grupo_1111327" data-name="Grupo 1111327" transform="translate(32.74 13.73)">
          <path id="Trazado_900295" data-name="Trazado 900295" d="M260.034,114.086a3.169,3.169,0,0,1-2.978,4.251H256V112h1.056A3.169,3.169,0,0,1,260.034,114.086Z" transform="translate(-256 -112)" fill="#f0d0b4"/>
        </g>
        <g id="Grupo_1111328" data-name="Grupo 1111328" transform="translate(9.505 13.73)">
          <path id="Trazado_900296" data-name="Trazado 900296" d="M84.225,112v6.337H83.168A3.169,3.169,0,0,1,80,115.168a3.071,3.071,0,0,1,.086-.726A3.165,3.165,0,0,1,83.168,112Z" transform="translate(-80 -112)" fill="#f0d0b4"/>
        </g>
        <g id="Grupo_1111329" data-name="Grupo 1111329" transform="translate(7.393)">
          <path id="Trazado_900297" data-name="Trazado 900297" d="M92.752,10.349,91.459,9.056l-3.026.756a10.019,10.019,0,0,1-2.434.3,10.04,10.04,0,0,1-3.727-.718l-2.214-.886A7.134,7.134,0,0,0,77.415,8H75.2a7.116,7.116,0,0,0-5.92,3.168A6.568,6.568,0,0,0,64,17.609V19.27a6.567,6.567,0,0,0,2.2,4.9h0a3.165,3.165,0,0,1,3.083-2.442H90.4a3.169,3.169,0,0,1,2.978,2.086,10.012,10.012,0,0,0-.63-13.467Z" transform="translate(-64 -8)" fill="#b27946"/>
        </g>
      </g>
      <g id="Grupo_1111331" data-name="Grupo 1111331" transform="translate(0 0)">
        <path id="Trazado_900298" data-name="Trazado 900298" d="M52.806,46.469V43.789a4.223,4.223,0,0,0-4.224-7.315,4.225,4.225,0,0,0-4.224,0,4.217,4.217,0,0,0-4.72.339,12.168,12.168,0,0,0-2.367-.861l-7.7-1.925V32.282l.666-.4a9.553,9.553,0,0,0,4.615-8.15V22.179A4.227,4.227,0,0,0,38.99,17.1,11.065,11.065,0,0,0,37.947,2.658L36.232.943l-3.606.9a8.992,8.992,0,0,1-2.178.268,8.943,8.943,0,0,1-3.335-.642L24.9.584A8.135,8.135,0,0,0,21.865,0H19.65A8.154,8.154,0,0,0,13.1,3.286a7.648,7.648,0,0,0-5.707,7.38v1.66a7.631,7.631,0,0,0,2.128,5.28c-.009.115-.015.23-.015.348a4.229,4.229,0,0,0,4.224,4.224v1.553a9.553,9.553,0,0,0,4.615,8.151l.666.4v1.746l-7.7,1.925a12.106,12.106,0,0,0-2.863,1.115V30.628H6.337V46.469H3.168v4.358A4.232,4.232,0,0,0,0,54.918v2.112a4.232,4.232,0,0,0,3.168,4.091v.134a4.223,4.223,0,0,0,7.881,2.112H31.865a3.173,3.173,0,0,0,2.987,2.112h9.754l1.654-.827.827.827h2.55a3.172,3.172,0,0,0,3.168-3.168V57.031a4.229,4.229,0,0,0,4.224-4.224V50.694a4.229,4.229,0,0,0-4.224-4.224Zm-2.112.182a3.173,3.173,0,0,0-2.112,2.987v4.224a3.174,3.174,0,0,0,2.112,2.987v2.294H33.8a4.229,4.229,0,0,1,4.224-4.224h4.224V44.357a4.217,4.217,0,0,0,2.112-.566,4.225,4.225,0,0,0,4.224,0,4.217,4.217,0,0,0,2.112.566Zm-19.01,10.38H16.9V48.582H31.684ZM42.245,38.02a2.108,2.108,0,0,1,1.408.538l.7.631.7-.631a2.111,2.111,0,0,1,2.816,0l.7.631.7-.631a2.112,2.112,0,1,1,0,3.148l-.7-.631-.7.631a2.11,2.11,0,0,1-2.816,0l-.7-.631-.7.631a2.112,2.112,0,1,1-1.408-3.686ZM31.684,36.733v5.512H16.9V36.733l2.277-.569a5.281,5.281,0,0,0,10.231,0Zm3.168-16.666V15.842a2.112,2.112,0,0,1,0,4.224ZM11.617,17.954a2.115,2.115,0,0,1,2.112-2.112v4.224A2.115,2.115,0,0,1,11.617,17.954Zm4.224,5.778V14.647l1.526,1.018,1.172-1.758-2.249-1.5a1.008,1.008,0,0,1,.559-1.846h.25a1,1,0,0,1,.713.3l1.2,1.2,1.2-1.2a1,1,0,0,1,.713-.3h.25a1.008,1.008,0,0,1,.559,1.846l-2.249,1.5,1.172,1.758,2.249-1.5a3.12,3.12,0,0,0-1.731-5.716h-.25A3.1,3.1,0,0,0,19.01,9.1,3.1,3.1,0,0,0,17.1,8.449h-.25a3.124,3.124,0,0,0-3.12,3.12V13.73a4.218,4.218,0,0,0-3.322,1.619,5.519,5.519,0,0,1-.9-3.022v-1.66A5.528,5.528,0,0,1,13.937,5.26l.429-.086.243-.364a6.046,6.046,0,0,1,5.041-2.7h2.215a6.029,6.029,0,0,1,2.25.433l2.214.886a11.044,11.044,0,0,0,4.12.793,11.1,11.1,0,0,0,2.69-.331l2.446-.611.869.869a8.95,8.95,0,0,1,1.4,10.838A4.236,4.236,0,0,0,36.349,14a4.131,4.131,0,0,0-.593-5.089L34.543,7.7,33.049,9.2l1.213,1.213a2.013,2.013,0,0,1-.523,3.224l-1,.5v9.6a7.43,7.43,0,0,1-3.589,6.339l-.666.4a2.123,2.123,0,0,0-1.026,1.811v2.57a3.168,3.168,0,0,1-6.337,0v-2.57A2.123,2.123,0,0,0,20.1,30.47l-.666-.4a7.43,7.43,0,0,1-3.589-6.339ZM5.281,48.582H9.505v2.112a3.155,3.155,0,0,0-2.112.809,3.155,3.155,0,0,0-2.112-.809Zm5.281,8.449H9.505a1.057,1.057,0,0,1-1.056-1.056V53.862a1.057,1.057,0,0,1,1.056-1.056h1.056a2.112,2.112,0,0,1,0,4.224Zm-8.449,0V54.918a2.115,2.115,0,0,1,2.112-2.112H5.281a1.057,1.057,0,0,1,1.056,1.056v4.224a1.057,1.057,0,0,1-1.056,1.056H4.225A2.115,2.115,0,0,1,2.112,57.031Zm7.393,4.224a2.112,2.112,0,1,1-4.224,0,3.174,3.174,0,0,0,3.057-2.336,3.149,3.149,0,0,0,1.168.224Zm2.112-2.246a4.225,4.225,0,0,0,0-8.182V46.469H8.449V39.553A9.955,9.955,0,0,1,11.824,38l2.962-.74v7.1H33.8v-7.1l2.962.74a10.059,10.059,0,0,1,1.577.537,4.218,4.218,0,0,0,1.8,5.251v9.017H38.02A6.311,6.311,0,0,0,33.8,54.425V46.469H14.786V59.143h16.9v2.112H11.617Zm38.02,4.358H47.963l-1.285-1.285-2.57,1.285H34.852A1.057,1.057,0,0,1,33.8,62.311V61.255h16.9v1.056A1.057,1.057,0,0,1,49.638,63.367Zm5.281-10.561a2.115,2.115,0,0,1-2.112,2.112H51.75a1.057,1.057,0,0,1-1.056-1.056V49.638a1.057,1.057,0,0,1,1.056-1.056h1.056a2.115,2.115,0,0,1,2.112,2.112Z" transform="translate(0 0)"/>
        <path id="Trazado_900299" data-name="Trazado 900299" d="M156.958,200.063a4.449,4.449,0,0,0,4-2.473l.112-.223-1.889-.945-.112.223a2.361,2.361,0,0,1-4.224,0l-.112-.223-1.889.945.111.223A4.449,4.449,0,0,0,156.958,200.063Z" transform="translate(-132.667 -170.491)"/>
        <circle id="Elipse_11599" data-name="Elipse 11599" cx="1" cy="1" r="1" transform="translate(18 16.999)"/>
        <circle id="Elipse_11600" data-name="Elipse 11600" cx="1" cy="1" r="1" transform="translate(29 16.999)"/>
        <path id="Trazado_900300" data-name="Trazado 900300" d="M175.48,141.169a1.056,1.056,0,0,0,.472-1.417l-.111-.223a7.931,7.931,0,0,1-.833-3.529H172.9a10.062,10.062,0,0,0,.725,3.737l-1.2.6.945,1.889Z" transform="translate(-149.661 -118.046)"/>
        <path id="Trazado_900301" data-name="Trazado 900301" d="M188.147,62.473a2,2,0,0,1-1.113,1.8l-.415.208.945,1.889.415-.208a4.126,4.126,0,0,0,1.072-6.607l-1.213-1.213-1.493,1.493,1.213,1.213A2,2,0,0,1,188.147,62.473Z" transform="translate(-161.744 -50.641)"/>
        <path id="Trazado_900302" data-name="Trazado 900302" d="M220.147,62.473a2,2,0,0,1-1.113,1.8l-.415.208.945,1.889.415-.208a4.126,4.126,0,0,0,1.072-6.607l-1.213-1.213-1.493,1.493,1.213,1.213A2,2,0,0,1,220.147,62.473Z" transform="translate(-189.519 -50.641)"/>
      </g>
    </g>
  </g>
</svg>
