<svg xmlns="http://www.w3.org/2000/svg" width="295" height="102.622" viewBox="0 0 295 102.622">
  <g id="Grupo_1178847" data-name="Grupo 1178847" transform="translate(-1125 -381.378)">
    <g id="Grupo_1178750" data-name="Grupo 1178750" transform="translate(-0.051 -16)">
      <rect id="Rect치ngulo_405094" data-name="Rect치ngulo 405094" width="295" height="73" rx="2" transform="translate(1125.051 417)" fill="#2f5235"/>
      <rect id="Rect치ngulo_405095" data-name="Rect치ngulo 405095" width="233" height="93" rx="2" transform="translate(1156.051 407)" fill="#abb9ae"/>
    </g>
    <g id="tape_7242203" transform="translate(1221 381.378)">
      <g id="Grupo_1178845" data-name="Grupo 1178845" transform="translate(1.655 1.655)">
        <g id="Grupo_1178839" data-name="Grupo 1178839" transform="translate(13.242 9.931)">
          <path id="Trazado_1034697" data-name="Trazado 1034697" d="M111.725,56V95.725H91.862l-3.31,4.3,3.31,4.3-.9,1.175c-1.841.1-3.753.151-5.717.151a89,89,0,0,1-12.819-.844l2.888-5.777L72,95.725l3.31-3.31L72,87.449l3.31-3.31L72,80.828l3.31-3.31L72,74.207l3.31-3.31L73.8,64.959a65.237,65.237,0,0,0,11.444.972C99.867,65.931,111.725,61.485,111.725,56Z" transform="translate(-72 -56)" fill="#f0d0b4"/>
        </g>
        <g id="Grupo_1178840" data-name="Grupo 1178840">
          <path id="Trazado_1034698" data-name="Trazado 1034698" d="M60.966,17.931c0,5.485-11.857,9.931-26.483,9.931A65.237,65.237,0,0,1,23.04,26.89C14.143,25.289,8,21.879,8,17.931,8,12.446,19.857,8,34.483,8S60.966,12.446,60.966,17.931Zm-19.862,0c0-1.829-2.965-3.31-6.621-3.31s-6.621,1.481-6.621,3.31,2.965,3.31,6.621,3.31S41.1,19.76,41.1,17.931Z" transform="translate(-8 -8)" fill="#ecc19c"/>
        </g>
        <g id="Grupo_1178841" data-name="Grupo 1178841" transform="translate(0 9.931)">
          <path id="Trazado_1034699" data-name="Trazado 1034699" d="M23.04,64.959,24.552,70.9l-3.31,3.31,3.31,3.31-3.31,3.31,3.31,3.31-3.31,3.31,3.31,4.966-3.31,3.31,3.31,3.31-2.888,5.777C13.516,103.608,8,101.121,8,97.38V56C8,59.948,14.143,63.357,23.04,64.959Z" transform="translate(-8 -56)" fill="#ecc19c"/>
        </g>
        <g id="Grupo_1178842" data-name="Grupo 1178842" transform="translate(52.966 49.656)">
          <path id="Trazado_1034700" data-name="Trazado 1034700" d="M287.173,257.931c12.8,0,23.173-4.446,23.173-9.931v41.38c0,5.485-10.374,8.276-23.173,8.276-11.545,0-21.116-2.272-22.879-6.741A4.1,4.1,0,0,1,264,289.38V248C264,253.485,274.374,257.931,287.173,257.931Z" transform="translate(-264 -248)" fill="#e6e9ed"/>
        </g>
        <g id="Grupo_1178843" data-name="Grupo 1178843" transform="translate(52.966 39.725)">
          <path id="Trazado_1034701" data-name="Trazado 1034701" d="M310.345,209.931c0,5.485-10.374,9.931-23.173,9.931S264,215.416,264,209.931,274.374,200,287.173,200,310.345,204.446,310.345,209.931Zm-16.552,0c0-1.829-2.965-3.31-6.621-3.31s-6.621,1.481-6.621,3.31,2.965,3.31,6.621,3.31S293.793,211.76,293.793,209.931Z" transform="translate(-264 -200)" fill="#ccd1d9"/>
        </g>
        <g id="Grupo_1178844" data-name="Grupo 1178844" transform="translate(29.794 49.656)">
          <path id="Trazado_1034702" data-name="Trazado 1034702" d="M175.467,290.915l-.294.12H155.31l-3.31-4.3,3.31-4.306-3.31-4.3,3.31-4.3-3.31-4.3,3.31-4.3-3.31-4.3,2.406-3.128.9-1.175L152,252.3l3.31-4.3h19.862v41.38A4.094,4.094,0,0,0,175.467,290.915Z" transform="translate(-152 -248)" fill="#ccd1d9"/>
        </g>
      </g>
      <g id="Grupo_1178846" data-name="Grupo 1178846" transform="translate(0 0)">
        <path id="Trazado_1034703" data-name="Trazado 1034703" d="M344.276,233.931c4.718,0,8.276-2.135,8.276-4.966S348.994,224,344.276,224,336,226.135,336,228.966,339.558,233.931,344.276,233.931Zm0-6.621c3.2,0,4.966,1.243,4.966,1.655s-1.761,1.655-4.966,1.655-4.966-1.243-4.966-1.655S341.072,227.31,344.276,227.31Z" transform="translate(-266.482 -177.655)"/>
        <path id="Trazado_1034704" data-name="Trazado 1034704" d="M94.832,42.767a44.56,44.56,0,0,0-17.038-3.043,44.56,44.56,0,0,0-17.038,3.043,19.076,19.076,0,0,0-4.48,2.608V11.586C56.277,4.061,41.779,0,28.138,0S0,4.061,0,11.586v41.38c0,3.451,3.012,6.07,8.953,7.785,4.864,1.4,11.5,2.146,19.186,2.146.76,0,1.512-.01,2.259-.025L29.36,64.22l3.31,4.3-3.31,4.3,3.31,4.3-3.31,4.3,3.31,4.3-3.31,4.3L33.944,96H53.989c1.062,1.594,3.117,3.208,6.9,4.456,4.292,1.416,10.138,2.164,16.9,2.164s12.612-.749,16.9-2.164c6.549-2.161,7.924-5.416,7.924-7.767V51.311C102.622,47.955,99.855,44.92,94.832,42.767Zm-17.038.268c12.681,0,21.518,4.362,21.518,8.276s-8.837,8.276-21.518,8.276-21.518-4.362-21.518-8.276S65.113,43.035,77.794,43.035ZM28.138,3.31c14.21,0,24.828,4.369,24.828,8.276s-10.618,8.276-24.828,8.276S3.31,15.493,3.31,11.586,13.928,3.31,28.138,3.31ZM3.31,52.966v-35.7c2.788,2.131,7.1,3.707,12.036,4.693l1.024,4.022-3.815,3.815,3.31,3.31-3.31,3.31,3.31,3.31-3.1,3.1,3.31,4.966-3.521,3.521,3.637,3.637-1.819,3.639C7.073,57.354,3.31,55.151,3.31,52.966Zm14.525,6.1,2.386-4.772-2.983-2.983,3.1-3.1-3.31-4.966,3.521-3.521-3.31-3.31,3.31-3.31-3.31-3.31,2.806-2.806-1.129-4.434a68.713,68.713,0,0,0,9.224.619c9.669,0,19.766-2.041,24.828-5.909V49.656H33.944L29.36,55.614,32.354,59.5c-1.371.054-2.783.082-4.215.082a94,94,0,0,1-10.3-.521ZM35.574,92.691l-2.037-2.649,3.31-4.3-3.31-4.3,3.31-4.3-3.31-4.3,3.31-4.3-3.31-4.3,3.31-4.3-3.31-4.3,2.037-2.648H52.966V92.691Zm42.22,6.621c-12.468,0-21.518-2.784-21.518-6.621V57.247a19.083,19.083,0,0,0,4.48,2.608A44.564,44.564,0,0,0,77.794,62.9a44.56,44.56,0,0,0,17.038-3.043,19.076,19.076,0,0,0,4.48-2.608V92.691c0,3.836-9.049,6.621-21.518,6.621Z" transform="translate(0 0)"/>
        <path id="Trazado_1034705" data-name="Trazado 1034705" d="M409.5,369.8a33.472,33.472,0,0,1-10.044,1.9l.226,3.3c6.509-.445,10.645-1.728,12.345-2.78l.784-.485V352H409.5v17.8Z" transform="translate(-316.808 -279.171)"/>
        <path id="Trazado_1034706" data-name="Trazado 1034706" d="M104.276,41.931c4.718,0,8.276-2.135,8.276-4.966S108.994,32,104.276,32,96,34.135,96,36.966,99.558,41.931,104.276,41.931Zm0-6.621c3.2,0,4.966,1.243,4.966,1.655s-1.761,1.655-4.966,1.655-4.966-1.243-4.966-1.655S101.072,35.31,104.276,35.31Z" transform="translate(-76.138 -25.379)"/>
        <path id="Trazado_1034707" data-name="Trazado 1034707" d="M448,320h3.31v3.31H448Z" transform="translate(-355.309 -253.792)"/>
      </g>
    </g>
  </g>
</svg>
