<svg xmlns="http://www.w3.org/2000/svg" width="58.191" height="63.148" viewBox="0 0 58.191 63.148">
  <g id="Grupo_1178828" data-name="Grupo 1178828" transform="translate(-776.749 -530.237)">
    <g id="design_8584588" transform="translate(749.448 523.237)">
      <g id="Grupo_1178817" data-name="Grupo 1178817" transform="translate(27.801 7.5)">
        <path id="Trazado_1034650" data-name="Trazado 1034650" d="M75.08,9.837V59.014L64.447,69.648H30.139A2.337,2.337,0,0,1,27.8,67.311V9.837A2.337,2.337,0,0,1,30.139,7.5h42.6A2.337,2.337,0,0,1,75.08,9.837Z" transform="translate(-27.802 -7.5)" fill="#fcf1f2"/>
        <path id="Trazado_1034651" data-name="Trazado 1034651" d="M302.862,7.5H299.1a2.337,2.337,0,0,1,2.337,2.337V59.014L290.809,69.648h3.757L305.2,59.014V9.837A2.337,2.337,0,0,0,302.862,7.5Z" transform="translate(-257.921 -7.5)" fill="#f4e5e0"/>
        <g id="Grupo_1178815" data-name="Grupo 1178815" transform="translate(29.152 0.559)">
          <path id="Trazado_1034652" data-name="Trazado 1034652" d="M285.886,39.4,266.192,59.091l-5.258,1.558,1.559-5.257L282.187,35.7Z" transform="translate(-260.934 -32.731)" fill="#6c7fd8"/>
          <path id="Trazado_1034653" data-name="Trazado 1034653" d="M266.192,196.89l-5.258,1.558,1.559-5.257A4.13,4.13,0,0,1,266.192,196.89Z" transform="translate(-260.934 -170.53)" fill="#fdd79b"/>
          <path id="Trazado_1034654" data-name="Trazado 1034654" d="M266.192,196.89l-5.258,1.558,1.559-5.257A4.13,4.13,0,0,1,266.192,196.89Z" transform="translate(-260.934 -170.53)" fill="#fdd79b"/>
          <path id="Trazado_1034655" data-name="Trazado 1034655" d="M430.894,14.939l3.7,3.7,2.536-2.536a1.473,1.473,0,0,0,0-2.083L435.512,12.4a1.473,1.473,0,0,0-2.083,0Z" transform="translate(-409.641 -11.972)" fill="#fe646f"/>
          <path id="Trazado_1034656" data-name="Trazado 1034656" d="M449.466,14.019,447.85,12.4a1.473,1.473,0,0,0-2.083,0l-.772.772.774.719a1.473,1.473,0,0,1,0,2.083l-.748.752,1.909,1.909,2.535-2.536A1.473,1.473,0,0,0,449.466,14.019Z" transform="translate(-421.979 -11.972)" fill="#fd4755"/>
          <path id="Trazado_1034657" data-name="Trazado 1034657" d="M283.977,50.01,260.934,73.171l5.258-1.558,19.694-19.694Z" transform="translate(-260.934 -45.253)" fill="#4f66d0"/>
          <path id="Trazado_1034658" data-name="Trazado 1034658" d="M266.192,196.89l-5.258,1.558,1.559-5.257A4.13,4.13,0,0,1,266.192,196.89Z" transform="translate(-260.934 -170.53)" fill="#fdd79b"/>
          <path id="Trazado_1034659" data-name="Trazado 1034659" d="M260.934,206.637l5.258-1.558A4.223,4.223,0,0,0,265,202.551Z" transform="translate(-260.934 -178.72)" fill="#fbc56d"/>
        </g>
        <path id="Trazado_1034660" data-name="Trazado 1034660" d="M320.852,430.094v-8.3a2.337,2.337,0,0,1,2.337-2.337h8.3Z" transform="translate(-284.207 -367.946)" fill="#cdbfba"/>
        <g id="Grupo_1178816" data-name="Grupo 1178816" transform="translate(11.226 23.62)">
          <path id="Trazado_1034661" data-name="Trazado 1034661" d="M117.579,198.559v9.081h25.6v-1.287c0-2.386-3.1-5.058-6.428-5.058-4.248,0-8.056-1.808-9.775-4.067a2.155,2.155,0,0,0-1.718-.842h-5.5A2.174,2.174,0,0,0,117.579,198.559Z" transform="translate(-117.579 -196.385)" fill="#cdbfba"/>
          <path id="Trazado_1034662" data-name="Trazado 1034662" d="M117.579,286.391h25.6v2.477A1.178,1.178,0,0,1,142,290.045H118.757a1.178,1.178,0,0,1-1.178-1.178Z" transform="translate(-117.579 -275.136)" fill="#e6d6d1"/>
        </g>
      </g>
      <g id="Grupo_1178827" data-name="Grupo 1178827" transform="translate(27.801 7.5)">
        <g id="Grupo_1178818" data-name="Grupo 1178818" transform="translate(29.153 0.559)">
          <path id="Trazado_1034663" data-name="Trazado 1034663" d="M279.059,46.223,266.192,59.091l-5.258,1.558,1.559-5.257L282.187,35.7l3.7,3.7-3.714,3.714" transform="translate(-260.934 -32.731)" fill="none" stroke="#000" stroke-linecap="round" stroke-linejoin="round" stroke-miterlimit="10" stroke-width="1"/>
          <path id="Trazado_1034664" data-name="Trazado 1034664" d="M266.192,196.89l-5.258,1.558,1.559-5.257A4.13,4.13,0,0,1,266.192,196.89Z" transform="translate(-260.934 -170.53)" fill="none" stroke="#000" stroke-linecap="round" stroke-linejoin="round" stroke-miterlimit="10" stroke-width="1"/>
          <path id="Trazado_1034665" data-name="Trazado 1034665" d="M430.894,14.939l3.7,3.7,2.536-2.536a1.473,1.473,0,0,0,0-2.083L435.512,12.4a1.473,1.473,0,0,0-2.083,0Z" transform="translate(-409.641 -11.972)" fill="none" stroke="#000" stroke-linecap="round" stroke-linejoin="round" stroke-miterlimit="10" stroke-width="1"/>
        </g>
        <line id="Línea_654" data-name="Línea 654" y2="3.655" transform="translate(18.292 34.875)" fill="none" stroke="#000" stroke-linecap="round" stroke-linejoin="round" stroke-miterlimit="10" stroke-width="1"/>
        <line id="Línea_655" data-name="Línea 655" x1="1.916" y2="2.468" transform="translate(21.281 26.65)" fill="none" stroke="#000" stroke-linecap="round" stroke-linejoin="round" stroke-miterlimit="10" stroke-width="1"/>
        <line id="Línea_656" data-name="Línea 656" x1="1.991" y2="2.413" transform="translate(24.964 28.13)" fill="none" stroke="#000" stroke-linecap="round" stroke-linejoin="round" stroke-miterlimit="10" stroke-width="1"/>
        <g id="Grupo_1178821" data-name="Grupo 1178821" transform="translate(4.918 41.348)">
          <g id="Grupo_1178819" data-name="Grupo 1178819">
            <line id="Línea_657" data-name="Línea 657" y2="5.749" transform="translate(1.624)" fill="none" stroke="#000" stroke-linecap="round" stroke-linejoin="round" stroke-miterlimit="10" stroke-width="1"/>
            <line id="Línea_658" data-name="Línea 658" x1="5.749" transform="translate(0 4.125)" fill="none" stroke="#000" stroke-linecap="round" stroke-linejoin="round" stroke-miterlimit="10" stroke-width="1"/>
          </g>
          <g id="Grupo_1178820" data-name="Grupo 1178820" transform="translate(31.693)">
            <line id="Línea_659" data-name="Línea 659" y2="5.749" transform="translate(4.125)" fill="none" stroke="#000" stroke-linecap="round" stroke-linejoin="round" stroke-miterlimit="10" stroke-width="1"/>
            <line id="Línea_660" data-name="Línea 660" x2="5.749" transform="translate(0 4.125)" fill="none" stroke="#000" stroke-linecap="round" stroke-linejoin="round" stroke-miterlimit="10" stroke-width="1"/>
          </g>
        </g>
        <g id="Grupo_1178823" data-name="Grupo 1178823" transform="translate(4.918 15.051)">
          <g id="Grupo_1178822" data-name="Grupo 1178822" transform="translate(0 0)">
            <line id="Línea_661" data-name="Línea 661" y1="5.749" transform="translate(1.624)" fill="none" stroke="#000" stroke-linecap="round" stroke-linejoin="round" stroke-miterlimit="10" stroke-width="1"/>
            <line id="Línea_662" data-name="Línea 662" x1="5.749" transform="translate(0 1.624)" fill="none" stroke="#000" stroke-linecap="round" stroke-linejoin="round" stroke-miterlimit="10" stroke-width="1"/>
          </g>
        </g>
        <g id="Grupo_1178825" data-name="Grupo 1178825" transform="translate(10.667 16.675)">
          <g id="Grupo_1178824" data-name="Grupo 1178824">
            <line id="Línea_663" data-name="Línea 663" x2="1.501" fill="none" stroke="#000" stroke-linecap="round" stroke-linejoin="round" stroke-width="1"/>
            <line id="Línea_664" data-name="Línea 664" x2="17.692" transform="translate(5.432)" fill="none" stroke="#000" stroke-linecap="round" stroke-linejoin="round" stroke-width="1" stroke-dasharray="20.96 31.44"/>
            <line id="Línea_665" data-name="Línea 665" x2="1.501" transform="translate(25.089)" fill="none" stroke="#000" stroke-linecap="round" stroke-linejoin="round" stroke-width="1"/>
          </g>
        </g>
        <path id="Trazado_1034666" data-name="Trazado 1034666" d="M27.8,58.065V9.837A2.337,2.337,0,0,1,30.138,7.5h42.6a2.337,2.337,0,0,1,2.337,2.337v4.317" transform="translate(-27.801 -7.5)" fill="none" stroke="#000" stroke-linecap="round" stroke-linejoin="round" stroke-miterlimit="10" stroke-width="1"/>
        <path id="Trazado_1034667" data-name="Trazado 1034667" d="M75.079,119.87v37.463L64.446,167.967H30.138A2.337,2.337,0,0,1,27.8,165.63v-4.848" transform="translate(-27.801 -105.818)" fill="none" stroke="#000" stroke-linecap="round" stroke-linejoin="round" stroke-miterlimit="10" stroke-width="1"/>
        <path id="Trazado_1034668" data-name="Trazado 1034668" d="M320.852,430.094v-8.3a2.337,2.337,0,0,1,2.337-2.337h8.3Z" transform="translate(-284.207 -367.946)" fill="none" stroke="#000" stroke-linecap="round" stroke-linejoin="round" stroke-miterlimit="10" stroke-width="1"/>
        <line id="Línea_666" data-name="Línea 666" transform="translate(23.196 45.474)" fill="none" stroke="#000" stroke-linecap="round" stroke-linejoin="round" stroke-miterlimit="10" stroke-width="1"/>
        <g id="Grupo_1178826" data-name="Grupo 1178826" transform="translate(11.226 23.62)">
          <path id="Trazado_1034669" data-name="Trazado 1034669" d="M117.579,198.559v9.081h25.6v-1.287c0-2.386-3.1-5.058-6.428-5.058-4.248,0-8.056-1.808-9.775-4.067a2.155,2.155,0,0,0-1.718-.842h-5.5A2.174,2.174,0,0,0,117.579,198.559Z" transform="translate(-117.579 -196.385)" fill="none" stroke="#000" stroke-linecap="round" stroke-linejoin="round" stroke-miterlimit="10" stroke-width="1"/>
          <path id="Trazado_1034670" data-name="Trazado 1034670" d="M117.579,286.391h25.6v2.477A1.178,1.178,0,0,1,142,290.045H118.757a1.178,1.178,0,0,1-1.178-1.178Z" transform="translate(-117.579 -275.136)" fill="none" stroke="#000" stroke-linecap="round" stroke-linejoin="round" stroke-miterlimit="10" stroke-width="1"/>
        </g>
      </g>
    </g>
  </g>
</svg>
