<svg xmlns="http://www.w3.org/2000/svg" xmlns:xlink="http://www.w3.org/1999/xlink" width="108.914" height="108.914" viewBox="0 0 108.914 108.914">
  <defs>
    <filter id="Trazado_874925" x="0" y="0" width="108.914" height="108.914" filterUnits="userSpaceOnUse">
      <feOffset dy="3" input="SourceAlpha"/>
      <feGaussianBlur stdDeviation="3" result="blur"/>
      <feFlood flood-opacity="0.161"/>
      <feComposite operator="in" in2="blur"/>
      <feComposite in="SourceGraphic"/>
    </filter>
  </defs>
  <g id="Grupo_1179098" data-name="Grupo 1179098" transform="translate(-799.5 -2534.157)">
    <g id="Grupo_1111316" data-name="Grupo 1111316" transform="translate(0 587.946)">
      <g id="Grupo_1109835" data-name="Grupo 1109835">
        <g id="Grupo_1107913" data-name="Grupo 1107913" transform="translate(808.5 1952.211)">
          <g transform="matrix(1, 0, 0, 1, -9, -6)" filter="url(#Trazado_874925)">
            <g id="Trazado_874925-2" data-name="Trazado 874925" transform="translate(9 6)" fill="#d8cabd" opacity="0.859">
              <path d="M 45.45676803588867 89.41407012939453 C 39.52198028564453 89.41407012939453 33.76551818847656 88.25206756591797 28.34726715087891 85.96034240722656 C 23.11311721801758 83.74648284912109 18.41204261779785 80.57682800292969 14.37464332580566 76.5394287109375 C 10.33724308013916 72.50202941894531 7.167593002319336 67.80095672607422 4.953730583190918 62.56679534912109 C 2.662005424499512 57.14855575561523 1.500005483627319 51.39208221435547 1.500005483627319 45.45729446411133 C 1.500005483627319 39.52198028564453 2.662005424499512 33.76551818847656 4.953730583190918 28.34726905822754 C 7.167593002319336 23.11310577392578 10.33724308013916 18.41203117370605 14.37464332580566 14.37464332580566 C 18.41204261779785 10.33724403381348 23.11311721801758 7.167593955993652 28.34726715087891 4.953731060028076 C 33.76551818847656 2.662006139755249 39.52198028564453 1.500006198883057 45.45676803588867 1.500006198883057 C 51.39155578613281 1.500006198883057 57.14802932739258 2.662006139755249 62.56626892089844 4.953731060028076 C 67.80043029785156 7.167593955993652 72.50150299072266 10.33724403381348 76.53890228271484 14.37464332580566 C 80.57630920410156 18.41203117370605 83.74595642089844 23.11310577392578 85.95981597900391 28.34726905822754 C 88.25154113769531 33.76551818847656 89.41354370117188 39.52198028564453 89.41354370117188 45.45676803588867 C 89.41354370117188 51.39208221435547 88.25154113769531 57.14855575561523 85.95981597900391 62.56679534912109 C 83.74595642089844 67.80095672607422 80.57630920410156 72.50202941894531 76.53890228271484 76.5394287109375 C 72.50150299072266 80.57682800292969 67.80043029785156 83.74648284912109 62.56626892089844 85.96034240722656 C 57.14802932739258 88.25206756591797 51.39155578613281 89.41407012939453 45.45676803588867 89.41407012939453 Z" stroke="none"/>
              <path d="M 45.45676803588867 3 C 39.72381210327148 3 34.1639404296875 4.12213134765625 28.93159484863281 6.335227966308594 C 23.87622833251953 8.473472595214844 19.33542633056641 11.53517150878906 15.43529510498047 15.435302734375 C 11.53517150878906 19.33543395996094 8.473464965820312 23.87622833251953 6.335227966308594 28.93160247802734 C 4.122123718261719 34.16394424438477 3 39.72381591796875 3 45.4572868347168 C 3 51.19024658203125 4.122123718261719 56.75011825561523 6.335227966308594 61.98246002197266 C 8.473464965820312 67.03782653808594 11.53517150878906 71.57862854003906 15.43529510498047 75.478759765625 C 19.33542633056641 79.37889099121094 23.87622833251953 82.44058990478516 28.93159484863281 84.57883453369141 C 34.1639404296875 86.79193115234375 39.72381210327148 87.9140625 45.45676803588867 87.9140625 C 51.18972396850586 87.9140625 56.74959564208984 86.79193115234375 61.98194122314453 84.57883453369141 C 67.03730773925781 82.44058990478516 71.57810974121094 79.37889099121094 75.47824096679688 75.478759765625 C 79.37837219238281 71.57862854003906 82.44007110595703 67.03782653808594 84.57830810546875 61.98246002197266 C 86.79141235351562 56.75011825561523 87.91353607177734 51.19024658203125 87.91353607177734 45.4567756652832 C 87.91353607177734 39.72381591796875 86.79141235351562 34.16394424438477 84.57830810546875 28.93160247802734 C 82.44007110595703 23.87622833251953 79.37837219238281 19.33543395996094 75.47824096679688 15.435302734375 C 71.57810974121094 11.53517150878906 67.03730773925781 8.473472595214844 61.98194122314453 6.335227966308594 C 56.74959564208984 4.12213134765625 51.18972396850586 3 45.45676803588867 3 M 45.45676803588867 0 C 70.56185150146484 0 90.91353607177734 20.35169219970703 90.91353607177734 45.4567756652832 L 90.91353607177734 45.4572868347168 C 90.91353607177734 70.5623779296875 70.56185150146484 90.9140625 45.45676803588867 90.9140625 C 20.3516845703125 90.9140625 0 70.5623779296875 0 45.4572868347168 L 0 45.4567756652832 C 0 20.35169219970703 20.3516845703125 0 45.45676803588867 0 Z" stroke="none" fill="#fff"/>
            </g>
          </g>
          <g id="Trazado_874923" data-name="Trazado 874923" transform="translate(0 0)" fill="none">
            <path d="M45.457,0A45.457,45.457,0,0,1,90.914,45.457h0A45.457,45.457,0,0,1,0,45.457H0A45.457,45.457,0,0,1,45.457,0Z" stroke="none"/>
            <path d="M 45.45676803588867 3 C 39.72381210327148 3 34.1639404296875 4.12213134765625 28.93159484863281 6.335227966308594 C 23.87622833251953 8.473472595214844 19.33542633056641 11.53517150878906 15.43529510498047 15.435302734375 C 11.53517150878906 19.33543395996094 8.473464965820312 23.87622833251953 6.335227966308594 28.93160247802734 C 4.122123718261719 34.16394424438477 3 39.72381591796875 3 45.4572868347168 C 3 51.19024658203125 4.122123718261719 56.75011825561523 6.335227966308594 61.98246002197266 C 8.473464965820312 67.03782653808594 11.53517150878906 71.57862854003906 15.43529510498047 75.478759765625 C 19.33542633056641 79.37889099121094 23.87622833251953 82.44058990478516 28.93159484863281 84.57883453369141 C 34.1639404296875 86.79193115234375 39.72381210327148 87.9140625 45.45676803588867 87.9140625 C 51.18972396850586 87.9140625 56.74959564208984 86.79193115234375 61.98194122314453 84.57883453369141 C 67.03730773925781 82.44058990478516 71.57810974121094 79.37889099121094 75.47824096679688 75.478759765625 C 79.37837219238281 71.57862854003906 82.44007110595703 67.03782653808594 84.57830810546875 61.98246002197266 C 86.79141235351562 56.75011825561523 87.91353607177734 51.19024658203125 87.91353607177734 45.4567756652832 C 87.91353607177734 39.72381591796875 86.79141235351562 34.16394424438477 84.57830810546875 28.93160247802734 C 82.44007110595703 23.87622833251953 79.37837219238281 19.33543395996094 75.47824096679688 15.435302734375 C 71.57810974121094 11.53517150878906 67.03730773925781 8.473472595214844 61.98194122314453 6.335227966308594 C 56.74959564208984 4.12213134765625 51.18972396850586 3 45.45676803588867 3 M 45.45676803588867 0 C 70.56185150146484 0 90.91353607177734 20.35169219970703 90.91353607177734 45.4567756652832 L 90.91353607177734 45.4572868347168 C 90.91353607177734 70.5623779296875 70.56185150146484 90.9140625 45.45676803588867 90.9140625 C 20.3516845703125 90.9140625 0 70.5623779296875 0 45.4572868347168 L 0 45.4567756652832 C 0 20.35169219970703 20.3516845703125 0 45.45676803588867 0 Z" stroke="none" fill="#fff"/>
          </g>
        </g>
      </g>
    </g>
    <g id="Page-1" transform="translate(822.408 2551.465)">
      <g id="_018---Shoes" data-name="018---Shoes">
        <g id="Icons" transform="translate(1 1)">
          <path id="Shape" d="M57,43v7H35c6.32-2.37,11.39-4.74,13.24-5.63a1.321,1.321,0,0,0,.76-1.2v-.03a1.349,1.349,0,0,0-1.09-1.32C45.42,41.34,39.36,39.71,37,35a26.188,26.188,0,0,0,10.35,1.04,32.246,32.246,0,0,1,3.79-.12,2,2,0,0,1,1.86,2V39a2.013,2.013,0,0,0,.8,1.6Z" fill="#cfd8dc"/>
          <path id="Shape-2" data-name="Shape" d="M57,29V43l-3.2-2.4A2.013,2.013,0,0,1,53,39V37.92a2,2,0,0,0-1.86-2,32.247,32.247,0,0,0-3.79.12,14.43,14.43,0,0,0,4.44-7.51A2.009,2.009,0,0,1,53.73,27H55a2.006,2.006,0,0,1,2,2Z" fill="#f44335"/>
          <path id="Shape-3" data-name="Shape" d="M55,27H53.73a1.971,1.971,0,0,0-.865.206A2,2,0,0,1,54,29V40.75L57,43V29a2.006,2.006,0,0,0-2-2Z" fill="#c81e1e"/>
          <path id="Shape-4" data-name="Shape" d="M48.14,35.92c-.2-.013-.425-.016-.644-.018-.049.044-.1.1-.146.138l1.1-.069a1.972,1.972,0,0,0-.31-.051Z" fill="#c81e1e"/>
          <path id="Shape-5" data-name="Shape" d="M58,51v2a5,5,0,0,1-5,5H9S0,58,0,48c0,0,8,5,13,5h7a33.221,33.221,0,0,0,9.07-1.12c.9-.23,1.87-.5,2.92-.83.82-.26,1.68-.56,2.6-.9.13-.05.27-.1.41-.15H57a1,1,0,0,1,1,1Z" fill="#ffe0b2"/>
          <path id="Shape-6" data-name="Shape" d="M57,50H54a1,1,0,0,1,1,1v2a5,5,0,0,1-5,5h3a5,5,0,0,0,5-5V51a1,1,0,0,0-1-1Z" fill="#dfc49c"/>
          <path id="Shape-7" data-name="Shape" d="M29.07,51.88A33.221,33.221,0,0,1,20,53H13C8,53,0,48,0,48a5.237,5.237,0,0,1,.09-1C.83,43,6,43,6,43c.53-.03,1.06-.08,1.58-.15h8.83a11.37,11.37,0,0,1,1.82.2,14.6,14.6,0,0,1,10.84,8.83Z" fill="#f44335"/>
          <path id="Shape-8" data-name="Shape" d="M18.23,43.05a11.37,11.37,0,0,0-1.82-.2h-3a11.37,11.37,0,0,1,1.82.2,14.6,14.6,0,0,1,10.84,8.83A33.221,33.221,0,0,1,17,53h3a33.221,33.221,0,0,0,9.07-1.12,14.6,14.6,0,0,0-10.84-8.83Z" fill="#c81e1e"/>
          <path id="Shape-9" data-name="Shape" d="M49,43.14v.03a1.321,1.321,0,0,1-.76,1.2C46.39,45.26,41.32,47.63,35,50c-.14.05-.28.1-.41.15-.92.34-1.78.64-2.6.9-1.05.33-2.02.6-2.92.83a14.6,14.6,0,0,0-10.84-8.83,11.37,11.37,0,0,0-1.82-.2H7.58c.67-.09,1.34-.2,2-.34.69-.14,1.37-.32,2.05-.51C22.37,38.89,31,29.73,33.93,26.31a2.269,2.269,0,0,1,.47-.41,1.973,1.973,0,0,1,2.08-.01l.48.29,1.54.92a1.993,1.993,0,0,1,.81,2.5L37,35a8.953,8.953,0,0,0,.95,1.51c2.76,3.56,7.76,4.89,9.96,5.31A1.349,1.349,0,0,1,49,43.14Z" fill="#ff9801"/>
          <path id="Shape-10" data-name="Shape" d="M47.91,41.82C45.42,41.34,39.36,39.71,37,35l2.31-5.4a1.993,1.993,0,0,0-.81-2.5l-2.02-1.21a1.978,1.978,0,0,0-2.456.326L35.5,27.1a1.993,1.993,0,0,1,.81,2.5L34,35c2.36,4.71,8.42,6.34,10.91,6.82A1.349,1.349,0,0,1,46,43.14v.03a1.321,1.321,0,0,1-.76,1.2C43.39,45.26,38.32,47.63,32,50c-.14.05-.28.1-.41.15-.92.34-1.78.64-2.6.9-.09.028-.171.05-.261.078.12.247.235.5.341.752.9-.23,1.87-.5,2.92-.83.82-.26,1.68-.56,2.6-.9.13-.05.27-.1.41-.15,6.32-2.37,11.39-4.74,13.24-5.63a1.321,1.321,0,0,0,.76-1.2v-.03a1.349,1.349,0,0,0-1.09-1.32Z" fill="#f57c00"/>
          <path id="Shape-11" data-name="Shape" d="M47.71,15.43,36.96,26.18l-.48-.29a1.973,1.973,0,0,0-2.08.01c1.55-3.87,2.65-6.89,3.13-8.25a1.321,1.321,0,0,0-.31-1.39l-.02-.02a1.335,1.335,0,0,0-1.7-.16c-2.1,1.42-7.54,4.55-12.54,2.89a26.218,26.218,0,0,0,8.05-6.59,36.686,36.686,0,0,1,2.6-2.76,2,2,0,0,1,2.73.1l.76.76a2,2,0,0,0,1.7.57l3.96-.57L47,14.73Z" fill="#9e9e9e"/>
          <path id="Shape-12" data-name="Shape" d="M42.76,10.48l-3.96.57a2,2,0,0,1-1.7-.57l-.76-.76a2,2,0,0,0-2.73-.1,36.685,36.685,0,0,0-2.6,2.76,14.391,14.391,0,0,0-2.17-8.44,2.024,2.024,0,0,1,.29-2.46l.9-.9a2.022,2.022,0,0,1,2.83,0Z" fill="#c81e1e"/>
          <path id="Shape-13" data-name="Shape" d="M50.54,23.92,37.95,36.51A8.953,8.953,0,0,1,37,35l2.31-5.4a1.993,1.993,0,0,0-.81-2.5l-1.54-.92L47.71,15.43a1,1,0,0,1,1.41,0l1.42,1.42a5,5,0,0,1,0,7.07Z" fill="#dfc49c"/>
          <path id="Shape-14" data-name="Shape" d="M37.53,17.65c-.48,1.36-1.58,4.38-3.13,8.25a2.269,2.269,0,0,0-.47.41C31,29.73,22.37,38.89,11.63,42c-.68.19-1.36.37-2.05.51a35.922,35.922,0,0,0,4.03-10.77v-.01a48.861,48.861,0,0,0,.81-4.97c.18-1.52.28-2.97.34-4.33.06-1.56.07-3,.04-4.25-.03-1.29-.09-2.37-.16-3.19a2,2,0,0,1,1.51-2.1l2.28-.57a1.989,1.989,0,0,1,2.34,1.2l2.19,5.45c5,1.66,10.44-1.47,12.54-2.89a1.335,1.335,0,0,1,1.7.16l.02.02a1.321,1.321,0,0,1,.31,1.39Z" fill="#f57c00"/>
        </g>
        <g id="Icons_copy">
          <path id="Shape-15" data-name="Shape" d="M59,50.278V30a3,3,0,0,0-3-3H54.73a3,3,0,0,0-2.911,2.291,13.456,13.456,0,0,1-3.894,6.771,25.839,25.839,0,0,1-8.562-.706L41.225,31a3,3,0,0,0-1.211-3.761L38,26.035a2.968,2.968,0,0,0-3.829.625c-.422.493-.949,1.086-1.557,1.741l-2.1-1.258a1,1,0,1,0-1.03,1.714l1.707,1.025q-.731.738-1.565,1.528l-2.112-1.267a1,1,0,1,0-1.03,1.714l1.6.958q-.816.718-1.7,1.445l-1.862-1.117a1,1,0,1,0-1.03,1.714l1.208.725c-.752.565-1.539,1.118-2.351,1.657l-1.827-1.1a1,1,0,1,0-1.03,1.714l.96.576a34.906,34.906,0,0,1-8.094,3.607A25.056,25.056,0,0,1,7,43C4.924,43,.812,44.007.107,47.812A6.272,6.272,0,0,0,0,49C0,59.874,9.9,60,10,60H54a6.006,6.006,0,0,0,6-6V52A1.993,1.993,0,0,0,59,50.278ZM53.761,29.77A1.014,1.014,0,0,1,54.73,29H56a1,1,0,0,1,1,1V42l-1.6-1.2A1.007,1.007,0,0,1,55,40V38.919a3,3,0,0,0-2.793-2.992c-.449-.029-.922-.029-1.42-.016a15.768,15.768,0,0,0,2.974-6.141ZM48.98,38a26.652,26.652,0,0,1,3.1-.08,1,1,0,0,1,.924,1V40a3.017,3.017,0,0,0,1.2,2.4L57,44.5V50H41.268c3.972-1.636,7.028-3.066,8.4-3.725a2.358,2.358,0,0,0-.565-4.437c-1.915-.369-6.046-1.453-8.682-4.176A31.867,31.867,0,0,0,48.98,38ZM25.515,39.14l-1.281-.769c.8-.552,1.559-1.119,2.3-1.69l1.955,1.173a1,1,0,0,0,1.03-1.714L28.2,35.346c.584-.488,1.152-.975,1.687-1.455l1.6.963a1,1,0,0,0,1.03-1.714L31.4,32.476q.832-.8,1.55-1.537l1.531.918a1,1,0,0,0,1.03-1.714l-1.151-.691c.51-.556.96-1.066,1.331-1.5a.983.983,0,0,1,1.272-.2l2.015,1.208a1,1,0,0,1,.409,1.251l-2.31,5.4a1,1,0,0,0,.025.841c2.561,5.11,8.976,6.845,11.6,7.351a.357.357,0,0,1,.3.367.324.324,0,0,1-.193.3c-1.878.9-6.92,3.256-13.143,5.589-.145.052-.292.1-.427.156-.9.334-1.746.628-2.549.883-.722.229-1.4.43-2.053.607a15.493,15.493,0,0,0-11.228-8.639,12.473,12.473,0,0,0-2-.215H16.058A40.55,40.55,0,0,0,22.386,39.6l2.1,1.259a1,1,0,0,0,1.03-1.714ZM2.073,48.182C2.651,45.058,6.825,45,7.063,45c.514-.032,1.033-.083,1.553-.148h8.792a10.7,10.7,0,0,1,1.647.184A13.471,13.471,0,0,1,28.628,52.2,31.749,31.749,0,0,1,21,53H14c-3.966,0-10.174-3.486-11.969-4.546.011-.093.025-.183.042-.272ZM58,54a4,4,0,0,1-4,4H10a7.976,7.976,0,0,1-7.869-7.181C4.806,52.315,10.144,55,14,55h7a36.674,36.674,0,0,0,12.292-2c.834-.264,1.709-.569,2.645-.915l.011-.005.229-.08H58Z"/>
          <path id="Shape-16" data-name="Shape" d="M45,56H55a1,1,0,0,0,0-2H45a1,1,0,0,0,0,2Z"/>
          <path id="Shape-17" data-name="Shape" d="M43.9,27.9a.993.993,0,0,0,.707-.293l5.517-5.516a1,1,0,1,0-1.414-1.414l-5.517,5.516A1,1,0,0,0,43.9,27.9Z"/>
          <path id="Shape-18" data-name="Shape" d="M11.7,32.433a1,1,0,0,0,.242,1.97,1.015,1.015,0,0,0,.243-.029l1.058-.265a38.566,38.566,0,0,1-1.3,4.255,1,1,0,0,0,1.869.712,41.089,41.089,0,0,0,1.631-5.516l2.4-.6a1,1,0,0,0-.484-1.94l-1.469.367c.167-.917.314-1.856.435-2.82l2.226-.557a1,1,0,0,0-.484-1.94l-1.508.377c.065-.713.118-1.455.16-2.221l1.832-.458a1,1,0,0,0-.484-1.941l-1.27.317q.025-1.13.014-2.184l1.74-.435a1,1,0,1,0-.484-1.941l-1.3.326c-.031-.731-.071-1.413-.121-2a1,1,0,0,1,.757-1.048l2.273-.569a1,1,0,0,1,1.175.6l2.19,5.45a1,1,0,0,0,.613.576c5.431,1.8,11.189-1.5,13.417-3.011a.342.342,0,0,1,.451.059.33.33,0,0,1,.074.352c-.279.8-.776,2.167-1.451,3.946a1,1,0,1,0,1.869.71c.684-1.8,1.187-3.189,1.464-3.981a2.354,2.354,0,0,0-3.53-2.742c-1.614,1.092-5.306,3.248-9.1,3.184a31.944,31.944,0,0,0,6.3-5.816,26.177,26.177,0,0,1,2.131-2.246,1,1,0,0,1,1.358.051l.765.765a3.012,3.012,0,0,0,2.544.848l3.465-.5,3.89,3.889L40.18,23.548a1,1,0,0,0,1.414,1.414l7.826-7.83,1.42,1.42a4,4,0,0,1,0,5.656l-7.78,7.78A1,1,0,1,0,44.474,33.4l7.78-7.78a6,6,0,0,0,0-8.484l-1.419-1.419a2.029,2.029,0,0,0-1.914-.5l-.206-.206L34.565.876a3.08,3.08,0,0,0-4.242,0l-.9.9a3,3,0,0,0-.439,3.679A13.456,13.456,0,0,1,31.02,13a25.843,25.843,0,0,1-6.555,5.556L22.7,14.16a3,3,0,0,0-3.515-1.81l-2.282.57a2.992,2.992,0,0,0-2.261,3.156c.057.672.1,1.466.132,2.329L12.4,19a1,1,0,0,0,.242,1.97.968.968,0,0,0,.243-.03l1.92-.48q0,1.059-.029,2.189l-2.376.594a1,1,0,0,0,.242,1.97.968.968,0,0,0,.243-.03l1.791-.448q-.073,1.15-.186,2.228l-2.09.522a1,1,0,0,0,.242,1.971,1.017,1.017,0,0,0,.243-.03l1.341-.335c-.137.973-.3,1.919-.482,2.831Zm19-28.015a1.015,1.015,0,0,1,.141-1.229l.9-.9a1.029,1.029,0,0,1,1.414,0l8.486,8.485-1.981.283a1,1,0,0,1-.847-.283l-.765-.765a3,3,0,0,0-4.091-.14c-.338.3-.673.632-1.015.993A15.743,15.743,0,0,0,30.7,4.418Z"/>
        </g>
      </g>
    </g>
  </g>
</svg>
