<svg xmlns="http://www.w3.org/2000/svg" xmlns:xlink="http://www.w3.org/1999/xlink" width="108.914" height="108.914" viewBox="0 0 108.914 108.914">
  <defs>
    <filter id="Trazado_874925" x="0" y="0" width="108.914" height="108.914" filterUnits="userSpaceOnUse">
      <feOffset dy="3" input="SourceAlpha"/>
      <feGaussianBlur stdDeviation="3" result="blur"/>
      <feFlood flood-opacity="0.161"/>
      <feComposite operator="in" in2="blur"/>
      <feComposite in="SourceGraphic"/>
    </filter>
    <clipPath id="clip-path">
      <path id="path1413" d="M0-682.665H60.429v60.429H0Z" transform="translate(0 682.665)"/>
    </clipPath>
  </defs>
  <g id="Grupo_1179099" data-name="Grupo 1179099" transform="translate(-799.5 -2534.157)">
    <g id="Grupo_1111316" data-name="Grupo 1111316" transform="translate(0 587.946)">
      <g id="Grupo_1109835" data-name="Grupo 1109835">
        <g id="Grupo_1107913" data-name="Grupo 1107913" transform="translate(808.5 1952.211)">
          <g transform="matrix(1, 0, 0, 1, -9, -6)" filter="url(#Trazado_874925)">
            <g id="Trazado_874925-2" data-name="Trazado 874925" transform="translate(9 6)" fill="#d8cabd" opacity="0.859">
              <path d="M 45.45676803588867 89.41407012939453 C 39.52198028564453 89.41407012939453 33.76551818847656 88.25206756591797 28.34726715087891 85.96034240722656 C 23.11311721801758 83.74648284912109 18.41204261779785 80.57682800292969 14.37464332580566 76.5394287109375 C 10.33724308013916 72.50202941894531 7.167593002319336 67.80095672607422 4.953730583190918 62.56679534912109 C 2.662005424499512 57.14855575561523 1.500005483627319 51.39208221435547 1.500005483627319 45.45729446411133 C 1.500005483627319 39.52198028564453 2.662005424499512 33.76551818847656 4.953730583190918 28.34726905822754 C 7.167593002319336 23.11310577392578 10.33724308013916 18.41203117370605 14.37464332580566 14.37464332580566 C 18.41204261779785 10.33724403381348 23.11311721801758 7.167593955993652 28.34726715087891 4.953731060028076 C 33.76551818847656 2.662006139755249 39.52198028564453 1.500006198883057 45.45676803588867 1.500006198883057 C 51.39155578613281 1.500006198883057 57.14802932739258 2.662006139755249 62.56626892089844 4.953731060028076 C 67.80043029785156 7.167593955993652 72.50150299072266 10.33724403381348 76.53890228271484 14.37464332580566 C 80.57630920410156 18.41203117370605 83.74595642089844 23.11310577392578 85.95981597900391 28.34726905822754 C 88.25154113769531 33.76551818847656 89.41354370117188 39.52198028564453 89.41354370117188 45.45676803588867 C 89.41354370117188 51.39208221435547 88.25154113769531 57.14855575561523 85.95981597900391 62.56679534912109 C 83.74595642089844 67.80095672607422 80.57630920410156 72.50202941894531 76.53890228271484 76.5394287109375 C 72.50150299072266 80.57682800292969 67.80043029785156 83.74648284912109 62.56626892089844 85.96034240722656 C 57.14802932739258 88.25206756591797 51.39155578613281 89.41407012939453 45.45676803588867 89.41407012939453 Z" stroke="none"/>
              <path d="M 45.45676803588867 3 C 39.72381210327148 3 34.1639404296875 4.12213134765625 28.93159484863281 6.335227966308594 C 23.87622833251953 8.473472595214844 19.33542633056641 11.53517150878906 15.43529510498047 15.435302734375 C 11.53517150878906 19.33543395996094 8.473464965820312 23.87622833251953 6.335227966308594 28.93160247802734 C 4.122123718261719 34.16394424438477 3 39.72381591796875 3 45.4572868347168 C 3 51.19024658203125 4.122123718261719 56.75011825561523 6.335227966308594 61.98246002197266 C 8.473464965820312 67.03782653808594 11.53517150878906 71.57862854003906 15.43529510498047 75.478759765625 C 19.33542633056641 79.37889099121094 23.87622833251953 82.44058990478516 28.93159484863281 84.57883453369141 C 34.1639404296875 86.79193115234375 39.72381210327148 87.9140625 45.45676803588867 87.9140625 C 51.18972396850586 87.9140625 56.74959564208984 86.79193115234375 61.98194122314453 84.57883453369141 C 67.03730773925781 82.44058990478516 71.57810974121094 79.37889099121094 75.47824096679688 75.478759765625 C 79.37837219238281 71.57862854003906 82.44007110595703 67.03782653808594 84.57830810546875 61.98246002197266 C 86.79141235351562 56.75011825561523 87.91353607177734 51.19024658203125 87.91353607177734 45.4567756652832 C 87.91353607177734 39.72381591796875 86.79141235351562 34.16394424438477 84.57830810546875 28.93160247802734 C 82.44007110595703 23.87622833251953 79.37837219238281 19.33543395996094 75.47824096679688 15.435302734375 C 71.57810974121094 11.53517150878906 67.03730773925781 8.473472595214844 61.98194122314453 6.335227966308594 C 56.74959564208984 4.12213134765625 51.18972396850586 3 45.45676803588867 3 M 45.45676803588867 0 C 70.56185150146484 0 90.91353607177734 20.35169219970703 90.91353607177734 45.4567756652832 L 90.91353607177734 45.4572868347168 C 90.91353607177734 70.5623779296875 70.56185150146484 90.9140625 45.45676803588867 90.9140625 C 20.3516845703125 90.9140625 0 70.5623779296875 0 45.4572868347168 L 0 45.4567756652832 C 0 20.35169219970703 20.3516845703125 0 45.45676803588867 0 Z" stroke="none" fill="#fff"/>
            </g>
          </g>
          <g id="Trazado_874923" data-name="Trazado 874923" transform="translate(0 0)" fill="none">
            <path d="M45.457,0A45.457,45.457,0,0,1,90.914,45.457h0A45.457,45.457,0,0,1,0,45.457H0A45.457,45.457,0,0,1,45.457,0Z" stroke="none"/>
            <path d="M 45.45676803588867 3 C 39.72381210327148 3 34.1639404296875 4.12213134765625 28.93159484863281 6.335227966308594 C 23.87622833251953 8.473472595214844 19.33542633056641 11.53517150878906 15.43529510498047 15.435302734375 C 11.53517150878906 19.33543395996094 8.473464965820312 23.87622833251953 6.335227966308594 28.93160247802734 C 4.122123718261719 34.16394424438477 3 39.72381591796875 3 45.4572868347168 C 3 51.19024658203125 4.122123718261719 56.75011825561523 6.335227966308594 61.98246002197266 C 8.473464965820312 67.03782653808594 11.53517150878906 71.57862854003906 15.43529510498047 75.478759765625 C 19.33542633056641 79.37889099121094 23.87622833251953 82.44058990478516 28.93159484863281 84.57883453369141 C 34.1639404296875 86.79193115234375 39.72381210327148 87.9140625 45.45676803588867 87.9140625 C 51.18972396850586 87.9140625 56.74959564208984 86.79193115234375 61.98194122314453 84.57883453369141 C 67.03730773925781 82.44058990478516 71.57810974121094 79.37889099121094 75.47824096679688 75.478759765625 C 79.37837219238281 71.57862854003906 82.44007110595703 67.03782653808594 84.57830810546875 61.98246002197266 C 86.79141235351562 56.75011825561523 87.91353607177734 51.19024658203125 87.91353607177734 45.4567756652832 C 87.91353607177734 39.72381591796875 86.79141235351562 34.16394424438477 84.57830810546875 28.93160247802734 C 82.44007110595703 23.87622833251953 79.37837219238281 19.33543395996094 75.47824096679688 15.435302734375 C 71.57810974121094 11.53517150878906 67.03730773925781 8.473472595214844 61.98194122314453 6.335227966308594 C 56.74959564208984 4.12213134765625 51.18972396850586 3 45.45676803588867 3 M 45.45676803588867 0 C 70.56185150146484 0 90.91353607177734 20.35169219970703 90.91353607177734 45.4567756652832 L 90.91353607177734 45.4572868347168 C 90.91353607177734 70.5623779296875 70.56185150146484 90.9140625 45.45676803588867 90.9140625 C 20.3516845703125 90.9140625 0 70.5623779296875 0 45.4572868347168 L 0 45.4567756652832 C 0 20.35169219970703 20.3516845703125 0 45.45676803588867 0 Z" stroke="none" fill="#fff"/>
          </g>
        </g>
      </g>
    </g>
    <g id="g1407" transform="translate(824.5 3236.339)">
      <g id="g1409" transform="translate(0 -682.665)">
        <g id="g1411" clip-path="url(#clip-path)">
          <g id="g1417" transform="translate(3.623 17.784)">
            <path id="path1419" d="M-47.88,0l20.593,22.528A28.324,28.324,0,0,0-6.381,31.742H3.095a5.114,5.114,0,0,1-5.127,5.114l-12.224-.031a19.515,19.515,0,0,1-13.058-5.057L-50.447,10.8A6.333,6.333,0,0,1-47.88,0Z" transform="translate(52.53)" fill="#fff"/>
          </g>
          <g id="g1421" transform="translate(7.864 5.789)">
            <path id="path1423" d="M-529.106-450.358h0a9.62,9.62,0,0,0-6.777-9.19l-2.56-.792a8.559,8.559,0,0,1-5.456-5.095l-7.031-18.214a4.364,4.364,0,0,0-5.27-2.624h0a8.012,8.012,0,0,1-9.927-5.585l-.613-2.236A13.88,13.88,0,0,0-580.49-482.1h.409l20.593,22.528a28.324,28.324,0,0,0,20.906,9.214Z" transform="translate(580.49 494.095)" fill="#ff7e99"/>
          </g>
          <g id="g1425" transform="translate(28.207 13.441)">
            <path id="path1427" d="M-8.263-89.995,2.481-71.448,8.887-75a8.553,8.553,0,0,1-1.7-2.728L.153-95.941a4.364,4.364,0,0,0-5.27-2.625h0a5.938,5.938,0,0,0-3.146,8.571" transform="translate(9.066 98.735)" fill="#fff"/>
          </g>
          <g id="g1429" transform="translate(33.353 37.174)">
            <path id="path1431" d="M-169.068-127.187h9.476a9.62,9.62,0,0,0-6.777-9.19l-2.56-.792a8.555,8.555,0,0,1-3.755-2.37l0,0a52.3,52.3,0,0,1-12.8,7.1,28.324,28.324,0,0,0,16.419,5.245" transform="translate(185.488 139.538)" fill="#e0eaef"/>
          </g>
          <g id="g1433" transform="translate(7.903 9.149)">
            <path id="path1435" d="M-105.284-90.482a9.717,9.717,0,0,0-5.565-8.787,13.856,13.856,0,0,0-4.659,8.37l.244.265h.126l6.694,7.323a9.69,9.69,0,0,0,3.161-7.171" transform="translate(115.509 99.269)" fill="#e0eaef"/>
          </g>
          <g id="g1437" transform="translate(3.623 17.784)">
            <path id="path1439" d="M-247.558-218.444l1.2,1.314a28.324,28.324,0,0,0,20.906,9.214h9.476A5.114,5.114,0,0,1-221.1-202.8l-12.224-.031a19.515,19.515,0,0,1-13.058-5.057l-23.133-20.972a6.333,6.333,0,0,1,2.567-10.8h0l12.225,13.374" transform="translate(271.6 239.658)" fill="none" stroke="#000" stroke-linecap="round" stroke-linejoin="round" stroke-miterlimit="10" stroke-width="2"/>
          </g>
          <g id="g1441" transform="translate(7.864 5.789)">
            <path id="path1443" d="M0-123.507A13.88,13.88,0,0,1,13.75-135.5l.613,2.236a8.012,8.012,0,0,0,9.928,5.585h0a4.364,4.364,0,0,1,5.27,2.624l7.031,18.214a8.56,8.56,0,0,0,5.456,5.1l2.56.792a9.62,9.62,0,0,1,6.777,9.19" transform="translate(0 135.501)" fill="none" stroke="#000" stroke-linecap="round" stroke-linejoin="round" stroke-miterlimit="10" stroke-width="2"/>
          </g>
          <g id="g1445" transform="translate(12.562 9.149)">
            <path id="path1447" d="M-24.765-164.325A9.69,9.69,0,0,0-21.6-171.5a9.717,9.717,0,0,0-5.566-8.787" transform="translate(27.171 180.284)" fill="none" stroke="#000" stroke-linecap="round" stroke-linejoin="round" stroke-miterlimit="10" stroke-width="2"/>
          </g>
          <g id="g1449" transform="translate(35.897 19.08)">
            <path id="path1451" d="M-27.045,0l-2.627,1.193" transform="translate(29.672)" fill="none" stroke="#000" stroke-linecap="round" stroke-linejoin="round" stroke-miterlimit="10" stroke-width="2"/>
          </g>
          <g id="g1453" transform="translate(38.054 25.006)">
            <path id="path1455" d="M-27.141,0l-2.636,1.2" transform="translate(29.777)" fill="none" stroke="#000" stroke-linecap="round" stroke-linejoin="round" stroke-miterlimit="10" stroke-width="2"/>
          </g>
          <g id="g1457" transform="translate(40.961 31.091)">
            <path id="path1459" d="M-19.107,0l-1.856.843" transform="translate(20.963)" fill="none" stroke="#000" stroke-linecap="round" stroke-linejoin="round" stroke-miterlimit="10" stroke-width="2"/>
          </g>
          <g id="g1461" transform="translate(33.352 37.176)">
            <path id="path1463" d="M-131.842,0a52.3,52.3,0,0,1-12.8,7.1" transform="translate(144.646)" fill="none" stroke="#000" stroke-linecap="round" stroke-linejoin="round" stroke-miterlimit="10" stroke-width="2"/>
          </g>
          <g id="g1465" transform="translate(28.207 13.61)">
            <path id="path1467" d="M-118.9-279.236l-10.745-18.547a5.938,5.938,0,0,1,3.146-8.571" transform="translate(130.448 306.354)" fill="none" stroke="#000" stroke-linecap="round" stroke-linejoin="round" stroke-miterlimit="10" stroke-width="2"/>
          </g>
          <g id="g1469" transform="translate(17.901 54.609)">
            <path id="path1471" d="M-247.1,0h-24" transform="translate(271.095 0)" fill="none" stroke="#000" stroke-linecap="round" stroke-linejoin="round" stroke-miterlimit="10" stroke-width="2"/>
          </g>
          <g id="g1473" transform="translate(3.611 54.609)">
            <path id="path1475" d="M-85.139,0h-8.268" transform="translate(93.408 0)" fill="none" stroke="#000" stroke-linecap="round" stroke-linejoin="round" stroke-miterlimit="10" stroke-width="2"/>
          </g>
          <g id="g1477" transform="translate(1.18 47.687)">
            <path id="path1479" d="M-33.353,0h-3.239" transform="translate(36.592 0)" fill="none" stroke="#000" stroke-linecap="round" stroke-linejoin="round" stroke-miterlimit="10" stroke-width="2"/>
          </g>
          <g id="g1481" transform="translate(10.005 47.687)">
            <path id="path1483" d="M-77.637,0h-7.54" transform="translate(85.177 0)" fill="none" stroke="#000" stroke-linecap="round" stroke-linejoin="round" stroke-miterlimit="10" stroke-width="2"/>
          </g>
          <g id="g1485" transform="translate(4.419 40.766)">
            <path id="path1487" d="M-148.192,0h-14.392" transform="translate(162.584)" fill="none" stroke="#000" stroke-linecap="round" stroke-linejoin="round" stroke-miterlimit="10" stroke-width="2"/>
          </g>
          <g id="g1489" transform="translate(24.083 35.077)">
            <path id="path1491" d="M0,0H0" transform="translate(0)" fill="none" stroke="#000" stroke-linecap="round" stroke-linejoin="round" stroke-miterlimit="10" stroke-width="2"/>
          </g>
        </g>
      </g>
    </g>
  </g>
</svg>
