<svg xmlns="http://www.w3.org/2000/svg" xmlns:xlink="http://www.w3.org/1999/xlink" width="95.377" height="95.377" viewBox="0 0 95.377 95.377">
  <defs>
    <filter id="Trazado_896985" x="0" y="0" width="95.377" height="95.377" filterUnits="userSpaceOnUse">
      <feOffset dy="3" input="SourceAlpha"/>
      <feGaussianBlur stdDeviation="3" result="blur"/>
      <feFlood flood-opacity="0.161"/>
      <feComposite operator="in" in2="blur"/>
      <feComposite in="SourceGraphic"/>
    </filter>
  </defs>
  <g id="Grupo_1177340" data-name="Grupo 1177340" transform="translate(-1158.609 -3843)">
    <g id="Grupo_1111320" data-name="Grupo 1111320" transform="translate(1167.609 3849)">
      <g id="Grupo_1109828" data-name="Grupo 1109828" transform="translate(0 0)">
        <g id="Grupo_1098742" data-name="Grupo 1098742">
          <g transform="matrix(1, 0, 0, 1, -9, -6)" filter="url(#Trazado_896985)">
            <g id="Trazado_896985-2" data-name="Trazado 896985" transform="translate(9 6)" fill="#d8cabd" opacity="0.859">
              <path d="M 38.68837738037109 75.87686157226562 C 33.66732025146484 75.87686157226562 28.79724311828613 74.89381408691406 24.21344375610352 72.95502471923828 C 19.78525543212891 71.08206176757812 15.80802154541016 68.40043640136719 12.39222145080566 64.98463439941406 C 8.976421356201172 61.5688362121582 6.2947998046875 57.59160614013672 4.421833038330078 53.16341400146484 C 2.483044147491455 48.57960510253906 1.499999642372131 43.70953750610352 1.499999642372131 38.68847274780273 C 1.499999642372131 33.66738128662109 2.483044147491455 28.79729270935059 4.421833038330078 24.21348190307617 C 6.2947998046875 19.78528213500977 8.976421356201172 15.80803775787354 12.39222145080566 12.39223766326904 C 15.80802154541016 8.97642707824707 19.78525543212891 6.294804573059082 24.21344375610352 4.421838283538818 C 28.79724311828613 2.483049154281616 33.66730880737305 1.500004768371582 38.68837738037109 1.500004768371582 C 43.70944595336914 1.500004768371582 48.57950973510742 2.483049154281616 53.16332244873047 4.421838283538818 C 57.59149932861328 6.294793605804443 61.56873321533203 8.97642707824707 64.98453521728516 12.39222717285156 C 68.40032958984375 15.80802726745605 71.08196258544922 19.78524971008301 72.95492553710938 24.21343803405762 C 74.89370727539062 28.79723739624023 75.87675476074219 33.66731643676758 75.87675476074219 38.68836975097656 C 75.87675476074219 43.7094612121582 74.89370727539062 48.57954788208008 72.95492553710938 53.16337203979492 C 71.08195495605469 57.59157180786133 68.40032958984375 61.56881713867188 64.98453521728516 64.98462677001953 C 61.56873321533203 68.40042877197266 57.59149932861328 71.08206176757812 53.16331100463867 72.95502471923828 C 48.57950973510742 74.89381408691406 43.70944595336914 75.87686157226562 38.68837738037109 75.87686157226562 Z" stroke="none"/>
              <path d="M 38.68837738037109 3 C 33.8691520690918 3 29.1956787109375 3.94317626953125 24.79777908325195 5.803337097167969 C 20.54837799072266 7.600677490234375 16.73141479492188 10.17436218261719 13.45288848876953 13.45288848876953 C 10.17436218261719 16.73142623901367 7.600677490234375 20.54841613769531 5.803337097167969 24.79781341552734 C 3.94317626953125 29.19573974609375 3 33.86922836303711 3 38.6884765625 C 3 43.5077018737793 3.94317626953125 48.18117523193359 5.803337097167969 52.57907867431641 C 7.600677490234375 56.82847595214844 10.17435455322266 60.64543914794922 13.45288848876953 63.92396545410156 C 16.73141479492188 67.20249938964844 20.54837799072266 69.77617645263672 24.79777908325195 71.57351684570312 C 29.1956787109375 73.43367767333984 33.8691520690918 74.37685394287109 38.68837738037109 74.37685394287109 C 43.50760269165039 74.37685394287109 48.18107604980469 73.43367767333984 52.57898712158203 71.57351684570312 C 56.82837677001953 69.77617645263672 60.64535522460938 67.20249176025391 63.92387771606445 63.92396545410156 C 67.20240020751953 60.64542770385742 69.77607727050781 56.82843780517578 71.57341766357422 52.57904052734375 C 73.43357849121094 48.18111419677734 74.37675476074219 43.50762557983398 74.37675476074219 38.68837738037109 C 74.37675476074219 33.8691520690918 73.43357849121094 29.1956787109375 71.57341766357422 24.79777526855469 C 69.77607727050781 20.54837799072266 67.20240020751953 16.73141479492188 63.92387771606445 13.45288848876953 C 60.64535522460938 10.17435455322266 56.82837677001953 7.600677490234375 52.57898712158203 5.803337097167969 C 48.18107604980469 3.94317626953125 43.50760269165039 3 38.68837738037109 3 M 38.68837738037109 0 C 60.05538940429688 0 77.37675476074219 17.32137680053711 77.37675476074219 38.68837738037109 L 77.37675476074219 38.6884765625 C 77.37675476074219 60.05547714233398 60.05538940429688 77.37685394287109 38.68837738037109 77.37685394287109 C 17.32137680053711 77.37685394287109 0 60.05547714233398 0 38.6884765625 L 0 38.68837738037109 C 0 17.32137680053711 17.32137680053711 0 38.68837738037109 0 Z" stroke="none" fill="#fff"/>
            </g>
          </g>
          <g id="Rectángulo_400907" data-name="Rectángulo 400907" transform="translate(0)" fill="none" stroke="#fff" stroke-width="3">
            <rect width="77.377" height="77.377" rx="38.688" stroke="none"/>
            <rect x="1.5" y="1.5" width="74.377" height="74.377" rx="37.188" fill="none"/>
          </g>
        </g>
      </g>
    </g>
    <g id="_03-shoes" data-name="03-shoes" transform="translate(1180.763 3869.117)">
      <path id="Trazado_1033519" data-name="Trazado 1033519" d="M39.19,12.1s7.382-.619,8.983.9c-.085.023-.178.046-.263.077a20.253,20.253,0,0,1-7.173,1.346c-5.416,0-3.869-2.321-7.738-2.321L36.1,9A3.031,3.031,0,0,1,39.19,12.1Z" transform="translate(-7.466 -8.224)" fill="#edd7c0"/>
      <path id="Trazado_1033520" data-name="Trazado 1033520" d="M53.416,28v3.869H48S48,28,53.416,28Z" transform="translate(-10.859 -12.523)" fill="#ded8ca"/>
      <path id="Trazado_1033521" data-name="Trazado 1033521" d="M11.833,23.76v1.733a2.828,2.828,0,0,1-.1.766,2.35,2.35,0,0,1-2.221,1.555H1c0-1.548,3.869-3.869,8.511-3.869a14.891,14.891,0,0,0,2.321-.186Z" transform="translate(-0.226 -11.563)" fill="#c6c2b6"/>
      <path id="Trazado_1033522" data-name="Trazado 1033522" d="M24.681,17.55l1.9,1.9c0,3.1-9.285,5.416-11.607,5.416l-.1-.008a2.828,2.828,0,0,0,.1-.766V22.355C18.754,21.8,22.631,19.941,24.681,17.55Z" transform="translate(-3.364 -10.159)" fill="#ded8ca"/>
      <path id="Trazado_1033523" data-name="Trazado 1033523" d="M42.783,33v3.1H32.725a2.2,2.2,0,0,0-3.1,0H1V33Z" transform="translate(-0.226 -13.654)" fill="#e3cdb6"/>
      <path id="Trazado_1033524" data-name="Trazado 1033524" d="M40.934,13.9a1.548,1.548,0,0,1,1.849,1.517v9.192c-5.416,0-5.416,3.869-5.416,3.869H1v-3.1H9.511a2.35,2.35,0,0,0,2.221-1.555l.1.008c2.321,0,11.607-2.321,11.607-5.416l-1.9-1.9c.124-.139.24-.279.348-.426C24.213,13,25.761,13,25.761,13c3.869,0,2.321,2.321,7.738,2.321a20.253,20.253,0,0,0,7.173-1.346C40.756,13.944,40.849,13.921,40.934,13.9Z" transform="translate(-0.226 -9.129)" fill="#e2ac62"/>
      <path id="Trazado_1033525" data-name="Trazado 1033525" d="M47.487,13.9c-.085.023-.178.046-.263.077a20.253,20.253,0,0,1-7.173,1.346c-5.416,0-3.869-2.321-7.738-2.321,0,0-.9,0-2.348,1.367a6.211,6.211,0,0,1,3.122.954c2.321,1.548,11.607,3.1,16.249.774v-.681A1.548,1.548,0,0,0,47.487,13.9Z" transform="translate(-6.779 -9.129)" fill="#967d66"/>
      <path id="Trazado_1033526" data-name="Trazado 1033526" d="M51,33v3.1h3.1V33Z" transform="translate(-11.538 -13.654)" fill="#e3cdb6"/>
      <path id="Trazado_1033527" data-name="Trazado 1033527" d="M51,17.929V26.1a7.241,7.241,0,0,1,3.1-.59V17A10.921,10.921,0,0,1,51,17.929Z" transform="translate(-11.538 -10.034)" fill="#ffc26f"/>
      <path id="Trazado_1033528" data-name="Trazado 1033528" d="M52.142,14.151c-.085.023-.178.046-.263.077-.4.155-.846.31-1.336.458a1.516,1.516,0,0,1,.354.981v1.609a10.921,10.921,0,0,0,3.1-.929v-.681a1.548,1.548,0,0,0-1.849-1.517Z" transform="translate(-11.434 -9.383)" fill="#ab8e74"/>
      <path id="Trazado_1033529" data-name="Trazado 1033529" d="M11.833,24.719V23.76a14.892,14.892,0,0,1-2.321.186C4.869,23.946,1,26.267,1,27.815H2.083A16.21,16.21,0,0,1,11.833,24.719Z" transform="translate(-0.226 -11.563)" fill="#e3ded1"/>
      <path id="Trazado_1033530" data-name="Trazado 1033530" d="M17.321,23.129a17.479,17.479,0,0,0,8.946-4.024L24.711,17.55C22.66,19.941,18.784,21.8,15,22.355v.959a14.892,14.892,0,0,0,2.321-.186Z" transform="translate(-3.393 -10.159)" fill="#fff8e8"/>
      <path id="Trazado_1033531" data-name="Trazado 1033531" d="M29.871,17.291c.124-.139.24-.279.348-.426,2.321-3.1,3.869-3.1,3.869-3.1.173,0,.325.01.477.019a4.191,4.191,0,0,0-2.8-.792s-1.548,0-3.869,3.1c-.108.147-.224.286-.348.426l1.556,1.556A9.683,9.683,0,0,0,29.871,17.291Z" transform="translate(-6.233 -9.125)" fill="#968364"/>
      <path id="Trazado_1033532" data-name="Trazado 1033532" d="M39.688,25.833c-2.744.665-5.457,1.736-8.193,2.462a54.789,54.789,0,0,1-9.151,1.449c-4.231.381-8.477.573-12.721.764A81.972,81.972,0,0,1,1,30.445v.934H37.367A3.843,3.843,0,0,1,39.688,28.1Z" transform="translate(-0.226 -12.032)" fill="#d69656"/>
      <path id="Trazado_1033533" data-name="Trazado 1033533" d="M39.981,13.739c.457,1.371,6.084-.087,7.928-.605a33.35,33.35,0,0,0-7.154-.169l-.838.628C39.937,13.644,39.964,13.688,39.981,13.739Z" transform="translate(-9.03 -9.095)" fill="#c9b6a2"/>
      <path id="Trazado_1033534" data-name="Trazado 1033534" d="M47.519,13.218c-1.844.518-7.471,1.976-7.928.605-.017-.052-.044-.1-.064-.145l-1.336,1.006a7.606,7.606,0,0,0,3.721.687,20.253,20.253,0,0,0,7.173-1.346c.085-.031.178-.054.263-.077A3.852,3.852,0,0,0,47.519,13.218Z" transform="translate(-8.64 -9.179)" fill="#b09f8d"/>
      <path id="Trazado_1033535" data-name="Trazado 1033535" d="M34.5,11.063l-1.5,1.5c2.471,0,2.738.946,4.017,1.63l1.336-1c-.641-1.565-2.731-2.006-3.853-2.127Z" transform="translate(-7.466 -8.691)" fill="#b09f8d"/>
      <path id="Trazado_1033536" data-name="Trazado 1033536" d="M47.19,30.1s7.382-.619,8.983.9c-.085.023-.178.046-.263.077a20.253,20.253,0,0,1-7.173,1.346c-5.416,0-3.869-2.321-7.738-2.321L44.1,27A3.031,3.031,0,0,1,47.19,30.1Z" transform="translate(-9.275 -12.296)" fill="#c9b6a2"/>
      <path id="Trazado_1033537" data-name="Trazado 1033537" d="M61.416,46v3.869H56S56,46,61.416,46Z" transform="translate(-12.669 -16.595)" fill="#c6c2b6"/>
      <path id="Trazado_1033538" data-name="Trazado 1033538" d="M19.833,41.76v1.733a2.828,2.828,0,0,1-.1.766,2.35,2.35,0,0,1-2.221,1.555H9c0-1.548,3.869-3.869,8.511-3.869a14.892,14.892,0,0,0,2.321-.186Z" transform="translate(-2.036 -15.636)" fill="#a6a395"/>
      <path id="Trazado_1033539" data-name="Trazado 1033539" d="M32.681,35.55l1.9,1.9c0,3.1-9.285,5.416-11.607,5.416l-.1-.008a2.828,2.828,0,0,0,.1-.766V40.355C26.754,39.8,30.631,37.941,32.681,35.55Z" transform="translate(-5.174 -14.231)" fill="#c6c2b6"/>
      <path id="Trazado_1033540" data-name="Trazado 1033540" d="M50.783,51v3.1H40.725a2.2,2.2,0,0,0-3.1,0H9V51Z" transform="translate(-2.036 -17.726)" fill="#c9b6a2"/>
      <path id="Trazado_1033541" data-name="Trazado 1033541" d="M48.934,31.9a1.548,1.548,0,0,1,1.849,1.517v9.192c-5.416,0-5.416,3.869-5.416,3.869H9v-3.1h8.511a2.35,2.35,0,0,0,2.221-1.555l.1.008c2.321,0,11.607-2.321,11.607-5.416l-1.9-1.9c.124-.139.24-.279.348-.426C32.213,31,33.761,31,33.761,31c3.869,0,2.321,2.321,7.738,2.321a20.252,20.252,0,0,0,7.173-1.346C48.756,31.944,48.849,31.921,48.934,31.9Z" transform="translate(-2.036 -13.201)" fill="#cf8a46"/>
      <path id="Trazado_1033542" data-name="Trazado 1033542" d="M55.487,31.9c-.085.023-.178.046-.263.077a20.253,20.253,0,0,1-7.173,1.346c-5.416,0-3.869-2.321-7.738-2.321,0,0-.9,0-2.348,1.367a6.211,6.211,0,0,1,3.122.954c2.321,1.548,11.607,3.1,16.249.774v-.681A1.548,1.548,0,0,0,55.487,31.9Z" transform="translate(-8.589 -13.201)" fill="#605041"/>
      <path id="Trazado_1033543" data-name="Trazado 1033543" d="M59,49.868h3.1V46a7.241,7.241,0,0,0-3.1.59Z" transform="translate(-13.348 -16.594)" fill="#ded8ca"/>
      <path id="Trazado_1033544" data-name="Trazado 1033544" d="M59,51v3.1h3.1V51Z" transform="translate(-13.348 -17.726)" fill="#e3cdb6"/>
      <path id="Trazado_1033545" data-name="Trazado 1033545" d="M59,35.932V44.1a7.241,7.241,0,0,1,3.1-.59V35a10.921,10.921,0,0,1-3.1.932Z" transform="translate(-13.348 -14.106)" fill="#d69656"/>
      <path id="Trazado_1033546" data-name="Trazado 1033546" d="M60.142,32.151c-.085.023-.178.046-.263.077-.4.155-.846.31-1.336.458a1.516,1.516,0,0,1,.354.981v1.613a10.921,10.921,0,0,0,3.1-.932v-.681a1.548,1.548,0,0,0-1.849-1.517Z" transform="translate(-13.244 -13.455)" fill="#967d66"/>
      <path id="Trazado_1033547" data-name="Trazado 1033547" d="M19.833,42.719V41.76a14.892,14.892,0,0,1-2.321.186C12.869,41.946,9,44.267,9,45.815h1.083A16.21,16.21,0,0,1,19.833,42.719Z" transform="translate(-2.036 -15.636)" fill="#c6c2b6"/>
      <path id="Trazado_1033548" data-name="Trazado 1033548" d="M25.321,41.129a17.479,17.479,0,0,0,8.946-4.024L32.711,35.55C30.66,37.941,26.784,39.8,23,40.355v.959A14.892,14.892,0,0,0,25.321,41.129Z" transform="translate(-5.203 -14.231)" fill="#ded8ca"/>
      <path id="Trazado_1033549" data-name="Trazado 1033549" d="M37.871,35.291c.124-.139.24-.279.348-.426,2.321-3.1,3.869-3.1,3.869-3.1.173,0,.325.01.477.019a4.192,4.192,0,0,0-2.8-.792s-1.548,0-3.869,3.1c-.108.147-.224.286-.348.426l1.556,1.556a9.682,9.682,0,0,0,.765-.782Z" transform="translate(-8.043 -13.198)" fill="#7b6b52"/>
      <path id="Trazado_1033550" data-name="Trazado 1033550" d="M47.688,43.833c-2.744.665-5.457,1.736-8.193,2.462a54.789,54.789,0,0,1-9.151,1.449c-4.231.381-8.477.573-12.721.764A81.974,81.974,0,0,1,9,48.445v.934H45.367A3.843,3.843,0,0,1,47.688,46.1Z" transform="translate(-2.036 -16.105)" fill="#ac6e47"/>
      <path id="Trazado_1033551" data-name="Trazado 1033551" d="M47.981,31.739c.457,1.371,6.084-.087,7.928-.605a33.349,33.349,0,0,0-7.154-.169l-.838.628C47.937,31.644,47.964,31.688,47.981,31.739Z" transform="translate(-10.84 -13.167)" fill="#ad9d8b"/>
      <path id="Trazado_1033552" data-name="Trazado 1033552" d="M55.519,31.218c-1.844.518-7.471,1.976-7.928.605-.017-.052-.044-.1-.064-.145l-1.336,1a7.606,7.606,0,0,0,3.721.691,20.253,20.253,0,0,0,7.173-1.346c.085-.031.178-.054.263-.077A3.852,3.852,0,0,0,55.519,31.218Z" transform="translate(-10.45 -13.251)" fill="#948677"/>
      <path id="Trazado_1033553" data-name="Trazado 1033553" d="M42.5,29.063l-1.5,1.5c2.471,0,2.738.946,4.017,1.63l1.336-1c-.641-1.565-2.731-2.006-3.853-2.127Z" transform="translate(-9.275 -12.763)" fill="#948677"/>
      <path id="Trazado_1033554" data-name="Trazado 1033554" d="M50.329,30.378a2.321,2.321,0,0,0-1.375-.393c-1.789-1.208-6.467-1.071-8.523-.943A3.748,3.748,0,0,0,36.629,26a.774.774,0,0,0-.547.227L33.168,29.14c-.689.149-2.183.774-4.121,3.359-2.148,2.863-7.314,5.107-11.761,5.107-4.6,0-9.285,2.343-9.285,4.643v6.19a.774.774,0,0,0,.774.774H11.1V47.665H9.548V46.117H49.783v1.548H40.792a2.967,2.967,0,0,0-3.682,0H15.738v1.548H37.4a.774.774,0,0,0,.547-.227,1.45,1.45,0,0,1,2,0,.774.774,0,0,0,.547.227H50.557a.774.774,0,0,0,.774-.774V32.286a2.315,2.315,0,0,0-1-1.908Zm-13.4-2.81a2.142,2.142,0,0,1,2.022,2.3.774.774,0,0,0,.25.57.761.761,0,0,0,.588.2,32.507,32.507,0,0,1,6.54.077,19.181,19.181,0,0,1-5.057.7c-2.673,0-3.434-.583-4.171-1.147a4.829,4.829,0,0,0-1.89-.984ZM29.334,34.5,30.4,35.562c-.585,1.92-6.985,3.969-10.016,4.31V38.853A17.862,17.862,0,0,0,29.334,34.5Zm-10.5,4.571v.857a1.456,1.456,0,0,1-1.548,1.548H10.072a11.275,11.275,0,0,1,7.213-2.321C17.8,39.153,18.314,39.121,18.833,39.071ZM9.548,43.022h7.738a3.136,3.136,0,0,0,2.732-1.568c2.721-.224,11.969-2.356,11.969-6.169a.774.774,0,0,0-.227-.547l-1.4-1.4c1.939-2.547,3.2-2.693,3.177-2.693a3.482,3.482,0,0,1,2.626.851c.856.658,1.914,1.47,5.112,1.47a21.1,21.1,0,0,0,7.448-1.393.786.786,0,0,1,.733.084.757.757,0,0,1,.331.633v8.45c-3.912.272-5,2.594-5.3,3.832H9.548Zm40.236-.742v2.29H46.069C46.363,43.732,47.23,42.49,49.784,42.28Z" transform="translate(-1.81 -12.07)"/>
      <path id="Trazado_1033555" data-name="Trazado 1033555" d="M14,54h1.548v1.548H14Z" transform="translate(-3.167 -18.405)"/>
      <path id="Trazado_1033556" data-name="Trazado 1033556" d="M30,32h1.548v1.548H30Z" transform="translate(-6.787 -13.428)"/>
      <path id="Trazado_1033557" data-name="Trazado 1033557" d="M21.666,29.665H1.548V28.117H21.666V26.57H1.548V25.022H9.285a3.136,3.136,0,0,0,2.732-1.568c2.721-.224,11.969-2.356,11.969-6.169a.774.774,0,0,0-.227-.547l-1.4-1.4c1.939-2.547,3.2-2.693,3.177-2.693a3.482,3.482,0,0,1,2.626.855c.856.654,1.914,1.466,5.112,1.466a21.1,21.1,0,0,0,7.448-1.393.786.786,0,0,1,.733.084.757.757,0,0,1,.331.633v9.187h1.548V14.286a2.286,2.286,0,0,0-2.378-2.3c-1.789-1.207-6.466-1.07-8.522-.943A3.748,3.748,0,0,0,28.629,8a.774.774,0,0,0-.547.227L25.168,11.14c-.689.149-2.183.774-4.121,3.359-2.148,2.863-7.314,5.107-11.761,5.107C4.686,19.606,0,21.949,0,24.249v6.19a.774.774,0,0,0,.774.774H21.666Zm7.263-20.1a2.142,2.142,0,0,1,2.022,2.3.774.774,0,0,0,.838.774,32.508,32.508,0,0,1,6.54.077,19.176,19.176,0,0,1-5.057.7c-2.673,0-3.434-.583-4.171-1.147a4.829,4.829,0,0,0-1.89-.984ZM21.334,16.5,22.4,17.562c-.585,1.92-6.985,3.969-10.016,4.31V20.853A17.862,17.862,0,0,0,21.334,16.5Zm-10.5,4.571v.857a1.456,1.456,0,0,1-1.548,1.548H2.072a11.275,11.275,0,0,1,7.213-2.321C9.8,21.153,10.314,21.121,10.833,21.071Z" transform="translate(0 -7.997)"/>
    </g>
  </g>
</svg>
