<svg xmlns="http://www.w3.org/2000/svg" width="295" height="105.491" viewBox="0 0 295 105.491">
  <g id="Grupo_1178904" data-name="Grupo 1178904" transform="translate(-1125 -4437.51)">
    <g id="Grupo_1178760" data-name="Grupo 1178760" transform="translate(1125 4449.946)">
      <rect id="Rect치ngulo_405094" data-name="Rect치ngulo 405094" width="295" height="66.054" rx="2" transform="translate(0 10)" fill="#2f5235"/>
      <rect id="Rect치ngulo_405095" data-name="Rect치ngulo 405095" width="233" height="86.054" rx="2" transform="translate(31)" fill="#abb9ae"/>
    </g>
    <g id="shoemaker_7242154_1_" data-name="shoemaker_7242154 (1)" transform="translate(1229.774 4437.509)">
      <g id="Grupo_1178902" data-name="Grupo 1178902" transform="translate(1.701 1.701)">
        <g id="Grupo_1178887" data-name="Grupo 1178887" transform="translate(23.82 54.447)">
          <path id="Trazado_1034746" data-name="Trazado 1034746" d="M147.223,265.7v11.91H120V265.7l6.806-1.7a6.806,6.806,0,1,0,13.612,0Z" transform="translate(-120 -264)" fill="#5cd6b3"/>
        </g>
        <g id="Grupo_1178888" data-name="Grupo 1178888" transform="translate(10.209 56.148)">
          <path id="Trazado_1034747" data-name="Trazado 1034747" d="M105.342,300.925a8.508,8.508,0,0,0-8.507,8.507v5.1H60.813a5.069,5.069,0,0,0,.291-1.7v-5.1a5.1,5.1,0,0,0,0-10.209v-6.806H56V277.021a17.859,17.859,0,0,1,6.727-3.3L69.612,272v11.91H96.835V272l6.885,1.721a17.941,17.941,0,0,1,4.515,1.81,5.1,5.1,0,0,0,2.212,8.088v17.306Z" transform="translate(-56 -272)" fill="#fcd770"/>
        </g>
        <g id="Grupo_1178889" data-name="Grupo 1178889" transform="translate(5.104 88.476)">
          <path id="Trazado_1034748" data-name="Trazado 1034748" d="M42.209,427.4v5.1a5.1,5.1,0,0,1-10.209,0v-1.7h1.7a3.4,3.4,0,0,0,3.4-3.4V424a3.4,3.4,0,0,0,3.4,3.4Z" transform="translate(-32 -424)" fill="#969faa"/>
        </g>
        <g id="Grupo_1178890" data-name="Grupo 1178890" transform="translate(5.104 74.864)">
          <path id="Trazado_1034749" data-name="Trazado 1034749" d="M42.209,360v6.806h-1.7a3.4,3.4,0,0,0-3.4,3.4,3.4,3.4,0,0,0-3.4-3.4H32V360H42.209Z" transform="translate(-32 -360)" fill="#969faa"/>
        </g>
        <g id="Grupo_1178891" data-name="Grupo 1178891" transform="translate(23.82 74.864)">
          <path id="Trazado_1034750" data-name="Trazado 1034750" d="M120,360h27.223v17.015H120Z" transform="translate(-120 -360)" fill="#ffeaa7"/>
        </g>
        <g id="Grupo_1178892" data-name="Grupo 1178892" transform="translate(61.253 57.85)">
          <path id="Trazado_1034751" data-name="Trazado 1034751" d="M314.716,280a5.1,5.1,0,1,1-3.4,8.907,5.1,5.1,0,0,1-6.806,0,5.1,5.1,0,1,1,0-7.606,5.1,5.1,0,0,1,6.806,0A5.077,5.077,0,0,1,314.716,280Z" transform="translate(-296 -280)" fill="#d3a06c"/>
        </g>
        <g id="Grupo_1178893" data-name="Grupo 1178893" transform="translate(51.044 95.282)">
          <path id="Trazado_1034752" data-name="Trazado 1034752" d="M278.626,456v3.4a3.4,3.4,0,0,1-3.4,3.4h-3.4l-1.7-1.7-3.4,1.7H251.4a3.4,3.4,0,0,1-3.4-3.4V456Z" transform="translate(-248 -456)" fill="#ecc19c"/>
        </g>
        <g id="Grupo_1178894" data-name="Grupo 1178894" transform="translate(51.044 66.757)">
          <path id="Trazado_1034753" data-name="Trazado 1034753" d="M278.626,343.6v6.806H248v-1.7a8.508,8.508,0,0,1,8.507-8.507h5.1V322.89a5.1,5.1,0,0,0,5.1-1.01,5.1,5.1,0,0,0,6.806,0,5.1,5.1,0,0,0,5.1,1.01v7.1a3.4,3.4,0,0,0-3.4,3.4V340.2A3.4,3.4,0,0,0,278.626,343.6Z" transform="translate(-248 -321.88)" fill="#cf9e76"/>
        </g>
        <g id="Grupo_1178895" data-name="Grupo 1178895" transform="translate(78.267 74.864)">
          <path id="Trazado_1034754" data-name="Trazado 1034754" d="M386.209,365.1v3.4a5.106,5.106,0,0,1-5.1,5.1h-1.7a3.4,3.4,0,0,1-3.4-3.4V363.4a3.4,3.4,0,0,1,3.4-3.4h1.7A5.106,5.106,0,0,1,386.209,365.1Z" transform="translate(-376 -360)" fill="#f0d0b4"/>
        </g>
        <g id="Grupo_1178896" data-name="Grupo 1178896" transform="translate(0 81.67)">
          <path id="Trazado_1034755" data-name="Trazado 1034755" d="M18.209,398.806v3.4a3.4,3.4,0,0,1-3.4,3.4H13.1a5.106,5.106,0,0,1-5.1-5.1v-3.4a5.106,5.106,0,0,1,5.1-5.1h1.7a3.4,3.4,0,0,1,3.4,3.4Z" transform="translate(-8 -392)" fill="#f0d0b4"/>
        </g>
        <g id="Grupo_1178897" data-name="Grupo 1178897" transform="translate(10.209 81.67)">
          <path id="Trazado_1034756" data-name="Trazado 1034756" d="M61.1,392a5.1,5.1,0,0,1,0,10.209H59.4a3.4,3.4,0,0,1-3.4-3.4v-3.4a3.4,3.4,0,0,1,3.4-3.4Z" transform="translate(-56 -392)" fill="#f0d0b4"/>
        </g>
        <g id="Grupo_1178898" data-name="Grupo 1178898" transform="translate(22.119 22.119)">
          <path id="Trazado_1034757" data-name="Trazado 1034757" d="M142.626,122.209v4.2a13.613,13.613,0,0,1-6.608,11.672l-1.074.644a1.7,1.7,0,0,0-.825,1.459v4.141a6.806,6.806,0,1,1-13.612,0v-4.141a1.7,1.7,0,0,0-.825-1.459l-1.074-.644A13.613,13.613,0,0,1,112,126.411V112h30.626Z" transform="translate(-112 -112)" fill="#f0d0b4"/>
        </g>
        <g id="Grupo_1178899" data-name="Grupo 1178899" transform="translate(52.745 22.119)">
          <path id="Trazado_1034758" data-name="Trazado 1034758" d="M262.5,115.36a5.106,5.106,0,0,1-4.8,6.848H256V112h1.7A5.106,5.106,0,0,1,262.5,115.36Z" transform="translate(-256 -112)" fill="#f0d0b4"/>
        </g>
        <g id="Grupo_1178900" data-name="Grupo 1178900" transform="translate(15.313 22.119)">
          <path id="Trazado_1034759" data-name="Trazado 1034759" d="M86.806,112v10.209H85.1a5.106,5.106,0,0,1-5.1-5.1,4.947,4.947,0,0,1,.138-1.17A5.1,5.1,0,0,1,85.1,112Z" transform="translate(-80 -112)" fill="#f0d0b4"/>
        </g>
        <g id="Grupo_1178901" data-name="Grupo 1178901" transform="translate(11.91)">
          <path id="Trazado_1034760" data-name="Trazado 1034760" d="M110.32,11.784,108.238,9.7l-4.875,1.219a16.14,16.14,0,0,1-3.922.483,16.174,16.174,0,0,1-6-1.157L89.871,8.819A11.494,11.494,0,0,0,85.613,8H82.044a11.464,11.464,0,0,0-9.537,5.1A10.581,10.581,0,0,0,64,23.481v2.676a10.58,10.58,0,0,0,3.537,7.9h0a5.1,5.1,0,0,1,4.966-3.935h34.029a5.106,5.106,0,0,1,4.8,3.36,16.13,16.13,0,0,0-1.014-21.7Z" transform="translate(-64 -8)" fill="#b27946"/>
        </g>
      </g>
      <g id="Grupo_1178903" data-name="Grupo 1178903" transform="translate(0 0)">
        <path id="Trazado_1034761" data-name="Trazado 1034761" d="M85.073,74.864V70.546a6.8,6.8,0,0,0-6.806-11.784,6.806,6.806,0,0,0-6.806,0,6.793,6.793,0,0,0-7.6.546,19.6,19.6,0,0,0-3.814-1.387l-12.4-3.1V52.007l1.073-.644a15.39,15.39,0,0,0,7.435-13.131v-2.5a6.809,6.809,0,0,0,6.667-8.179A17.826,17.826,0,0,0,61.134,4.282L58.372,1.519,52.562,2.971a14.486,14.486,0,0,1-3.509.432A14.408,14.408,0,0,1,43.68,2.368L40.114.942A13.107,13.107,0,0,0,35.225,0H31.657A13.136,13.136,0,0,0,21.1,5.294,12.321,12.321,0,0,0,11.91,17.183v2.675a12.294,12.294,0,0,0,3.428,8.507c-.015.185-.025.371-.025.56a6.814,6.814,0,0,0,6.806,6.806v2.5a15.39,15.39,0,0,0,7.435,13.131l1.073.644V54.82l-12.4,3.1a19.5,19.5,0,0,0-4.612,1.8V49.342h-3.4V74.864H5.1v7.021A6.818,6.818,0,0,0,0,88.476v3.4a6.818,6.818,0,0,0,5.1,6.59v.215a6.8,6.8,0,0,0,12.7,3.4H51.337a5.113,5.113,0,0,0,4.812,3.4H71.863l2.665-1.333,1.333,1.333h4.108a5.11,5.11,0,0,0,5.1-5.1V91.879a6.814,6.814,0,0,0,6.806-6.806v-3.4a6.814,6.814,0,0,0-6.806-6.806Zm-3.4.293a5.113,5.113,0,0,0-3.4,4.812v6.806a5.113,5.113,0,0,0,3.4,4.812v3.7H54.447a6.814,6.814,0,0,1,6.806-6.806h6.806V71.461a6.794,6.794,0,0,0,3.4-.912,6.806,6.806,0,0,0,6.806,0,6.794,6.794,0,0,0,3.4.912ZM51.044,91.879H27.223V78.267h23.82ZM68.059,61.253a3.4,3.4,0,0,1,2.268.867l1.135,1.016L72.6,62.12a3.4,3.4,0,0,1,4.536,0l1.135,1.016L79.4,62.12a3.4,3.4,0,1,1,0,5.072l-1.135-1.016-1.135,1.016a3.4,3.4,0,0,1-4.536,0l-1.135-1.016-1.135,1.016a3.4,3.4,0,1,1-2.268-5.939ZM51.044,59.178v8.88H27.223v-8.88l3.669-.917a8.508,8.508,0,0,0,16.483,0Zm5.1-26.85V25.522a3.4,3.4,0,1,1,0,6.806Zm-37.432-3.4a3.407,3.407,0,0,1,3.4-3.4v6.806A3.407,3.407,0,0,1,18.716,28.925Zm6.806,9.308V23.6l2.459,1.639L29.869,22.4l-3.624-2.416a1.624,1.624,0,0,1,.9-2.974h.4a1.613,1.613,0,0,1,1.148.476l1.931,1.931,1.931-1.931a1.613,1.613,0,0,1,1.148-.476h.4a1.624,1.624,0,0,1,.9,2.974L31.384,22.4l1.888,2.831L36.9,22.82a5.026,5.026,0,0,0-2.788-9.209h-.4a4.99,4.99,0,0,0-3.079,1.052,4.99,4.99,0,0,0-3.079-1.052h-.4a5.032,5.032,0,0,0-5.026,5.026v3.481a6.8,6.8,0,0,0-5.351,2.608,8.891,8.891,0,0,1-1.455-4.869V17.183a8.9,8.9,0,0,1,7.14-8.709l.691-.138.391-.586A9.741,9.741,0,0,1,31.657,3.4h3.568a9.713,9.713,0,0,1,3.625.7l3.566,1.427a17.792,17.792,0,0,0,6.637,1.278,17.882,17.882,0,0,0,4.334-.534l3.94-.985,1.4,1.4a14.419,14.419,0,0,1,2.263,17.461,6.825,6.825,0,0,0-2.432-1.587,6.655,6.655,0,0,0-.955-8.2L55.65,12.409l-2.406,2.406L55.2,16.769a3.244,3.244,0,0,1-.843,5.195l-1.61.805V38.233a11.97,11.97,0,0,1-5.782,10.213l-1.073.644a3.42,3.42,0,0,0-1.652,2.918v4.141a5.1,5.1,0,1,1-10.209,0V52.007a3.42,3.42,0,0,0-1.652-2.918L31.3,48.446a11.97,11.97,0,0,1-5.783-10.213ZM8.507,78.267h6.806v3.4a5.083,5.083,0,0,0-3.4,1.3,5.084,5.084,0,0,0-3.4-1.3Zm8.507,13.612h-1.7a1.7,1.7,0,0,1-1.7-1.7v-3.4a1.7,1.7,0,0,1,1.7-1.7h1.7a3.4,3.4,0,1,1,0,6.806Zm-13.612,0v-3.4a3.407,3.407,0,0,1,3.4-3.4h1.7a1.7,1.7,0,0,1,1.7,1.7V93.58a1.7,1.7,0,0,1-1.7,1.7h-1.7A3.407,3.407,0,0,1,3.4,91.879Zm11.91,6.806a3.4,3.4,0,0,1-6.806,0,5.113,5.113,0,0,0,4.924-3.764,5.073,5.073,0,0,0,1.881.361Zm3.4-3.618a6.807,6.807,0,0,0,0-13.181V74.864h-5.1V63.722a16.037,16.037,0,0,1,5.438-2.5l4.771-1.193V71.461H54.447V60.029l4.771,1.193a16.2,16.2,0,0,1,2.54.865,6.8,6.8,0,0,0,2.9,8.46V85.073h-3.4a10.167,10.167,0,0,0-6.806,2.608V74.864H23.821V95.282H51.044v3.4H18.716Zm61.253,7.021h-2.7l-2.07-2.07-4.141,2.07H56.148a1.7,1.7,0,0,1-1.7-1.7v-1.7H81.67v1.7A1.7,1.7,0,0,1,79.969,102.088Zm8.507-17.015a3.407,3.407,0,0,1-3.4,3.4h-1.7a1.7,1.7,0,0,1-1.7-1.7V79.969a1.7,1.7,0,0,1,1.7-1.7h1.7a3.407,3.407,0,0,1,3.4,3.4Z" transform="translate(0 0)"/>
        <path id="Trazado_1034762" data-name="Trazado 1034762" d="M159.471,202.287a7.168,7.168,0,0,0,6.446-3.984l.18-.359-3.043-1.522-.18.359a3.8,3.8,0,0,1-6.806,0l-.18-.359-3.043,1.522.179.359A7.168,7.168,0,0,0,159.471,202.287Z" transform="translate(-120.337 -154.646)"/>
        <circle id="Elipse_11673" data-name="Elipse 11673" cx="1.798" cy="1.798" r="1.798" transform="translate(29.157 27.571)"/>
        <circle id="Elipse_11674" data-name="Elipse 11674" cx="1.798" cy="1.798" r="1.798" transform="translate(45.939 27.571)"/>
        <path id="Trazado_1034763" data-name="Trazado 1034763" d="M177.348,144.328a1.7,1.7,0,0,0,.761-2.283l-.18-.359A12.777,12.777,0,0,1,176.587,136h-3.4a16.21,16.21,0,0,0,1.168,6.021l-1.929.964,1.522,3.044Z" transform="translate(-135.752 -107.075)"/>
        <path id="Trazado_1034764" data-name="Trazado 1034764" d="M189.248,65a3.226,3.226,0,0,1-1.793,2.9l-.669.335,1.522,3.044.669-.335A6.647,6.647,0,0,0,190.7,60.3l-1.955-1.955-2.406,2.406L188.3,62.7A3.224,3.224,0,0,1,189.248,65Z" transform="translate(-146.712 -45.934)"/>
        <path id="Trazado_1034765" data-name="Trazado 1034765" d="M221.248,65a3.226,3.226,0,0,1-1.793,2.9l-.669.335,1.522,3.044.669-.335A6.647,6.647,0,0,0,222.7,60.3l-1.955-1.955-2.406,2.406L220.3,62.7A3.223,3.223,0,0,1,221.248,65Z" transform="translate(-171.906 -45.934)"/>
      </g>
    </g>
  </g>
</svg>
