<svg xmlns="http://www.w3.org/2000/svg" xmlns:xlink="http://www.w3.org/1999/xlink" width="108" height="108" viewBox="0 0 108 108">
  <defs>
    <filter id="Trazado_904820" x="0" y="0" width="108" height="108" filterUnits="userSpaceOnUse">
      <feOffset dy="3" input="SourceAlpha"/>
      <feGaussianBlur stdDeviation="3" result="blur"/>
      <feFlood flood-opacity="0.161"/>
      <feComposite operator="in" in2="blur"/>
      <feComposite in="SourceGraphic"/>
    </filter>
  </defs>
  <g id="Grupo_1178807" data-name="Grupo 1178807" transform="translate(-199.999 -5078.443)">
    <g id="Grupo_1178002" data-name="Grupo 1178002" transform="translate(0 2257.588)">
      <g id="Grupo_1178589" data-name="Grupo 1178589" transform="translate(208.999 2826.855)">
        <g id="Grupo_1173585" data-name="Grupo 1173585" transform="translate(0 0)">
          <g id="Grupo_1173428" data-name="Grupo 1173428">
            <g id="Grupo_1171958" data-name="Grupo 1171958">
              <g id="Grupo_1167341" data-name="Grupo 1167341">
                <g id="Grupo_1166792" data-name="Grupo 1166792">
                  <g transform="matrix(1, 0, 0, 1, -9, -6)" filter="url(#Trazado_904820)">
                    <g id="Trazado_904820-2" data-name="Trazado 904820" transform="translate(9 6)" fill="#e8ece9">
                      <path d="M 44.99999618530273 88.49994659423828 C 39.12687301635742 88.49994659423828 33.43022155761719 87.35002136230469 28.06829643249512 85.08212280273438 C 22.88852119445801 82.89125823974609 18.23629570007324 79.75454711914062 14.24084663391113 75.75910186767578 C 10.24540901184082 71.76364898681641 7.108683586120605 67.11143493652344 4.917821407318115 61.93165969848633 C 2.649921178817749 56.56973648071289 1.499996185302734 50.87309646606445 1.499996185302734 44.99997329711914 C 1.499996185302734 39.12685012817383 2.649921178817749 33.43021011352539 4.917821407318115 28.06828498840332 C 7.108683586120605 22.88851165771484 10.24540901184082 18.23629760742188 14.24084663391113 14.24084854125977 C 18.23629570007324 10.24539852142334 22.88852119445801 7.108685970306396 28.06829643249512 4.917823314666748 C 33.43022155761719 2.649923324584961 39.12687301635742 1.499998331069946 44.99999618530273 1.499998331069946 C 50.87311935424805 1.499998331069946 56.56977081298828 2.649923324584961 61.93169784545898 4.917823314666748 C 67.11147308349609 7.108685970306396 71.76369476318359 10.24539852142334 75.75914764404297 14.24084854125977 C 79.75458526611328 18.23629760742188 82.89131164550781 22.88851165771484 85.08216857910156 28.06828498840332 C 87.35007476806641 33.43021011352539 88.5 39.12685012817383 88.5 44.99997329711914 C 88.5 50.87309646606445 87.35007476806641 56.56973648071289 85.08216857910156 61.93165969848633 C 82.89131164550781 67.11143493652344 79.75458526611328 71.76364898681641 75.75914764404297 75.75910186767578 C 71.76369476318359 79.75454711914062 67.11147308349609 82.89125823974609 61.93169784545898 85.08212280273438 C 56.56977081298828 87.35002136230469 50.87311935424805 88.49994659423828 44.99999618530273 88.49994659423828 Z" stroke="none"/>
                      <path d="M 44.99999618530273 3 C 39.32870864868164 3 33.82865142822266 4.110061645507812 28.65262603759766 6.299331665039062 C 23.65165710449219 8.414573669433594 19.15968322753906 11.44332885742188 15.301513671875 15.30149841308594 C 11.44333648681641 19.15969085693359 8.414566040039062 23.65164184570312 6.299339294433594 28.65261459350586 C 4.110054016113281 33.82864379882812 2.999992370605469 39.32868576049805 2.999992370605469 44.99997329711914 C 2.999992370605469 50.67126083374023 4.110054016113281 56.17130279541016 6.299339294433594 61.34732818603516 C 8.414566040039062 66.34829711914062 11.44333648681641 70.84025573730469 15.301513671875 74.69844055175781 C 19.15968322753906 78.55661773681641 23.65165710449219 81.58537292480469 28.65262603759766 83.70061492919922 C 33.82865142822266 85.88988494873047 39.32870864868164 86.99994659423828 44.99999618530273 86.99994659423828 C 50.67128372192383 86.99994659423828 56.17134094238281 85.88988494873047 61.34736633300781 83.70061492919922 C 66.34834289550781 81.58537292480469 70.84030914306641 78.55661773681641 74.69847869873047 74.69844055175781 C 78.55665588378906 70.84025573730469 81.58542633056641 66.34829711914062 83.70065307617188 61.34732818603516 C 85.88993835449219 56.17130279541016 87 50.67126083374023 87 44.99997329711914 C 87 39.32868576049805 85.88993835449219 33.82864379882812 83.70065307617188 28.65261459350586 C 81.58542633056641 23.65164184570312 78.55665588378906 19.15969085693359 74.69847869873047 15.30149841308594 C 70.84030914306641 11.44332885742188 66.34834289550781 8.414573669433594 61.34736633300781 6.299331665039062 C 56.17134094238281 4.110061645507812 50.67128372192383 3 44.99999618530273 3 M 44.99999618530273 0 C 69.85281372070312 0 90 20.14717102050781 90 44.99997329711914 C 90 69.85277557373047 69.85281372070312 89.99994659423828 44.99999618530273 89.99994659423828 C 20.14717864990234 89.99994659423828 -7.62939453125e-06 69.85277557373047 -7.62939453125e-06 44.99997329711914 C -7.62939453125e-06 20.14717102050781 20.14717864990234 0 44.99999618530273 0 Z" stroke="none" fill="#2f5235"/>
                    </g>
                  </g>
                </g>
              </g>
            </g>
          </g>
        </g>
      </g>
    </g>
    <g id="shoes_7360564" transform="translate(221.999 5097.58)">
      <path id="Trazado_1034620" data-name="Trazado 1034620" d="M27,19.38a2.314,2.314,0,0,1-1,1.95,1.914,1.914,0,0,1-1,.29,2.131,2.131,0,0,1-2-2.24V14.37a21.991,21.991,0,0,0,4-.53Z" fill="#b7c3d5"/>
      <path id="Trazado_1034621" data-name="Trazado 1034621" d="M26,37a9.2,9.2,0,0,0,3.18,1.66c.19.06.34.09.46.12.34.09.8.2,1.4.33,1.35.3,3.42.7,6.4,1.23a25.889,25.889,0,0,0,4.57.41h4.53c.82,0,1.65-.04,2.46-.12a25.977,25.977,0,0,0,4.7-.89L63,37.07v4.25l-9.3,2.67a25.851,25.851,0,0,1-5.98.98L36.92,45h-.47a1.9,1.9,0,0,1-1.69-.96,1.878,1.878,0,0,0-1.29-.92l-4.85-.98a2.814,2.814,0,0,0-3.31,1.87l-.27.99H11V37Z" fill="#636a74"/>
      <path id="Trazado_1034622" data-name="Trazado 1034622" d="M62.1,34.22a3.649,3.649,0,0,0-2.8-1.12H56.95a19.468,19.468,0,0,1-4.74-.58A20.873,20.873,0,0,1,50,31.85a19.616,19.616,0,0,1-6.24-3.74L42.62,27.1a18.994,18.994,0,0,1-5.35-8.06l-.07-.18c0-.02-.01-.03-.01-.05C36.46,16.21,35.73,13.6,35,11a30.53,30.53,0,0,1-7.88,2.82.5.5,0,0,1-.12.02v5.54a2.314,2.314,0,0,1-1,1.95,1.914,1.914,0,0,1-1,.29,2.131,2.131,0,0,1-2-2.24V14.37a.486.486,0,0,1-.12.01A20.323,20.323,0,0,1,13,12v7c.03.94.04,1.94,0,3-.04,1.23-.14,2.38-.26,3.45h-.01c-.22.7-.48,1.38-.77,2.06l-.13.3A9.753,9.753,0,0,0,11,31.76v.85A9.711,9.711,0,0,0,12.04,37H26a9.2,9.2,0,0,0,3.18,1.66c.19.06.34.09.46.12.34.09.8.2,1.4.33,1.35.3,3.42.7,6.4,1.23a25.887,25.887,0,0,0,4.57.41h4.53c.82,0,1.65-.04,2.46-.12a25.981,25.981,0,0,0,4.7-.89L63,37.07v-.53a3.56,3.56,0,0,0-.9-2.32Z" fill="#4d5662"/>
      <path id="Trazado_1034623" data-name="Trazado 1034623" d="M4,45.986a1,1,0,0,1-1-1v-35a1,1,0,0,1,2,0v35a1,1,0,0,1-1,1Z"/>
      <path id="Trazado_1034624" data-name="Trazado 1034624" d="M7,13.987a1,1,0,0,1-.707-.293L4,11.4,1.707,13.694A1,1,0,0,1,.293,12.28l3-3a1.029,1.029,0,0,1,1.414,0l3,3A1,1,0,0,1,7,13.987Z"/>
      <path id="Trazado_1034625" data-name="Trazado 1034625" d="M59.976,55.014a1,1,0,0,1-.707-1.707l3.023-3.024A1,1,0,1,1,63.706,51.7l-3.023,3.024a1,1,0,0,1-.707.293Z"/>
      <path id="Trazado_1034626" data-name="Trazado 1034626" d="M63,51.989H11a1,1,0,0,1,0-2H63a1,1,0,0,1,0,2Z"/>
      <path id="Trazado_1034627" data-name="Trazado 1034627" d="M14,54.989a1,1,0,0,1-.707-.293l-3-3a1,1,0,0,1,0-1.414l3-3A1,1,0,1,1,14.708,48.7l-2.294,2.293,2.294,2.293A1,1,0,0,1,14,54.989Z"/>
      <path id="Trazado_1034628" data-name="Trazado 1034628" d="M63,51.989a1,1,0,0,1-.707-.293l-3-3a1,1,0,1,1,1.414-1.414l3,3A1,1,0,0,1,63,51.989Z"/>
      <path id="Trazado_1034629" data-name="Trazado 1034629" d="M36.923,45.986H36.45A2.9,2.9,0,0,1,33.881,44.5a.871.871,0,0,0-.6-.416l-4.854-.98a1.822,1.822,0,0,0-2.148,1.155L26,45.249a1,1,0,0,1-.965.737H11a1,1,0,0,1-1-1v-8a1,1,0,0,1,1-1H26a1,1,0,0,1,.622.217,8.1,8.1,0,0,0,2.836,1.482c.135.043.229.064.308.083l.118.028c.341.09.787.2,1.368.322,1.394.31,3.474.709,6.363,1.223a24.852,24.852,0,0,0,4.395.395h4.53c.794,0,1.588-.039,2.361-.115a25,25,0,0,0,4.523-.856l9.3-2.669a1,1,0,0,1,.553,1.922l-9.3,2.67a27.075,27.075,0,0,1-4.883.925c-.834.082-1.694.124-2.554.124H42.01a26.866,26.866,0,0,1-4.747-.426c-2.916-.519-5.023-.923-6.439-1.237-.613-.133-1.087-.247-1.438-.34-.2-.046-.339-.08-.508-.134a10.136,10.136,0,0,1-3.217-1.613H12v6H24.276l.068-.253a3.8,3.8,0,0,1,4.476-2.586l4.848.979a2.868,2.868,0,0,1,1.967,1.416.92.92,0,0,0,.815.444l11.267-.029a24.912,24.912,0,0,0,5.708-.941l9.3-2.67a1,1,0,1,1,.553,1.922l-9.3,2.67a26.9,26.9,0,0,1-6.212,1.019Z"/>
      <path id="Trazado_1034630" data-name="Trazado 1034630" d="M63,42.307a1,1,0,0,1-1-1v-4.78a2.578,2.578,0,0,0-.642-1.648,2.612,2.612,0,0,0-2.008-.792h-2.4a20.449,20.449,0,0,1-4.984-.61,21.957,21.957,0,0,1-2.306-.7,20.545,20.545,0,0,1-6.565-3.934l-1.138-1.009a20.023,20.023,0,0,1-5.635-8.488l-.055-.14a1.025,1.025,0,0,1-.051-.178L34.363,12.42a31.477,31.477,0,0,1-7.038,2.365,1.238,1.238,0,0,1-.184.033,22.67,22.67,0,0,1-4.043.535,1.56,1.56,0,0,1-.219.013,20.858,20.858,0,0,1-8.88-1.8v5.422c.035,1.081.035,2.086,0,3.038-.035,1.1-.122,2.252-.265,3.523a1,1,0,0,1-.092.32c-.208.643-.458,1.306-.763,2.021l-.132.306A8.818,8.818,0,0,0,12,31.747v.85a8.673,8.673,0,0,0,.933,3.939,1,1,0,1,1-1.785.9A10.651,10.651,0,0,1,10,32.6v-.85a10.812,10.812,0,0,1,.916-4.356l.126-.292c.291-.682.527-1.312.721-1.919.127-1.162.205-2.219.238-3.227.034-.91.034-1.869,0-2.936V11.986a1,1,0,0,1,1.455-.891,19.189,19.189,0,0,0,9.4,2.271h0c.037,0,.074-.008.111-.01a20.909,20.909,0,0,0,3.823-.509,1.127,1.127,0,0,1,.115-.018A29.63,29.63,0,0,0,34.537,10.1a1,1,0,0,1,1.426.615l2.19,7.811.01.037.039.1a18.065,18.065,0,0,0,5.085,7.676l1.136,1.007A18.557,18.557,0,0,0,50.347,30.9a20.111,20.111,0,0,0,2.1.635,18.432,18.432,0,0,0,4.506.553H59.3a4.6,4.6,0,0,1,3.537,1.445A4.528,4.528,0,0,1,64,36.526v4.78a1,1,0,0,1-1,1Z"/>
      <path id="Trazado_1034631" data-name="Trazado 1034631" d="M25,37.986a1,1,0,0,1-1-1V21.61a1,1,0,1,1,2,0V36.986a1,1,0,0,1-1,1Z"/>
      <path id="Trazado_1034632" data-name="Trazado 1034632" d="M22,37.986a1,1,0,0,1-1-1v-3.05c0-4.136-3.705-7.5-8.26-7.5a1,1,0,1,1-.01-2h.01C18.4,24.436,23,28.7,23,33.936v3.05a1,1,0,0,1-1,1Z"/>
      <path id="Trazado_1034633" data-name="Trazado 1034633" d="M31.041,40.1a1,1,0,0,1-.465-1.886l6.59-3.45a1.517,1.517,0,0,0,.783-.966,1.483,1.483,0,0,0-.189-1.2c-1.519-2.338-3.04-4.689-4.55-7.03a4.924,4.924,0,0,1-.639-2.614,5.185,5.185,0,0,1,1.82-3.62.974.974,0,0,1,.142-.1l2.137-1.288A1,1,0,1,1,37.7,19.655L35.646,20.9a3.167,3.167,0,0,0-1.077,2.149,2.869,2.869,0,0,0,.354,1.5c1.476,2.283,3,4.633,4.515,6.972a3.508,3.508,0,0,1-1.349,5.022L31.5,39.982a.989.989,0,0,1-.463.114Z"/>
      <path id="Trazado_1034634" data-name="Trazado 1034634" d="M49,41.616a.919.919,0,0,1-.114-.007,1,1,0,0,1-.88-1.106l1-8.78a.98.98,0,0,1,1.106-.88,1,1,0,0,1,.88,1.106l-1,8.78A1,1,0,0,1,49,41.616Z"/>
      <path id="Trazado_1034635" data-name="Trazado 1034635" d="M25,22.606a3.13,3.13,0,0,1-3-3.24v-5.01a1,1,0,0,1,2,0v5.01a1.156,1.156,0,0,0,1,1.24.906.906,0,0,0,.472-.139,1.317,1.317,0,0,0,.528-1.1v-5.54a1,1,0,1,1,2,0v5.54a3.314,3.314,0,0,1-1.445,2.782A2.911,2.911,0,0,1,25,22.606Z"/>
      <path id="Trazado_1034636" data-name="Trazado 1034636" d="M4,45.982a1,1,0,0,1-.707-.293l-3-3a1,1,0,1,1,1.414-1.414L4,43.569l2.293-2.291a1,1,0,1,1,1.414,1.416l-3,3A1,1,0,0,1,4,45.982Z"/>
    </g>
  </g>
</svg>
