<svg xmlns="http://www.w3.org/2000/svg" xmlns:xlink="http://www.w3.org/1999/xlink" width="108.914" height="108.914" viewBox="0 0 108.914 108.914">
  <defs>
    <filter id="Trazado_874925" x="0" y="0" width="108.914" height="108.914" filterUnits="userSpaceOnUse">
      <feOffset dy="3" input="SourceAlpha"/>
      <feGaussianBlur stdDeviation="3" result="blur"/>
      <feFlood flood-opacity="0.161"/>
      <feComposite operator="in" in2="blur"/>
      <feComposite in="SourceGraphic"/>
    </filter>
  </defs>
  <g id="Grupo_1111540" data-name="Grupo 1111540" transform="translate(-799.5 -2534.157)">
    <g id="Grupo_1111316" data-name="Grupo 1111316" transform="translate(0 587.946)">
      <g id="Grupo_1109835" data-name="Grupo 1109835">
        <g id="Grupo_1107913" data-name="Grupo 1107913" transform="translate(808.5 1952.211)">
          <g transform="matrix(1, 0, 0, 1, -9, -6)" filter="url(#Trazado_874925)">
            <g id="Trazado_874925-2" data-name="Trazado 874925" transform="translate(9 6)" fill="#d8cabd" opacity="0.859">
              <path d="M 45.45676803588867 89.41407012939453 C 39.52198028564453 89.41407012939453 33.76551818847656 88.25206756591797 28.34726715087891 85.96034240722656 C 23.11311721801758 83.74648284912109 18.41204261779785 80.57682800292969 14.37464332580566 76.5394287109375 C 10.33724308013916 72.50202941894531 7.167593002319336 67.80095672607422 4.953730583190918 62.56679534912109 C 2.662005424499512 57.14855575561523 1.500005483627319 51.39208221435547 1.500005483627319 45.45729446411133 C 1.500005483627319 39.52198028564453 2.662005424499512 33.76551818847656 4.953730583190918 28.34726905822754 C 7.167593002319336 23.11310577392578 10.33724308013916 18.41203117370605 14.37464332580566 14.37464332580566 C 18.41204261779785 10.33724403381348 23.11311721801758 7.167593955993652 28.34726715087891 4.953731060028076 C 33.76551818847656 2.662006139755249 39.52198028564453 1.500006198883057 45.45676803588867 1.500006198883057 C 51.39155578613281 1.500006198883057 57.14802932739258 2.662006139755249 62.56626892089844 4.953731060028076 C 67.80043029785156 7.167593955993652 72.50150299072266 10.33724403381348 76.53890228271484 14.37464332580566 C 80.57630920410156 18.41203117370605 83.74595642089844 23.11310577392578 85.95981597900391 28.34726905822754 C 88.25154113769531 33.76551818847656 89.41354370117188 39.52198028564453 89.41354370117188 45.45676803588867 C 89.41354370117188 51.39208221435547 88.25154113769531 57.14855575561523 85.95981597900391 62.56679534912109 C 83.74595642089844 67.80095672607422 80.57630920410156 72.50202941894531 76.53890228271484 76.5394287109375 C 72.50150299072266 80.57682800292969 67.80043029785156 83.74648284912109 62.56626892089844 85.96034240722656 C 57.14802932739258 88.25206756591797 51.39155578613281 89.41407012939453 45.45676803588867 89.41407012939453 Z" stroke="none"/>
              <path d="M 45.45676803588867 3 C 39.72381210327148 3 34.1639404296875 4.12213134765625 28.93159484863281 6.335227966308594 C 23.87622833251953 8.473472595214844 19.33542633056641 11.53517150878906 15.43529510498047 15.435302734375 C 11.53517150878906 19.33543395996094 8.473464965820312 23.87622833251953 6.335227966308594 28.93160247802734 C 4.122123718261719 34.16394424438477 3 39.72381591796875 3 45.4572868347168 C 3 51.19024658203125 4.122123718261719 56.75011825561523 6.335227966308594 61.98246002197266 C 8.473464965820312 67.03782653808594 11.53517150878906 71.57862854003906 15.43529510498047 75.478759765625 C 19.33542633056641 79.37889099121094 23.87622833251953 82.44058990478516 28.93159484863281 84.57883453369141 C 34.1639404296875 86.79193115234375 39.72381210327148 87.9140625 45.45676803588867 87.9140625 C 51.18972396850586 87.9140625 56.74959564208984 86.79193115234375 61.98194122314453 84.57883453369141 C 67.03730773925781 82.44058990478516 71.57810974121094 79.37889099121094 75.47824096679688 75.478759765625 C 79.37837219238281 71.57862854003906 82.44007110595703 67.03782653808594 84.57830810546875 61.98246002197266 C 86.79141235351562 56.75011825561523 87.91353607177734 51.19024658203125 87.91353607177734 45.4567756652832 C 87.91353607177734 39.72381591796875 86.79141235351562 34.16394424438477 84.57830810546875 28.93160247802734 C 82.44007110595703 23.87622833251953 79.37837219238281 19.33543395996094 75.47824096679688 15.435302734375 C 71.57810974121094 11.53517150878906 67.03730773925781 8.473472595214844 61.98194122314453 6.335227966308594 C 56.74959564208984 4.12213134765625 51.18972396850586 3 45.45676803588867 3 M 45.45676803588867 0 C 70.56185150146484 0 90.91353607177734 20.35169219970703 90.91353607177734 45.4567756652832 L 90.91353607177734 45.4572868347168 C 90.91353607177734 70.5623779296875 70.56185150146484 90.9140625 45.45676803588867 90.9140625 C 20.3516845703125 90.9140625 0 70.5623779296875 0 45.4572868347168 L 0 45.4567756652832 C 0 20.35169219970703 20.3516845703125 0 45.45676803588867 0 Z" stroke="none" fill="#fff"/>
            </g>
          </g>
          <g id="Trazado_874923" data-name="Trazado 874923" transform="translate(0 0)" fill="none">
            <path d="M45.457,0A45.457,45.457,0,0,1,90.914,45.457h0A45.457,45.457,0,0,1,0,45.457H0A45.457,45.457,0,0,1,45.457,0Z" stroke="none"/>
            <path d="M 45.45676803588867 3 C 39.72381210327148 3 34.1639404296875 4.12213134765625 28.93159484863281 6.335227966308594 C 23.87622833251953 8.473472595214844 19.33542633056641 11.53517150878906 15.43529510498047 15.435302734375 C 11.53517150878906 19.33543395996094 8.473464965820312 23.87622833251953 6.335227966308594 28.93160247802734 C 4.122123718261719 34.16394424438477 3 39.72381591796875 3 45.4572868347168 C 3 51.19024658203125 4.122123718261719 56.75011825561523 6.335227966308594 61.98246002197266 C 8.473464965820312 67.03782653808594 11.53517150878906 71.57862854003906 15.43529510498047 75.478759765625 C 19.33542633056641 79.37889099121094 23.87622833251953 82.44058990478516 28.93159484863281 84.57883453369141 C 34.1639404296875 86.79193115234375 39.72381210327148 87.9140625 45.45676803588867 87.9140625 C 51.18972396850586 87.9140625 56.74959564208984 86.79193115234375 61.98194122314453 84.57883453369141 C 67.03730773925781 82.44058990478516 71.57810974121094 79.37889099121094 75.47824096679688 75.478759765625 C 79.37837219238281 71.57862854003906 82.44007110595703 67.03782653808594 84.57830810546875 61.98246002197266 C 86.79141235351562 56.75011825561523 87.91353607177734 51.19024658203125 87.91353607177734 45.4567756652832 C 87.91353607177734 39.72381591796875 86.79141235351562 34.16394424438477 84.57830810546875 28.93160247802734 C 82.44007110595703 23.87622833251953 79.37837219238281 19.33543395996094 75.47824096679688 15.435302734375 C 71.57810974121094 11.53517150878906 67.03730773925781 8.473472595214844 61.98194122314453 6.335227966308594 C 56.74959564208984 4.12213134765625 51.18972396850586 3 45.45676803588867 3 M 45.45676803588867 0 C 70.56185150146484 0 90.91353607177734 20.35169219970703 90.91353607177734 45.4567756652832 L 90.91353607177734 45.4572868347168 C 90.91353607177734 70.5623779296875 70.56185150146484 90.9140625 45.45676803588867 90.9140625 C 20.3516845703125 90.9140625 0 70.5623779296875 0 45.4572868347168 L 0 45.4567756652832 C 0 20.35169219970703 20.3516845703125 0 45.45676803588867 0 Z" stroke="none" fill="#fff"/>
          </g>
        </g>
      </g>
    </g>
    <g id="libro-de-bocetos" transform="translate(831.843 2559.938)">
      <rect id="Rectángulo_405134" data-name="Rectángulo 405134" width="40.406" height="46.834" rx="6" transform="translate(0.918 3.599)" fill="#64c4ff"/>
      <path id="Trazado_1034017" data-name="Trazado 1034017" d="M6,46.711V10.6A1.606,1.606,0,0,1,7.6,9H36.49a1.606,1.606,0,0,1,1.6,1.6V46.711Z" transform="translate(-1.186 -1.779)" fill="#eef4ff"/>
      <path id="Trazado_1034018" data-name="Trazado 1034018" d="M34.407,30.652,51.064,14a3.4,3.4,0,0,1,4.814,4.814L39.222,35.466,32,37.873Z" transform="translate(-6.325 -2.569)" fill="#ffcd5f"/>
      <path id="Trazado_1034019" data-name="Trazado 1034019" d="M34.408,34.989a4.369,4.369,0,0,1,.62-.045A4.258,4.258,0,0,1,39.222,39.8L32,42.21Z" transform="translate(-6.325 -6.906)" fill="#f9a93e"/>
      <path id="Trazado_1034020" data-name="Trazado 1034020" d="M54.314,24.622A4.82,4.82,0,0,0,49.5,19.808L52.308,17a4.82,4.82,0,0,1,4.814,4.814Z" transform="translate(-9.783 -3.36)" fill="#f9a93e"/>
      <path id="Trazado_1034021" data-name="Trazado 1034021" d="M33.337,39h.268a2.41,2.41,0,0,1,2.407,2.407v.268L32,43.011Z" transform="translate(-6.325 -7.708)" fill="#ef8e2e"/>
      <g id="Grupo_1177650" data-name="Grupo 1177650">
        <path id="Trazado_1034022" data-name="Trazado 1034022" d="M40.92,27.473a.8.8,0,0,0-.8.8V45.735a4.017,4.017,0,0,1-4.012,4.012H5.617A4.017,4.017,0,0,1,1.6,45.735V8.024A4.017,4.017,0,0,1,5.617,4.012H8.826V6.419H6.419A2.41,2.41,0,0,0,4.012,8.826V44.932a.8.8,0,0,0,.8.8H36.909a.8.8,0,0,0,.8-.8V32.287a.8.8,0,1,0-1.6,0V44.13H5.617V8.826a.8.8,0,0,1,.8-.8H8.826v1.6a.8.8,0,1,0,1.6,0v-1.6h4.012v1.6a.8.8,0,1,0,1.6,0v-1.6h4.012v1.6a.8.8,0,1,0,1.6,0v-1.6h4.012v1.6a.8.8,0,0,0,1.6,0v-1.6h4.012v1.6a.8.8,0,0,0,1.6,0v-1.6H35.3a.8.8,0,0,1,.8.8v7.028a.8.8,0,0,0,1.6,0V8.826A2.41,2.41,0,0,0,35.3,6.419H32.9V4.012h3.209a4.017,4.017,0,0,1,4.012,4.012v3.819a.8.8,0,0,0,1.6,0V8.024a5.623,5.623,0,0,0-5.617-5.617H32.9V.8a.8.8,0,0,0-1.6,0v1.6H27.28V.8a.8.8,0,0,0-1.6,0v1.6H21.664V.8a.8.8,0,1,0-1.6,0v1.6H16.047V.8a.8.8,0,1,0-1.6,0v1.6H10.431V.8a.8.8,0,1,0-1.6,0v1.6H5.617A5.623,5.623,0,0,0,0,8.024V45.735a5.623,5.623,0,0,0,5.617,5.617h30.49a5.623,5.623,0,0,0,5.617-5.617V28.275A.8.8,0,0,0,40.92,27.473ZM31.292,4.012V6.419H27.28V4.012Zm-5.617,0V6.419H21.664V4.012Zm-5.617,0V6.419H16.047V4.012Zm-5.617,0V6.419H10.431V4.012Z" fill="#2c3038"/>
        <path id="Trazado_1034023" data-name="Trazado 1034023" d="M57.478,16.2A4.206,4.206,0,0,0,50.3,13.23l-2.214,2.214h0l-2.808,2.808h0L33.642,29.887a.805.805,0,0,0-.194.313l-2.407,7.221a.8.8,0,0,0,1.015,1.015l7.221-2.407a.805.805,0,0,0,.313-.194L51.225,24.2h0l2.808-2.808h0l2.214-2.214A4.233,4.233,0,0,0,57.478,16.2ZM36.5,35.264a3.2,3.2,0,0,0-2.287-2.287l.587-1.761a3.445,3.445,0,0,1,3.46,3.461Zm1.886-4.173a5.027,5.027,0,0,0-2.351-1.329L46.145,19.653a3.993,3.993,0,0,1,3.68,3.68L39.716,33.442A5.022,5.022,0,0,0,38.387,31.091Zm9.136-12.816,1.43-1.43a3.993,3.993,0,0,1,3.68,3.68l-1.43,1.43A5.641,5.641,0,0,0,47.523,18.275ZM33.708,34.5a1.605,1.605,0,0,1,1.274,1.274l-1.91.637ZM55.113,18.044l-1.1,1.1a5.641,5.641,0,0,0-3.68-3.68l1.1-1.1a2.689,2.689,0,0,1,3.676,0,2.607,2.607,0,0,1,0,3.683Z" transform="translate(-6.127 -2.372)" fill="#2c3038"/>
        <path id="Trazado_1034024" data-name="Trazado 1034024" d="M16.658,38.708A4.894,4.894,0,0,0,19.3,41.8a5.686,5.686,0,0,0,2.336.462,9.315,9.315,0,0,0,3.325-.666.8.8,0,0,0-.631-1.475c-.025.01-2.522,1.049-4.378.212A3.315,3.315,0,0,1,18.18,38.2a15.427,15.427,0,0,1-.192-5.34c.309-4.638.694-10.41-5.911-12.812a.8.8,0,1,0-.548,1.508c5.472,1.99,5.16,6.67,4.858,11.2A16.361,16.361,0,0,0,16.658,38.708Z" transform="translate(-2.174 -3.953)" fill="#2c3038"/>
      </g>
    </g>
  </g>
</svg>
