<svg xmlns="http://www.w3.org/2000/svg" width="76.345" height="76.344" viewBox="0 0 76.345 76.344">
  <g id="Grupo_1111311" data-name="Grupo 1111311" transform="translate(-1025.037 -3092.655)">
    <g id="Grupo_1098742" data-name="Grupo 1098742" transform="translate(1025.482 3093.101)">
      <g id="Rectángulo_400898" data-name="Rectángulo 400898" transform="translate(-0.445 -0.445)" fill="#f6e15c" stroke="#c5b44a" stroke-width="2" opacity="0.859">
        <rect width="76.345" height="76.345" rx="38.172" stroke="none"/>
        <rect x="1" y="1" width="74.345" height="74.345" rx="37.172" fill="none"/>
      </g>
      <g id="Rectángulo_400907" data-name="Rectángulo 400907" transform="translate(-0.446 -0.445)" fill="none" stroke="#c5b44a" stroke-width="2">
        <rect width="76.345" height="76.345" rx="38.172" stroke="none"/>
        <rect x="1" y="1" width="74.345" height="74.345" rx="37.172" fill="none"/>
      </g>
    </g>
    <g id="Fill_out_line" data-name="Fill out line" transform="translate(1015.811 3021.561)">
      <path id="Trazado_900271" data-name="Trazado 900271" d="M75.4,233.837v6.431H62.534v-3.675a34.815,34.815,0,0,1-15.566,3.675H43.432a34.846,34.846,0,0,1-14.4-3.12l-2.221-1.009a1.347,1.347,0,0,1-.749-1.553l.255-1.017a1.344,1.344,0,0,1,1.864-.9A43.782,43.782,0,0,0,46.3,236.593h3.242a18.02,18.02,0,0,0,1.881-.1,18.236,18.236,0,0,0,6.982-2.2,18.245,18.245,0,0,1,8.863-2.3h6.3A1.837,1.837,0,0,1,75.4,233.837Z" transform="translate(-7.083 -124.671)" fill="gray"/>
      <path id="Trazado_900272" data-name="Trazado 900272" d="M123.363,102.1a4.817,4.817,0,0,1-.634,2.389l-1.747,3.057-.775,1.356-3.675,6.431-6.431-2.756-7.511-1.818,1.1-.124q.734-.081,1.454-.223a17.582,17.582,0,0,0,10.434-6.391c.091-.115.183-.23.278-.342a17.374,17.374,0,0,1,1.831-1.9l2.4-2.149a1.837,1.837,0,0,1,2.931.687A4.817,4.817,0,0,1,123.363,102.1Z" transform="translate(-74.862 -7.083)" fill="#bc8d5d"/>
      <path id="Trazado_900273" data-name="Trazado 900273" d="M202.049,149.255l-5.512.919-1.608-2.01-5.069-6.337a17.626,17.626,0,0,0,2.965-2.965c.091-.115.183-.23.278-.342l4.352,5.223Z" transform="translate(-152.11 -41.926)" fill="#cc9f74"/>
      <path id="Trazado_900274" data-name="Trazado 900274" d="M81.59,126.431c0,.077,0,.154,0,.231a23.375,23.375,0,0,1-.9,6.2H72.557c-.323,0-.644.008-.966.026a18.231,18.231,0,0,0-7.9,2.27,18.216,18.216,0,0,1-6.982,2.2,18.008,18.008,0,0,1-1.881.1H51.589a43.784,43.784,0,0,1-18.119-3.925,2.51,2.51,0,0,1,.547-4.747,11.135,11.135,0,0,1,5.109.176,26.318,26.318,0,0,0,15.038-.356L80.69,120a23.347,23.347,0,0,1,.843,4.792Q81.59,125.61,81.59,126.431Z" transform="translate(-12.377 -25.533)" fill="#bc8d5d"/>
      <rect id="Rectángulo_404512" data-name="Rectángulo 404512" width="8.268" height="3.675" transform="translate(56.37 124.784)" fill="#4d4d4d"/>
      <path id="Trazado_900275" data-name="Trazado 900275" d="M149.674,384.973H135.757a12.175,12.175,0,0,1-7.86-2.877l-1.358-1.148h23.595Z" transform="translate(-96.06 -256.514)" fill="#4d4d4d"/>
      <path id="Trazado_900276" data-name="Trazado 900276" d="M341.78,248h0a25.974,25.974,0,0,0-10.549,2.239L328,251.675l7.35,2.756,8.268-.919.115-.461A4.7,4.7,0,0,0,341.78,248Z" transform="translate(-274.386 -138.833)" fill="#a1764a"/>
      <path id="Trazado_900277" data-name="Trazado 900277" d="M199.561,210.545a2.526,2.526,0,0,1-.427,1.408l-1.966,2.949-2.94,4.409-1.034,1.551H180.446a12.164,12.164,0,0,1-5.433-1.282l-1.382-.691,3.8-.622a13.054,13.054,0,0,0,9.564-7.044q.119-.239.261-.466A5.83,5.83,0,0,1,192.2,208h4.815a2.543,2.543,0,0,1,2.542,2.544Z" transform="translate(-137.743 -103.427)" fill="#bc8d5d"/>
      <path id="Trazado_900278" data-name="Trazado 900278" d="M169.214,254.99a7.493,7.493,0,0,1-1.027,3.787,2.359,2.359,0,0,1-2.035,1.166h-7.376a4.594,4.594,0,0,0-3.675,1.837,4.59,4.59,0,0,1-3.675,1.837,16.67,16.67,0,0,1-6.2-1.194l-4.887-1.954a7.332,7.332,0,0,0-2.73-.526H129.62a1.621,1.621,0,0,1-1.62-1.62,4.81,4.81,0,0,1,2.66-4.3,4.733,4.733,0,0,1,1.046-.379,4.817,4.817,0,0,1,1.1-.129h4.454a9.671,9.671,0,0,1,4.974,1.378,9.687,9.687,0,0,0,4.976,1.379h2.023a17.057,17.057,0,0,0,6.834-1.429l8.4-3.674a1.81,1.81,0,0,0,.279-3.165l1.128.752a7.5,7.5,0,0,1,2.518,2.828q.138.269.251.547A7.507,7.507,0,0,1,169.214,254.99Z" transform="translate(-97.354 -138.833)" fill="#bc8d5d"/>
      <path id="Trazado_900279" data-name="Trazado 900279" d="M277.352,239.35l-6.431,2.756a12.374,12.374,0,0,0-9.481-5.485,13.056,13.056,0,0,0,3.276-4.155q.119-.239.261-.466h.673a12.38,12.38,0,0,1,9.244,4.145q.345.388.659.806Z" transform="translate(-215.47 -124.671)" fill="#cc9f74"/>
      <path id="Trazado_900280" data-name="Trazado 900280" d="M120,353.841h0a1.841,1.841,0,0,0,1.834,1.841l7.923.029a7.35,7.35,0,0,1,2.712.529l3.2,1.284a25.342,25.342,0,0,0,9.445,1.826h1.072a4.593,4.593,0,0,0,3.675-1.837h0a4.594,4.594,0,0,1,3.675-1.837h1.378v3.675h5.512v-5.512A1.837,1.837,0,0,0,158.585,352h-6.89a4.593,4.593,0,0,0-3.675,1.837h0a4.593,4.593,0,0,1-3.675,1.837h0a16.7,16.7,0,0,1-6.2-1.194l-4.887-1.955a7.349,7.349,0,0,0-2.73-.526h-8.687A1.841,1.841,0,0,0,120,353.841Z" transform="translate(-90.272 -230.89)" fill="gray"/>
      <path id="Trazado_900281" data-name="Trazado 900281" d="M20.1,110.632a.428.428,0,0,1-.238-.493l.255-1.018a.428.428,0,0,1,.592-.286,44.468,44.468,0,0,0,17.257,3.99l.051-1.837a42.639,42.639,0,0,1-16.548-3.826,1.592,1.592,0,0,1,.347-3.01,10.258,10.258,0,0,1,4.687.161,27.157,27.157,0,0,0,15.563-.369l25.6-8.3a22.5,22.5,0,0,1,.574,3.82l-.932.207a10.883,10.883,0,0,0-4.727,2.371l1.2,1.392a9.04,9.04,0,0,1,3.926-1.969l.574-.128a22.478,22.478,0,0,1-.625,4.859l1.786.433A24.372,24.372,0,0,0,69.2,94.215a.919.919,0,0,0-1.167-.622l-20.777,6.739,1.413-2.473a5.7,5.7,0,0,0,.345-4.972,2.756,2.756,0,0,0-4.4-1.031L42.211,94a18.552,18.552,0,0,0-2.218,2.364,16.771,16.771,0,0,1-11.268,6.269l-.94.106q-.4-.1-.795-.2a12.107,12.107,0,0,0-5.531-.191,3.424,3.424,0,0,0-2.3,5.073,2.258,2.258,0,0,0-.825,1.252l-.255,1.018a2.265,2.265,0,0,0,1.26,2.612l2.22,1.009a35.812,35.812,0,0,0,6.63,2.259l.419-1.789a33.969,33.969,0,0,1-6.289-2.143ZM43.436,95.375l2.4-2.148a.919.919,0,0,1,1.465.344,3.873,3.873,0,0,1-.235,3.378L45.2,100.213,42.2,96.6a16.7,16.7,0,0,1,1.238-1.23ZM41,98.037l2.836,3.4L41.5,102.2c-.2.064-.4.125-.594.184l-1.882-2.352A18.359,18.359,0,0,0,41,98.037Zm-3.419,3.124,1.374,1.718a25.289,25.289,0,0,1-5.69.555A18.729,18.729,0,0,0,37.581,101.162Z" transform="translate(0)"/>
      <path id="Trazado_900282" data-name="Trazado 900282" d="M155.049,208.674a8.433,8.433,0,0,0-2.827-3.175l-1.125-.75,0,0a.914.914,0,0,0-.51-.154h-.009a26.888,26.888,0,0,0-5.048.48A3.461,3.461,0,0,0,142.466,200h-4.815a6.747,6.747,0,0,0-6.035,3.73,12.087,12.087,0,0,1-8.08,6.386c-.145-.006-.289-.01-.434-.01h-4.454a5.758,5.758,0,0,0-2.562.6,5.7,5.7,0,0,0-3.167,5.124,2.523,2.523,0,0,0,.291,1.179,2.755,2.755,0,0,0-.133,4.466h0l1.358,1.148a13.11,13.11,0,0,0,8.453,3.094h30.454a.919.919,0,0,0,.919-.919v-5.512a2.739,2.739,0,0,0-.435-1.484,3.269,3.269,0,0,0,.993-1.056A8.378,8.378,0,0,0,155.049,208.674Zm-4.58-1.578a.874.874,0,0,1-.531.739l-4.6,2.012-1.33-1.773q-.121-.162-.247-.319l.309-.463a25.053,25.053,0,0,1,6.186-.859.885.885,0,0,1,.212.663Zm-12.818-5.259h4.815a1.624,1.624,0,0,1,1.351,2.525l-1.338,2.007a13.4,13.4,0,0,0-7.78-3.544c.075-.056.15-.111.228-.163a4.894,4.894,0,0,1,2.723-.825Zm-4.413,2.756h.134a11.515,11.515,0,0,1,9.168,4.584l1.07,1.427-2.068.9a16.144,16.144,0,0,1-2.747.92,13.238,13.238,0,0,0-7.643-4.78A14.028,14.028,0,0,0,133.238,204.593Zm-3.775,4.648a11.411,11.411,0,0,1,7.216,3.541q-.8.079-1.6.079h-2.023a8.753,8.753,0,0,1-4.5-1.247,10.581,10.581,0,0,0-1.6-.784,13.88,13.88,0,0,0,2.509-1.59Zm-12.555,3.112a3.912,3.912,0,0,1,1.74-.411H123.1a8.753,8.753,0,0,1,4.5,1.247,10.591,10.591,0,0,0,5.448,1.509h2.023a17.864,17.864,0,0,0,7.2-1.507l8.4-3.673a2.688,2.688,0,0,0,1.513-1.686,6.588,6.588,0,0,1,1.225,1.677c.078.152.147.307.212.462a14.835,14.835,0,0,0-7.269,6.564h-1.742a5.538,5.538,0,0,0-4.41,2.2,3.692,3.692,0,0,1-2.94,1.47,15.709,15.709,0,0,1-5.86-1.128l-4.887-1.955a8.232,8.232,0,0,0-3.071-.591h-7.989a.7.7,0,0,1-.7-.7,3.871,3.871,0,0,1,2.151-3.481Zm5.98,11.532a11.272,11.272,0,0,1-6.139-1.823l5.924.022a6.4,6.4,0,0,1,2.373.463l3.2,1.284.141.055Zm24.023,0h-3.7c.106-.118.209-.24.3-.368a3.692,3.692,0,0,1,2.94-1.47h.459Zm5.512,0h-3.675V221.13a.919.919,0,0,0-.919-.919h-1.378a5.539,5.539,0,0,0-4.41,2.2,3.692,3.692,0,0,1-2.94,1.47h-1.073a24.315,24.315,0,0,1-9.1-1.76l-3.2-1.283a8.231,8.231,0,0,0-3.051-.6l-7.923-.029a.922.922,0,1,1,0-1.844h8.687a6.4,6.4,0,0,1,2.388.46l4.887,1.955a17.539,17.539,0,0,0,6.542,1.26,5.538,5.538,0,0,0,4.41-2.2,3.692,3.692,0,0,1,2.94-1.47h6.89a.92.92,0,0,1,.919.919Zm.809-8.062a1.445,1.445,0,0,1-1.242.712H148.5a13,13,0,0,1,5.6-4.765A6.551,6.551,0,0,1,153.231,215.824Z" transform="translate(-83.191 -96.346)"/>
    </g>
  </g>
</svg>
