<svg xmlns="http://www.w3.org/2000/svg" xmlns:xlink="http://www.w3.org/1999/xlink" width="108.914" height="108.914" viewBox="0 0 108.914 108.914">
  <defs>
    <filter id="Trazado_874925" x="0" y="0" width="108.914" height="108.914" filterUnits="userSpaceOnUse">
      <feOffset dy="3" input="SourceAlpha"/>
      <feGaussianBlur stdDeviation="3" result="blur"/>
      <feFlood flood-opacity="0.161"/>
      <feComposite operator="in" in2="blur"/>
      <feComposite in="SourceGraphic"/>
    </filter>
  </defs>
  <g id="Grupo_1179097" data-name="Grupo 1179097" transform="translate(-799.5 -2534.157)">
    <g id="Grupo_1111316" data-name="Grupo 1111316" transform="translate(0 587.946)">
      <g id="Grupo_1109835" data-name="Grupo 1109835">
        <g id="Grupo_1107913" data-name="Grupo 1107913" transform="translate(808.5 1952.211)">
          <g transform="matrix(1, 0, 0, 1, -9, -6)" filter="url(#Trazado_874925)">
            <g id="Trazado_874925-2" data-name="Trazado 874925" transform="translate(9 6)" fill="#d8cabd" opacity="0.859">
              <path d="M 45.45676803588867 89.41407012939453 C 39.52198028564453 89.41407012939453 33.76551818847656 88.25206756591797 28.34726715087891 85.96034240722656 C 23.11311721801758 83.74648284912109 18.41204261779785 80.57682800292969 14.37464332580566 76.5394287109375 C 10.33724308013916 72.50202941894531 7.167593002319336 67.80095672607422 4.953730583190918 62.56679534912109 C 2.662005424499512 57.14855575561523 1.500005483627319 51.39208221435547 1.500005483627319 45.45729446411133 C 1.500005483627319 39.52198028564453 2.662005424499512 33.76551818847656 4.953730583190918 28.34726905822754 C 7.167593002319336 23.11310577392578 10.33724308013916 18.41203117370605 14.37464332580566 14.37464332580566 C 18.41204261779785 10.33724403381348 23.11311721801758 7.167593955993652 28.34726715087891 4.953731060028076 C 33.76551818847656 2.662006139755249 39.52198028564453 1.500006198883057 45.45676803588867 1.500006198883057 C 51.39155578613281 1.500006198883057 57.14802932739258 2.662006139755249 62.56626892089844 4.953731060028076 C 67.80043029785156 7.167593955993652 72.50150299072266 10.33724403381348 76.53890228271484 14.37464332580566 C 80.57630920410156 18.41203117370605 83.74595642089844 23.11310577392578 85.95981597900391 28.34726905822754 C 88.25154113769531 33.76551818847656 89.41354370117188 39.52198028564453 89.41354370117188 45.45676803588867 C 89.41354370117188 51.39208221435547 88.25154113769531 57.14855575561523 85.95981597900391 62.56679534912109 C 83.74595642089844 67.80095672607422 80.57630920410156 72.50202941894531 76.53890228271484 76.5394287109375 C 72.50150299072266 80.57682800292969 67.80043029785156 83.74648284912109 62.56626892089844 85.96034240722656 C 57.14802932739258 88.25206756591797 51.39155578613281 89.41407012939453 45.45676803588867 89.41407012939453 Z" stroke="none"/>
              <path d="M 45.45676803588867 3 C 39.72381210327148 3 34.1639404296875 4.12213134765625 28.93159484863281 6.335227966308594 C 23.87622833251953 8.473472595214844 19.33542633056641 11.53517150878906 15.43529510498047 15.435302734375 C 11.53517150878906 19.33543395996094 8.473464965820312 23.87622833251953 6.335227966308594 28.93160247802734 C 4.122123718261719 34.16394424438477 3 39.72381591796875 3 45.4572868347168 C 3 51.19024658203125 4.122123718261719 56.75011825561523 6.335227966308594 61.98246002197266 C 8.473464965820312 67.03782653808594 11.53517150878906 71.57862854003906 15.43529510498047 75.478759765625 C 19.33542633056641 79.37889099121094 23.87622833251953 82.44058990478516 28.93159484863281 84.57883453369141 C 34.1639404296875 86.79193115234375 39.72381210327148 87.9140625 45.45676803588867 87.9140625 C 51.18972396850586 87.9140625 56.74959564208984 86.79193115234375 61.98194122314453 84.57883453369141 C 67.03730773925781 82.44058990478516 71.57810974121094 79.37889099121094 75.47824096679688 75.478759765625 C 79.37837219238281 71.57862854003906 82.44007110595703 67.03782653808594 84.57830810546875 61.98246002197266 C 86.79141235351562 56.75011825561523 87.91353607177734 51.19024658203125 87.91353607177734 45.4567756652832 C 87.91353607177734 39.72381591796875 86.79141235351562 34.16394424438477 84.57830810546875 28.93160247802734 C 82.44007110595703 23.87622833251953 79.37837219238281 19.33543395996094 75.47824096679688 15.435302734375 C 71.57810974121094 11.53517150878906 67.03730773925781 8.473472595214844 61.98194122314453 6.335227966308594 C 56.74959564208984 4.12213134765625 51.18972396850586 3 45.45676803588867 3 M 45.45676803588867 0 C 70.56185150146484 0 90.91353607177734 20.35169219970703 90.91353607177734 45.4567756652832 L 90.91353607177734 45.4572868347168 C 90.91353607177734 70.5623779296875 70.56185150146484 90.9140625 45.45676803588867 90.9140625 C 20.3516845703125 90.9140625 0 70.5623779296875 0 45.4572868347168 L 0 45.4567756652832 C 0 20.35169219970703 20.3516845703125 0 45.45676803588867 0 Z" stroke="none" fill="#fff"/>
            </g>
          </g>
          <g id="Trazado_874923" data-name="Trazado 874923" transform="translate(0 0)" fill="none">
            <path d="M45.457,0A45.457,45.457,0,0,1,90.914,45.457h0A45.457,45.457,0,0,1,0,45.457H0A45.457,45.457,0,0,1,45.457,0Z" stroke="none"/>
            <path d="M 45.45676803588867 3 C 39.72381210327148 3 34.1639404296875 4.12213134765625 28.93159484863281 6.335227966308594 C 23.87622833251953 8.473472595214844 19.33542633056641 11.53517150878906 15.43529510498047 15.435302734375 C 11.53517150878906 19.33543395996094 8.473464965820312 23.87622833251953 6.335227966308594 28.93160247802734 C 4.122123718261719 34.16394424438477 3 39.72381591796875 3 45.4572868347168 C 3 51.19024658203125 4.122123718261719 56.75011825561523 6.335227966308594 61.98246002197266 C 8.473464965820312 67.03782653808594 11.53517150878906 71.57862854003906 15.43529510498047 75.478759765625 C 19.33542633056641 79.37889099121094 23.87622833251953 82.44058990478516 28.93159484863281 84.57883453369141 C 34.1639404296875 86.79193115234375 39.72381210327148 87.9140625 45.45676803588867 87.9140625 C 51.18972396850586 87.9140625 56.74959564208984 86.79193115234375 61.98194122314453 84.57883453369141 C 67.03730773925781 82.44058990478516 71.57810974121094 79.37889099121094 75.47824096679688 75.478759765625 C 79.37837219238281 71.57862854003906 82.44007110595703 67.03782653808594 84.57830810546875 61.98246002197266 C 86.79141235351562 56.75011825561523 87.91353607177734 51.19024658203125 87.91353607177734 45.4567756652832 C 87.91353607177734 39.72381591796875 86.79141235351562 34.16394424438477 84.57830810546875 28.93160247802734 C 82.44007110595703 23.87622833251953 79.37837219238281 19.33543395996094 75.47824096679688 15.435302734375 C 71.57810974121094 11.53517150878906 67.03730773925781 8.473472595214844 61.98194122314453 6.335227966308594 C 56.74959564208984 4.12213134765625 51.18972396850586 3 45.45676803588867 3 M 45.45676803588867 0 C 70.56185150146484 0 90.91353607177734 20.35169219970703 90.91353607177734 45.4567756652832 L 90.91353607177734 45.4572868347168 C 90.91353607177734 70.5623779296875 70.56185150146484 90.9140625 45.45676803588867 90.9140625 C 20.3516845703125 90.9140625 0 70.5623779296875 0 45.4572868347168 L 0 45.4567756652832 C 0 20.35169219970703 20.3516845703125 0 45.45676803588867 0 Z" stroke="none" fill="#fff"/>
          </g>
        </g>
      </g>
    </g>
    <g id="cuero" transform="translate(823.962 2555.614)">
      <path id="Trazado_1033986" data-name="Trazado 1033986" d="M37.791,2.134C38.966,4.544,42.61,9.9,51.585,9.2a2.009,2.009,0,0,1,2.128,1.554l1.239,5.576a1.99,1.99,0,0,1-1.078,2.23c-2.306,1.116-6.551,4.155-6.551,11.44s4.245,10.324,6.551,11.438a1.99,1.99,0,0,1,1.078,2.23l-1.239,5.576A2.009,2.009,0,0,1,51.585,50.8c-8.975-.7-12.619,4.658-13.794,7.068A2,2,0,0,1,35.99,59H24a2,2,0,0,1-1.8-1.134C21.023,55.456,17.38,50.1,8.4,50.8a2.008,2.008,0,0,1-2.127-1.554L5.038,43.668a1.989,1.989,0,0,1,1.078-2.23c2.3-1.114,6.551-4.153,6.551-11.438S8.421,19.676,6.116,18.562a1.989,1.989,0,0,1-1.078-2.23l1.239-5.576A2.008,2.008,0,0,1,8.4,9.2c8.98.7,12.623-4.656,13.8-7.066A2.005,2.005,0,0,1,24,1H35.99a2,2,0,0,1,1.8,1.134Z" fill="sienna"/>
      <g id="Grupo_1177649" data-name="Grupo 1177649">
        <path id="Trazado_1033987" data-name="Trazado 1033987" d="M34.792,2.134C35.966,4.543,39.608,9.9,48.578,9.2A12.656,12.656,0,0,1,37.792,2.134,2,2,0,0,0,35.99,1h-3a2,2,0,0,1,1.8,1.134Z" fill="#783e22"/>
        <path id="Trazado_1033988" data-name="Trazado 1033988" d="M53.874,41.438C51.568,40.324,47.323,37.285,47.323,30s4.245-10.324,6.551-11.438a1.99,1.99,0,0,0,1.078-2.23l-1.239-5.576A2.009,2.009,0,0,0,51.585,9.2a18.921,18.921,0,0,1-2.545.021,2,2,0,0,1,1.673,1.533l1.239,5.576a1.99,1.99,0,0,1-1.078,2.23c-2.306,1.116-6.551,4.155-6.551,11.44s4.245,10.324,6.551,11.438a1.99,1.99,0,0,1,1.078,2.23l-1.239,5.576a2,2,0,0,1-1.673,1.533,18.921,18.921,0,0,1,2.545.021,2.009,2.009,0,0,0,2.128-1.554l1.239-5.576A1.99,1.99,0,0,0,53.874,41.438Z" fill="#783e22"/>
        <path id="Trazado_1033989" data-name="Trazado 1033989" d="M34.792,57.866A2.005,2.005,0,0,1,32.99,59h3a2,2,0,0,0,1.8-1.134A12.656,12.656,0,0,1,48.578,50.8c-8.97-.7-12.612,4.657-13.786,7.066Z" fill="#783e22"/>
      </g>
      <path id="Trazado_1033990" data-name="Trazado 1033990" d="M54.309,19.463a2.985,2.985,0,0,0,1.619-3.348l-1.239-5.577a3.02,3.02,0,0,0-3.182-2.332C43.128,8.857,39.75,3.87,38.69,1.7A2.986,2.986,0,0,0,35.99,0H24a2.989,2.989,0,0,0-2.7,1.7C20.24,3.874,16.873,8.859,8.483,8.21A3.03,3.03,0,0,0,5.3,10.539L4.062,16.115a2.984,2.984,0,0,0,1.619,3.348C7.917,20.542,11.667,23.347,11.667,30s-3.75,9.458-5.986,10.537a2.984,2.984,0,0,0-1.619,3.348L5.3,49.461a3.023,3.023,0,0,0,3.181,2.333c8.379-.656,11.757,4.335,12.817,6.51A2.989,2.989,0,0,0,24,60H35.99a2.986,2.986,0,0,0,2.7-1.7c1.061-2.174,4.441-7.163,12.817-6.51a3.021,3.021,0,0,0,3.182-2.333l1.239-5.576a2.985,2.985,0,0,0-1.619-3.348c-2.236-1.075-5.986-3.88-5.986-10.533s3.75-9.458,5.986-10.537ZM46.323,30c0,7.745,4.458,11.055,7.115,12.338a.992.992,0,0,1,.538,1.113l-1.239,5.576a1,1,0,0,1-1.074.773c-9.611-.748-13.531,5.085-14.77,7.628a1,1,0,0,1-.9.572H24a1,1,0,0,1-.9-.573c-1.166-2.39-4.7-7.692-13.118-7.692q-.8,0-1.652.065a1,1,0,0,1-1.074-.772L6.014,43.451a.992.992,0,0,1,.537-1.113C9.208,41.055,13.667,37.746,13.667,30S9.208,18.945,6.551,17.662a.992.992,0,0,1-.537-1.113l1.239-5.577A1,1,0,0,1,8.327,10.2c9.61.747,13.531-5.085,14.77-7.628A1,1,0,0,1,24,2H35.99a1,1,0,0,1,.9.572c1.239,2.541,5.157,8.371,14.77,7.627a1,1,0,0,1,1.074.772l1.239,5.577a.992.992,0,0,1-.538,1.113C50.781,18.945,46.323,22.255,46.323,30Z"/>
      <path id="Trazado_1033991" data-name="Trazado 1033991" d="M25.7,4.139a1,1,0,0,0-1.37.353,16,16,0,0,1-1.125,1.662,1,1,0,1,0,1.584,1.222,18.33,18.33,0,0,0,1.264-1.868A1,1,0,0,0,25.7,4.139Z"/>
      <path id="Trazado_1033992" data-name="Trazado 1033992" d="M20.39,8.977a15.026,15.026,0,0,1-1.736,1.154,1,1,0,0,0,.99,1.738,17.108,17.108,0,0,0,1.966-1.307,1,1,0,0,0-1.22-1.585Z"/>
      <path id="Trazado_1033993" data-name="Trazado 1033993" d="M13.171,14.042a19.819,19.819,0,0,0,2.077-.411,1,1,0,1,0-.5-1.938,17.884,17.884,0,0,1-1.865.37,1,1,0,0,0,.284,1.979Z"/>
      <path id="Trazado_1033994" data-name="Trazado 1033994" d="M9.8,14.893a1,1,0,1,0-1.059,1.7,14.622,14.622,0,0,1,1.63,1.18,1,1,0,0,0,1.28-1.538A16.734,16.734,0,0,0,9.8,14.893Z"/>
      <path id="Trazado_1033995" data-name="Trazado 1033995" d="M14.943,23a.985.985,0,0,0,.439-.1,1,1,0,0,0,.458-1.337,16.1,16.1,0,0,0-1.254-2.132,1,1,0,1,0-1.641,1.144,14.1,14.1,0,0,1,1.1,1.867,1,1,0,0,0,.9.558Z"/>
      <path id="Trazado_1033996" data-name="Trazado 1033996" d="M16.087,25.02A1,1,0,0,0,15.3,26.2a18.2,18.2,0,0,1,.277,1.9,1,1,0,0,0,.994.908h.093a1,1,0,0,0,.9-1.088,20.277,20.277,0,0,0-.307-2.1,1,1,0,0,0-1.17-.79Z"/>
      <path id="Trazado_1033997" data-name="Trazado 1033997" d="M16.668,31a1,1,0,0,0-1.087.9,18.2,18.2,0,0,1-.281,1.9,1,1,0,0,0,.783,1.177.967.967,0,0,0,.2.02,1,1,0,0,0,.979-.8,20.275,20.275,0,0,0,.307-2.1,1,1,0,0,0-.9-1.092Z"/>
      <path id="Trazado_1033998" data-name="Trazado 1033998" d="M15.433,36.979a1,1,0,0,0-1.334.47,14.228,14.228,0,0,1-.935,1.656,1,1,0,0,0,1.672,1.1,16.369,16.369,0,0,0,1.066-1.89,1,1,0,0,0-.469-1.336Z"/>
      <path id="Trazado_1033999" data-name="Trazado 1033999" d="M10.367,42.231a14.621,14.621,0,0,1-1.63,1.18,1,1,0,0,0,1.059,1.7,16.733,16.733,0,0,0,1.851-1.338,1,1,0,0,0-1.28-1.538Z"/>
      <path id="Trazado_1034000" data-name="Trazado 1034000" d="M15.248,46.369a19.761,19.761,0,0,0-2.074-.411,1,1,0,0,0-.285,1.98,17.391,17.391,0,0,1,1.863.369,1,1,0,0,0,.5-1.938Z"/>
      <path id="Trazado_1034001" data-name="Trazado 1034001" d="M19.485,48.042a1,1,0,1,0-.97,1.748A15.119,15.119,0,0,1,20.1,50.807a1,1,0,0,0,1.182-1.614,16.957,16.957,0,0,0-1.8-1.151Z"/>
      <path id="Trazado_1034002" data-name="Trazado 1034002" d="M24.6,52.375a1,1,0,1,0-1.561,1.25,16.187,16.187,0,0,1,1.3,1.883A1,1,0,0,0,25.2,56a.989.989,0,0,0,.507-.139,1,1,0,0,0,.353-1.369,18.137,18.137,0,0,0-1.46-2.117Z"/>
      <path id="Trazado_1034003" data-name="Trazado 1034003" d="M31,54H29a1,1,0,0,0,0,2h2a1,1,0,0,0,0-2Z"/>
      <path id="Trazado_1034004" data-name="Trazado 1034004" d="M31,4H29a1,1,0,0,0,0,2h2a1,1,0,0,0,0-2Z"/>
      <path id="Trazado_1034005" data-name="Trazado 1034005" d="M35.208,7.376a1,1,0,0,0,1.584-1.222,16,16,0,0,1-1.125-1.662,1,1,0,0,0-1.723,1.016,18.33,18.33,0,0,0,1.264,1.868Z"/>
      <path id="Trazado_1034006" data-name="Trazado 1034006" d="M40.356,11.869a1,1,0,1,0,.99-1.738A15.026,15.026,0,0,1,39.61,8.977a1,1,0,0,0-1.22,1.585A17.108,17.108,0,0,0,40.356,11.869Z"/>
      <path id="Trazado_1034007" data-name="Trazado 1034007" d="M47.113,12.063a17.883,17.883,0,0,1-1.865-.37,1,1,0,0,0-.5,1.938,19.818,19.818,0,0,0,2.077.411,1,1,0,1,0,.284-1.979Z"/>
      <path id="Trazado_1034008" data-name="Trazado 1034008" d="M50.2,14.893a16.733,16.733,0,0,0-1.851,1.338,1,1,0,1,0,1.28,1.538,14.622,14.622,0,0,1,1.63-1.18,1,1,0,0,0-1.059-1.7Z"/>
      <path id="Trazado_1034009" data-name="Trazado 1034009" d="M45.414,19.428A16.1,16.1,0,0,0,44.16,21.56a1,1,0,0,0,.458,1.337.985.985,0,0,0,.439.1,1,1,0,0,0,.9-.561,14.1,14.1,0,0,1,1.1-1.867,1,1,0,1,0-1.641-1.144Z"/>
      <path id="Trazado_1034010" data-name="Trazado 1034010" d="M43.332,29h.093a1,1,0,0,0,.994-.908A18.2,18.2,0,0,1,44.7,26.2a1,1,0,0,0-1.961-.394,20.276,20.276,0,0,0-.307,2.1A1,1,0,0,0,43.332,29Z"/>
      <path id="Trazado_1034011" data-name="Trazado 1034011" d="M44.7,33.8a18.2,18.2,0,0,1-.277-1.895,1,1,0,1,0-1.991.184,20.274,20.274,0,0,0,.307,2.105,1,1,0,0,0,.979.8.967.967,0,0,0,.2-.02A1,1,0,0,0,44.7,33.8Z"/>
      <path id="Trazado_1034012" data-name="Trazado 1034012" d="M44.567,36.979a1,1,0,0,0-.469,1.334,16.368,16.368,0,0,0,1.066,1.89,1,1,0,1,0,1.672-1.1,14.228,14.228,0,0,1-.935-1.656,1,1,0,0,0-1.334-.468Z"/>
      <path id="Trazado_1034013" data-name="Trazado 1034013" d="M50.2,45.107a1,1,0,1,0,1.059-1.7,14.623,14.623,0,0,1-1.63-1.18,1,1,0,0,0-1.28,1.538A16.734,16.734,0,0,0,50.2,45.107Z"/>
      <path id="Trazado_1034014" data-name="Trazado 1034014" d="M44.752,46.369a1,1,0,1,0,.5,1.938,17.39,17.39,0,0,1,1.863-.369,1,1,0,0,0-.285-1.98,19.759,19.759,0,0,0-2.078.411Z"/>
      <path id="Trazado_1034015" data-name="Trazado 1034015" d="M40.515,48.042a16.956,16.956,0,0,0-1.8,1.151A1,1,0,0,0,39.9,50.807a15.121,15.121,0,0,1,1.587-1.017,1,1,0,1,0-.97-1.748Z"/>
      <path id="Trazado_1034016" data-name="Trazado 1034016" d="M35.4,52.375a18.138,18.138,0,0,0-1.46,2.117,1,1,0,0,0,.353,1.369A.989.989,0,0,0,34.8,56a1,1,0,0,0,.863-.492,16.186,16.186,0,0,1,1.3-1.883,1,1,0,1,0-1.561-1.25Z"/>
    </g>
  </g>
</svg>
