<svg xmlns="http://www.w3.org/2000/svg" width="57.577" height="58.09" viewBox="0 0 57.577 58.09">
  <g id="Grupo_1178814" data-name="Grupo 1178814" transform="translate(-352.186 -532.677)">
    <g id="touch_12434165" transform="translate(343.78 526.104)">
      <path id="Trazado_1034637" data-name="Trazado 1034637" d="M263.389,285.66l1.581-7.724-1.38-5.15-6.908-1.425-5.012,4.619.635,2.369,2.69,5.371Z" transform="translate(-214.942 -233.911)" fill="#f1b0a2"/>
      <path id="Trazado_1034638" data-name="Trazado 1034638" d="M338.668,289.981l.965-4.717-1.38-5.149-2.36-.487Z" transform="translate(-289.606 -241.239)" fill="#eb9c8d"/>
      <path id="Trazado_1034639" data-name="Trazado 1034639" d="M141.2,7.5l-.016,2.465a34.62,34.62,0,0,0,6.894,21.31l1.142,1.526a27.242,27.242,0,0,1,4.5,9.268l11.92-3.194L157.235,7.5Z" transform="translate(-116.994)" fill="#d77f4a"/>
      <path id="Trazado_1034640" data-name="Trazado 1034640" d="M241.508,340.159l-2.417-1.449a22.134,22.134,0,0,1-7.787-7.916l-.872-1.51-.412.465a7.946,7.946,0,0,1-10.662,1.122l-1.59-1.173-.817.66A11.351,11.351,0,0,0,212.737,339l-.026,1.521a.568.568,0,0,0,.421.558l9.562,2.562a.568.568,0,0,0,.431-.057l1.6-.925a.567.567,0,0,1,.66.067l2.543,2.255a.568.568,0,0,0,.23.124l15.2,4.072.717-2.676A5.675,5.675,0,0,0,241.508,340.159Z" transform="translate(-180.405 -285.259)" fill="#fee8c7"/>
      <path id="Trazado_1034641" data-name="Trazado 1034641" d="M241.9,418.768a.567.567,0,0,1-.7.4l-11.937-3.2a.565.565,0,0,1-.23-.124l-2.142-1.9a2.838,2.838,0,0,0-3.3-.334l-.787.454a.568.568,0,0,1-.431.057l-9.624-2.579q-.009.186-.012.374l-.026,1.521a.568.568,0,0,0,.421.558l9.562,2.562a.568.568,0,0,0,.431-.057l1.6-.925a.568.568,0,0,1,.66.067l2.543,2.255a.567.567,0,0,0,.23.124l15.2,4.072.717-2.676a5.675,5.675,0,0,0-1.017-4.973Z" transform="translate(-180.404 -358.184)" fill="#fedba6"/>
      <path id="Trazado_1034642" data-name="Trazado 1034642" d="M248.075,7.5h-2.229l7.681,28.666a.454.454,0,0,1-.321.556l-9.554,2.56a27.259,27.259,0,0,1,.91,2.787l11.92-3.194Z" transform="translate(-207.834)" fill="#c86d36"/>
      <line id="Línea_649" data-name="Línea 649" x2="0.635" y2="2.369" transform="translate(36.728 42.069)" fill="none" stroke="#000" stroke-linecap="round" stroke-linejoin="round" stroke-miterlimit="10" stroke-width="1.5"/>
      <line id="Línea_650" data-name="Línea 650" x1="1.38" y1="5.15" transform="translate(48.648 38.875)" fill="none" stroke="#000" stroke-linecap="round" stroke-linejoin="round" stroke-miterlimit="10" stroke-width="1.5"/>
      <path id="Trazado_1034643" data-name="Trazado 1034643" d="M144.154,24.575a34.615,34.615,0,0,0,3.925,6.7L149.22,32.8a27.242,27.242,0,0,1,4.5,9.268l11.92-3.194L157.234,7.5H141.2l-.016,2.465a34.615,34.615,0,0,0,1.562,10.867" transform="translate(-116.993)" fill="none" stroke="#000" stroke-linecap="round" stroke-linejoin="round" stroke-miterlimit="10" stroke-width="1.5"/>
      <path id="Trazado_1034644" data-name="Trazado 1034644" d="M10.814,7.5l-.274.961a34.62,34.62,0,0,0,1.144,22.368l.708,1.769A27.241,27.241,0,0,1,14.34,42.716V51.4a.567.567,0,0,1-.1.315l-.645.968a11.351,11.351,0,0,0-1.568,9.049l.545,2.18H44.309" transform="translate(-0.001)" fill="none" stroke="#000" stroke-linecap="round" stroke-linejoin="round" stroke-miterlimit="10" stroke-width="1.5"/>
      <path id="Trazado_1034645" data-name="Trazado 1034645" d="M165.67,234.782q-.67-.571-1.3-1.2l-1.067-1.067a.567.567,0,0,1-.166-.4V215.4" transform="translate(-136.462 -184.306)" fill="none" stroke="#000" stroke-linecap="round" stroke-linejoin="round" stroke-miterlimit="10" stroke-width="1.5"/>
      <path id="Trazado_1034646" data-name="Trazado 1034646" d="M287.7,343.242l1.471.394a.568.568,0,0,0,.431-.057l1.6-.924a.567.567,0,0,1,.66.067l2.543,2.255a.568.568,0,0,0,.23.124l15.2,4.072.717-2.676a5.675,5.675,0,0,0-2.564-6.336l-2.417-1.449a22.134,22.134,0,0,1-7.787-7.916l-.872-1.51-.412.465a7.951,7.951,0,0,1-1.52,1.33" transform="translate(-246.882 -285.259)" fill="none" stroke="#000" stroke-linecap="round" stroke-linejoin="round" stroke-miterlimit="10" stroke-width="1.5"/>
      <path id="Trazado_1034647" data-name="Trazado 1034647" d="M224.677,335.633a7.924,7.924,0,0,1-5.318-1.529l-1.59-1.173-.817.66a11.351,11.351,0,0,0-4.215,8.637l-.026,1.521a.568.568,0,0,0,.421.558l4.215,1.129" transform="translate(-180.406 -288.492)" fill="none" stroke="#000" stroke-linecap="round" stroke-linejoin="round" stroke-miterlimit="10" stroke-width="1.5"/>
      <path id="Trazado_1034648" data-name="Trazado 1034648" d="M104.158,268.385l-1.763,1.763,1.763,1.763" transform="translate(-82.611 -231.273)" fill="none" stroke="#000" stroke-linecap="round" stroke-linejoin="round" stroke-miterlimit="10" stroke-width="1.5"/>
      <line id="Línea_651" data-name="Línea 651" x1="38.557" transform="translate(19.898 38.875)" fill="none" stroke="#000" stroke-linecap="round" stroke-linejoin="round" stroke-miterlimit="10" stroke-width="1.5"/>
      <path id="Trazado_1034649" data-name="Trazado 1034649" d="M428.551,268.385l1.763,1.763-1.763,1.763" transform="translate(-371.746 -231.273)" fill="none" stroke="#000" stroke-linecap="round" stroke-linejoin="round" stroke-miterlimit="10" stroke-width="1.5"/>
      <line id="Línea_652" data-name="Línea 652" x2="20.767" transform="translate(44.465 63.913)" fill="none" stroke="#000" stroke-linecap="round" stroke-linejoin="round" stroke-miterlimit="10" stroke-width="1.5"/>
      <line id="Línea_653" data-name="Línea 653" x1="3.526" transform="translate(9.207 63.913)" fill="none" stroke="#000" stroke-linecap="round" stroke-linejoin="round" stroke-miterlimit="10" stroke-width="1.5"/>
    </g>
  </g>
</svg>
