<svg xmlns="http://www.w3.org/2000/svg" width="61.689" height="61.689" viewBox="0 0 61.689 61.689">
  <g id="Grupo_1178829" data-name="Grupo 1178829" transform="translate(-1188.156 -533.156)">
    <g id="shoe_1589460" transform="translate(1188.155 533.155)">
      <path id="Trazado_1034671" data-name="Trazado 1034671" d="M10,224.012H31.206v4.819H10Zm0,0" transform="translate(-8.795 -197.021)" fill="#c68a65"/>
      <path id="Trazado_1034672" data-name="Trazado 1034672" d="M31.205,10l4.09,5.317a20.747,20.747,0,0,0,11.24,7.433l12.509,3.243A13.663,13.663,0,0,1,69.279,39.22,1.384,1.384,0,0,1,67.894,40.6H48.133A18.007,18.007,0,0,1,39.139,38.2l-1.187-.684A12.92,12.92,0,0,0,31.5,35.785H10V10" transform="translate(-8.794 -8.794)" fill="#c68a65"/>
      <path id="Trazado_1034673" data-name="Trazado 1034673" d="M31.206,10H10v4.841H34.929c-1.585-1.484-2.386-3.1-3.723-4.84Zm0,0" transform="translate(-8.795 -8.795)" fill="#dca98b"/>
      <path id="Trazado_1034674" data-name="Trazado 1034674" d="M10,105.547V119.82H24.273A14.273,14.273,0,0,0,10,105.547Zm0,0" transform="translate(-8.795 -92.83)" fill="#dca98b"/>
      <path id="Trazado_1034675" data-name="Trazado 1034675" d="M213.773,349.746H179.18a2.289,2.289,0,0,0-2.289,2.289v4.219a2.289,2.289,0,0,0,2.289,2.289h34.593a2.289,2.289,0,0,0,2.289-2.289v-4.219A2.289,2.289,0,0,0,213.773,349.746Zm0,0" transform="translate(-155.578 -307.606)" fill="#ffcb7c"/>
      <path id="Trazado_1034676" data-name="Trazado 1034676" d="M90.836,361.484H101.2v5.969H90.836Zm0,0" transform="translate(-79.891 -317.93)" fill="#b0e7f8"/>
      <path id="Trazado_1034677" data-name="Trazado 1034677" d="M20.682,323.519V326.1H17.606A7.606,7.606,0,0,1,10,318.492v-9.325l1.335-.393v-1.913L10,306.085V302h8.4v4.084l-1.335.777v1.913l2.67.393v5.97a2.513,2.513,0,0,0-2.513,2.513v2.413A3.456,3.456,0,0,0,20.682,323.519Zm0,0" transform="translate(-8.795 -265.613)" fill="#dff6fc"/>
      <path id="Trazado_1034678" data-name="Trazado 1034678" d="M1.205,33.015H22.411a1.2,1.2,0,0,0,1.2-1.2V28.233a11.734,11.734,0,0,1,4.939,1.53l1.187.684a19.239,19.239,0,0,0,9.6,2.568H59.1a2.592,2.592,0,0,0,2.59-2.589A14.868,14.868,0,0,0,50.552,16.033L38.043,12.791a19.64,19.64,0,0,1-10.587-7L23.366.472A1.2,1.2,0,0,0,22.411,0H1.205A1.205,1.205,0,0,0,0,1.205v30.6a1.2,1.2,0,0,0,1.2,1.2Zm1.2-19.038A13.091,13.091,0,0,1,14.219,25.786H2.41Zm18.8,16.628H2.41V28.2h18.8Zm.611-28.194,1.869,2.43H10.844a1.2,1.2,0,1,0,0,2.41H25.483l.056,0,.007.01a21.849,21.849,0,0,0,2.893,3.084l-2.462,2.463a1.2,1.2,0,0,0,1.7,1.7l2.667-2.667A22.133,22.133,0,0,0,34,13.914L32.68,17.161a1.2,1.2,0,1,0,2.233.905l1.333-3.289q.591.19,1.192.347l4.049,1.05v3.681a1.2,1.2,0,0,0,2.41,0V16.8l6.05,1.568a12.459,12.459,0,0,1,9.333,12.06.18.18,0,0,1-.18.179H39.339a16.821,16.821,0,0,1-8.393-2.246l-1.187-.684A14.143,14.143,0,0,0,22.7,25.786H16.637A15.5,15.5,0,0,0,2.41,11.559V2.41Zm0,0" transform="translate(0)"/>
      <path id="Trazado_1034679" data-name="Trazado 1034679" d="M58.2,297.753H23.6a3.492,3.492,0,0,0-2.806,1.414H11.033l-1.554-.228v-.179l.736-.428a1.2,1.2,0,0,0,.6-1.042V293.2a1.2,1.2,0,0,0-1.2-1.2h-8.4A1.2,1.2,0,0,0,0,293.2v4.084a1.2,1.2,0,0,0,.6,1.042l.736.428v.319l-.47.138A1.2,1.2,0,0,0,0,300.371V309.7a8.821,8.821,0,0,0,8.811,8.811h3.077a1.205,1.205,0,0,0,1.2-1.2v-2.579a1.205,1.205,0,0,0-1.2-1.2,2.254,2.254,0,0,1-2.251-2.252v-2.412a1.31,1.31,0,0,1,1.308-1.309H20.8A3.49,3.49,0,0,0,23.6,308.96h6.611a1.2,1.2,0,1,0,0-2.41H23.6a1.086,1.086,0,0,1-1.084-1.084v-4.219a1.086,1.086,0,0,1,1.084-1.084H58.2a1.086,1.086,0,0,1,1.084,1.084v4.219A1.085,1.085,0,0,1,58.2,306.55H39.851a1.2,1.2,0,0,0,0,2.41H58.2a3.5,3.5,0,0,0,3.494-3.494v-4.219a3.5,3.5,0,0,0-3.494-3.494Zm-50.968,11.1v2.412a4.669,4.669,0,0,0,3.456,4.5v.327H8.811a6.408,6.408,0,0,1-6.4-6.4v-8.423l.47-.138a1.2,1.2,0,0,0,.865-1.156v-1.913a1.2,1.2,0,0,0-.6-1.042L2.41,296.6V294.41H8.4V296.6l-.736.428a1.2,1.2,0,0,0-.6,1.042v1.913a1.205,1.205,0,0,0,1.03,1.192l1.641.241v3.924a3.725,3.725,0,0,0-2.513,3.518Zm4.923-7.279h7.959v3.56H12.15Zm0,0" transform="translate(0 -256.818)"/>
      <path id="Trazado_1034680" data-name="Trazado 1034680" d="M41.2,42.589a1.205,1.205,0,1,0-.852-.353A1.214,1.214,0,0,0,41.2,42.589Zm0,0" transform="translate(-35.18 -35.338)"/>
      <path id="Trazado_1034681" data-name="Trazado 1034681" d="M281.955,412.762a1.205,1.205,0,1,0,.852.353A1.212,1.212,0,0,0,281.955,412.762Zm0,0" transform="translate(-246.923 -363.03)"/>
    </g>
  </g>
</svg>
